<svg width="68" height="67" viewBox="0 0 68 67" fill="none" xmlns="http://www.w3.org/2000/svg">
<mask id="path-1-inside-1_600_2031" fill="white">
<path d="M43.5 5.24414H34V14.7441H43.5V5.24414ZM34 0.494141H43.5H48.25V5.24414V14.7441V19.4941H43.5H34H29.25V14.7441V5.24414V0.494141H34ZM15.2969 30.627L20.0469 38.9395L28.3594 34.1895L23.6094 25.877L15.2969 30.627ZM8.91406 28.8457L12.9219 26.4707L21.2344 21.7207L25.2422 19.3457L27.6172 23.502L32.3672 31.8145L34.7422 35.8223L30.7344 38.1973L22.4219 42.9473L18.4141 45.3223L16.0391 41.3145L11.2891 33.002L8.91406 28.8457ZM53 28.9941H43.5V38.4941H53V28.9941ZM38.75 24.2441H43.5H53H57.75V28.9941V38.4941V43.2441H53H43.5H38.75V38.4941V28.9941V24.2441ZM53 62.2441H62.5V52.7441H53V62.2441ZM48.25 47.9941H53H62.5H67.25V52.7441V62.2441V66.9941H62.5H53H48.25V62.2441V52.7441V47.9941ZM38.75 52.7441H29.25V62.2441H38.75V52.7441ZM29.25 47.9941H38.75H43.5V52.7441V62.2441V66.9941H38.75H29.25H24.5V62.2441V52.7441V47.9941H29.25ZM5.5 52.7441V62.2441H15V52.7441H5.5ZM0.75 47.9941H5.5H15H19.75V52.7441V62.2441V66.9941H15H5.5H0.75V62.2441V52.7441V47.9941Z"/>
</mask>
<path d="M43.5 5.24414H34V14.7441H43.5V5.24414ZM34 0.494141H43.5H48.25V5.24414V14.7441V19.4941H43.5H34H29.25V14.7441V5.24414V0.494141H34ZM15.2969 30.627L20.0469 38.9395L28.3594 34.1895L23.6094 25.877L15.2969 30.627ZM8.91406 28.8457L12.9219 26.4707L21.2344 21.7207L25.2422 19.3457L27.6172 23.502L32.3672 31.8145L34.7422 35.8223L30.7344 38.1973L22.4219 42.9473L18.4141 45.3223L16.0391 41.3145L11.2891 33.002L8.91406 28.8457ZM53 28.9941H43.5V38.4941H53V28.9941ZM38.75 24.2441H43.5H53H57.75V28.9941V38.4941V43.2441H53H43.5H38.75V38.4941V28.9941V24.2441ZM53 62.2441H62.5V52.7441H53V62.2441ZM48.25 47.9941H53H62.5H67.25V52.7441V62.2441V66.9941H62.5H53H48.25V62.2441V52.7441V47.9941ZM38.75 52.7441H29.25V62.2441H38.75V52.7441ZM29.25 47.9941H38.75H43.5V52.7441V62.2441V66.9941H38.75H29.25H24.5V62.2441V52.7441V47.9941H29.25ZM5.5 52.7441V62.2441H15V52.7441H5.5ZM0.75 47.9941H5.5H15H19.75V52.7441V62.2441V66.9941H15H5.5H0.75V62.2441V52.7441V47.9941Z" fill="#33FFC9"/>
<path d="M43.5 5.24414H44.5V4.24414H43.5V5.24414ZM34 5.24414V4.24414H33V5.24414H34ZM34 14.7441H33V15.7441H34V14.7441ZM43.5 14.7441V15.7441H44.5V14.7441H43.5ZM48.25 0.494141H49.25V-0.505859H48.25V0.494141ZM48.25 19.4941V20.4941H49.25V19.4941H48.25ZM29.25 19.4941H28.25V20.4941H29.25V19.4941ZM29.25 0.494141V-0.505859H28.25V0.494141H29.25ZM15.2969 30.627L14.8007 29.7587L13.9325 30.2548L14.4286 31.1231L15.2969 30.627ZM20.0469 38.9395L19.1786 39.4356L19.6748 40.3038L20.543 39.8077L20.0469 38.9395ZM28.3594 34.1895L28.8555 35.0577L29.7238 34.5616L29.2276 33.6933L28.3594 34.1895ZM23.6094 25.877L24.4776 25.3808L23.9815 24.5126L23.1132 25.0087L23.6094 25.877ZM8.91406 28.8457L8.40426 27.9854L7.55746 28.4872L8.04582 29.3418L8.91406 28.8457ZM12.9219 26.4707L12.4257 25.6025L12.4189 25.6064L12.4121 25.6104L12.9219 26.4707ZM21.2344 21.7207L21.7305 22.5889L21.7374 22.585L21.7442 22.581L21.2344 21.7207ZM25.2422 19.3457L26.1104 18.8496L25.6064 17.9675L24.7324 18.4854L25.2422 19.3457ZM32.3672 31.8145L31.4989 32.3106L31.5029 32.3175L31.5069 32.3243L32.3672 31.8145ZM34.7422 35.8223L35.252 36.6826L36.1123 36.1728L35.6025 35.3125L34.7422 35.8223ZM30.7344 38.1973L31.2305 39.0655L31.2374 39.0616L31.2442 39.0576L30.7344 38.1973ZM22.4219 42.9473L21.9257 42.079L21.9189 42.0829L21.9121 42.087L22.4219 42.9473ZM18.4141 45.3223L17.5538 45.8321L18.0636 46.6924L18.9239 46.1826L18.4141 45.3223ZM16.0391 41.3145L15.1708 41.8106L15.1747 41.8175L15.1788 41.8243L16.0391 41.3145ZM53 28.9941H54V27.9941H53V28.9941ZM43.5 28.9941V27.9941H42.5V28.9941H43.5ZM43.5 38.4941H42.5V39.4941H43.5V38.4941ZM53 38.4941V39.4941H54V38.4941H53ZM38.75 24.2441V23.2441H37.75V24.2441H38.75ZM57.75 24.2441H58.75V23.2441H57.75V24.2441ZM57.75 43.2441V44.2441H58.75V43.2441H57.75ZM38.75 43.2441H37.75V44.2441H38.75V43.2441ZM53 62.2441H52V63.2441H53V62.2441ZM62.5 62.2441V63.2441H63.5V62.2441H62.5ZM62.5 52.7441H63.5V51.7441H62.5V52.7441ZM53 52.7441V51.7441H52V52.7441H53ZM48.25 47.9941V46.9941H47.25V47.9941H48.25ZM67.25 47.9941H68.25V46.9941H67.25V47.9941ZM67.25 66.9941V67.9941H68.25V66.9941H67.25ZM48.25 66.9941H47.25V67.9941H48.25V66.9941ZM38.75 52.7441H39.75V51.7441H38.75V52.7441ZM29.25 52.7441V51.7441H28.25V52.7441H29.25ZM29.25 62.2441H28.25V63.2441H29.25V62.2441ZM38.75 62.2441V63.2441H39.75V62.2441H38.75ZM43.5 47.9941H44.5V46.9941H43.5V47.9941ZM43.5 66.9941V67.9941H44.5V66.9941H43.5ZM24.5 66.9941H23.5V67.9941H24.5V66.9941ZM24.5 47.9941V46.9941H23.5V47.9941H24.5ZM5.5 52.7441V51.7441H4.5V52.7441H5.5ZM5.5 62.2441H4.5V63.2441H5.5V62.2441ZM15 62.2441V63.2441H16V62.2441H15ZM15 52.7441H16V51.7441H15V52.7441ZM0.75 47.9941V46.9941H-0.25V47.9941H0.75ZM19.75 47.9941H20.75V46.9941H19.75V47.9941ZM19.75 66.9941V67.9941H20.75V66.9941H19.75ZM0.75 66.9941H-0.25V67.9941H0.75V66.9941ZM43.5 4.24414H34V6.24414H43.5V4.24414ZM33 5.24414V14.7441H35V5.24414H33ZM34 15.7441H43.5V13.7441H34V15.7441ZM44.5 14.7441V5.24414H42.5V14.7441H44.5ZM34 1.49414H43.5V-0.505859H34V1.49414ZM43.5 1.49414H48.25V-0.505859H43.5V1.49414ZM47.25 0.494141V5.24414H49.25V0.494141H47.25ZM47.25 5.24414V14.7441H49.25V5.24414H47.25ZM47.25 14.7441V19.4941H49.25V14.7441H47.25ZM48.25 18.4941H43.5V20.4941H48.25V18.4941ZM43.5 18.4941H34V20.4941H43.5V18.4941ZM34 18.4941H29.25V20.4941H34V18.4941ZM30.25 19.4941V14.7441H28.25V19.4941H30.25ZM30.25 14.7441V5.24414H28.25V14.7441H30.25ZM30.25 5.24414V0.494141H28.25V5.24414H30.25ZM29.25 1.49414H34V-0.505859H29.25V1.49414ZM14.4286 31.1231L19.1786 39.4356L20.9151 38.4433L16.1651 30.1308L14.4286 31.1231ZM20.543 39.8077L28.8555 35.0577L27.8632 33.3212L19.5507 38.0712L20.543 39.8077ZM29.2276 33.6933L24.4776 25.3808L22.7411 26.3731L27.4911 34.6856L29.2276 33.6933ZM23.1132 25.0087L14.8007 29.7587L15.793 31.4952L24.1055 26.7452L23.1132 25.0087ZM9.42386 29.706L13.4317 27.331L12.4121 25.6104L8.40426 27.9854L9.42386 29.706ZM13.418 27.3389L21.7305 22.5889L20.7382 20.8525L12.4257 25.6025L13.418 27.3389ZM21.7442 22.581L25.752 20.206L24.7324 18.4854L20.7246 20.8604L21.7442 22.581ZM24.3739 19.8418L26.7489 23.9981L28.4854 23.0058L26.1104 18.8496L24.3739 19.8418ZM26.7489 23.9981L31.4989 32.3106L33.2354 31.3183L28.4854 23.0058L26.7489 23.9981ZM31.5069 32.3243L33.8819 36.3321L35.6025 35.3125L33.2275 31.3047L31.5069 32.3243ZM34.2324 34.962L30.2246 37.337L31.2442 39.0576L35.252 36.6826L34.2324 34.962ZM30.2382 37.329L21.9257 42.079L22.918 43.8155L31.2305 39.0655L30.2382 37.329ZM21.9121 42.087L17.9043 44.462L18.9239 46.1826L22.9317 43.8076L21.9121 42.087ZM19.2744 44.8125L16.8994 40.8047L15.1788 41.8243L17.5538 45.8321L19.2744 44.8125ZM16.9073 40.8183L12.1573 32.5058L10.4208 33.4981L15.1708 41.8106L16.9073 40.8183ZM12.1573 32.5058L9.78231 28.3496L8.04582 29.3418L10.4208 33.4981L12.1573 32.5058ZM53 27.9941H43.5V29.9941H53V27.9941ZM42.5 28.9941V38.4941H44.5V28.9941H42.5ZM43.5 39.4941H53V37.4941H43.5V39.4941ZM54 38.4941V28.9941H52V38.4941H54ZM38.75 25.2441H43.5V23.2441H38.75V25.2441ZM43.5 25.2441H53V23.2441H43.5V25.2441ZM53 25.2441H57.75V23.2441H53V25.2441ZM56.75 24.2441V28.9941H58.75V24.2441H56.75ZM56.75 28.9941V38.4941H58.75V28.9941H56.75ZM56.75 38.4941V43.2441H58.75V38.4941H56.75ZM57.75 42.2441H53V44.2441H57.75V42.2441ZM53 42.2441H43.5V44.2441H53V42.2441ZM43.5 42.2441H38.75V44.2441H43.5V42.2441ZM39.75 43.2441V38.4941H37.75V43.2441H39.75ZM39.75 38.4941V28.9941H37.75V38.4941H39.75ZM39.75 28.9941V24.2441H37.75V28.9941H39.75ZM53 63.2441H62.5V61.2441H53V63.2441ZM63.5 62.2441V52.7441H61.5V62.2441H63.5ZM62.5 51.7441H53V53.7441H62.5V51.7441ZM52 52.7441V62.2441H54V52.7441H52ZM48.25 48.9941H53V46.9941H48.25V48.9941ZM53 48.9941H62.5V46.9941H53V48.9941ZM62.5 48.9941H67.25V46.9941H62.5V48.9941ZM66.25 47.9941V52.7441H68.25V47.9941H66.25ZM66.25 52.7441V62.2441H68.25V52.7441H66.25ZM66.25 62.2441V66.9941H68.25V62.2441H66.25ZM67.25 65.9941H62.5V67.9941H67.25V65.9941ZM62.5 65.9941H53V67.9941H62.5V65.9941ZM53 65.9941H48.25V67.9941H53V65.9941ZM49.25 66.9941V62.2441H47.25V66.9941H49.25ZM49.25 62.2441V52.7441H47.25V62.2441H49.25ZM49.25 52.7441V47.9941H47.25V52.7441H49.25ZM38.75 51.7441H29.25V53.7441H38.75V51.7441ZM28.25 52.7441V62.2441H30.25V52.7441H28.25ZM29.25 63.2441H38.75V61.2441H29.25V63.2441ZM39.75 62.2441V52.7441H37.75V62.2441H39.75ZM29.25 48.9941H38.75V46.9941H29.25V48.9941ZM38.75 48.9941H43.5V46.9941H38.75V48.9941ZM42.5 47.9941V52.7441H44.5V47.9941H42.5ZM42.5 52.7441V62.2441H44.5V52.7441H42.5ZM42.5 62.2441V66.9941H44.5V62.2441H42.5ZM43.5 65.9941H38.75V67.9941H43.5V65.9941ZM38.75 65.9941H29.25V67.9941H38.75V65.9941ZM29.25 65.9941H24.5V67.9941H29.25V65.9941ZM25.5 66.9941V62.2441H23.5V66.9941H25.5ZM25.5 62.2441V52.7441H23.5V62.2441H25.5ZM25.5 52.7441V47.9941H23.5V52.7441H25.5ZM24.5 48.9941H29.25V46.9941H24.5V48.9941ZM4.5 52.7441V62.2441H6.5V52.7441H4.5ZM5.5 63.2441H15V61.2441H5.5V63.2441ZM16 62.2441V52.7441H14V62.2441H16ZM15 51.7441H5.5V53.7441H15V51.7441ZM0.75 48.9941H5.5V46.9941H0.75V48.9941ZM5.5 48.9941H15V46.9941H5.5V48.9941ZM15 48.9941H19.75V46.9941H15V48.9941ZM18.75 47.9941V52.7441H20.75V47.9941H18.75ZM18.75 52.7441V62.2441H20.75V52.7441H18.75ZM18.75 62.2441V66.9941H20.75V62.2441H18.75ZM19.75 65.9941H15V67.9941H19.75V65.9941ZM15 65.9941H5.5V67.9941H15V65.9941ZM5.5 65.9941H0.75V67.9941H5.5V65.9941ZM1.75 66.9941V62.2441H-0.25V66.9941H1.75ZM1.75 62.2441V52.7441H-0.25V62.2441H1.75ZM1.75 52.7441V47.9941H-0.25V52.7441H1.75Z" fill="#151620" mask="url(#path-1-inside-1_600_2031)"/>
</svg>
