<svg width="68" height="67" viewBox="0 0 68 67" fill="none" xmlns="http://www.w3.org/2000/svg">
<mask id="path-1-inside-1_600_2043" fill="white">
<path d="M5.5 5.24414V62.2441H62.5V5.24414H5.5ZM0.75 0.494141H5.5H62.5H67.25V5.24414V62.2441V66.9941H62.5H5.5H0.75V62.2441V5.24414V0.494141ZM39.9375 12.3691H41.125H43.7969L43.3516 15.1895L41.4219 28.9941H48.25H50.625V31.3691V32.5566V33.5957L49.8828 34.3379L29.6953 54.5254L28.9531 55.1191H28.0625H26.875H24.0547L24.5 52.4473L26.4297 38.4941H19.75H17.375V36.1191V34.9316V34.041L17.9688 33.2988L38.1562 13.1113L38.8984 12.3691H39.9375ZM24.2031 33.7441H29.25H31.9219L31.4766 36.5645L29.9922 47.5488L43.6484 33.7441H38.75H35.9297L36.375 31.0723L37.8594 20.0879L24.2031 33.7441Z"/>
</mask>
<path d="M5.5 5.24414V62.2441H62.5V5.24414H5.5ZM0.75 0.494141H5.5H62.5H67.25V5.24414V62.2441V66.9941H62.5H5.5H0.75V62.2441V5.24414V0.494141ZM39.9375 12.3691H41.125H43.7969L43.3516 15.1895L41.4219 28.9941H48.25H50.625V31.3691V32.5566V33.5957L49.8828 34.3379L29.6953 54.5254L28.9531 55.1191H28.0625H26.875H24.0547L24.5 52.4473L26.4297 38.4941H19.75H17.375V36.1191V34.9316V34.041L17.9688 33.2988L38.1562 13.1113L38.8984 12.3691H39.9375ZM24.2031 33.7441H29.25H31.9219L31.4766 36.5645L29.9922 47.5488L43.6484 33.7441H38.75H35.9297L36.375 31.0723L37.8594 20.0879L24.2031 33.7441Z" fill="#33FFC9"/>
<path d="M5.5 5.24414V4.24414H4.5V5.24414H5.5ZM5.5 62.2441H4.5V63.2441H5.5V62.2441ZM62.5 62.2441V63.2441H63.5V62.2441H62.5ZM62.5 5.24414H63.5V4.24414H62.5V5.24414ZM0.75 0.494141V-0.505859H-0.25V0.494141H0.75ZM67.25 0.494141H68.25V-0.505859H67.25V0.494141ZM67.25 66.9941V67.9941H68.25V66.9941H67.25ZM0.75 66.9941H-0.25V67.9941H0.75V66.9941ZM43.7969 12.3691L44.7846 12.5251L44.9672 11.3691H43.7969V12.3691ZM43.3516 15.1895L42.3638 15.0335L42.3624 15.0422L42.3612 15.051L43.3516 15.1895ZM41.4219 28.9941L40.4315 28.8557L40.2724 29.9941H41.4219V28.9941ZM50.625 28.9941H51.625V27.9941H50.625V28.9941ZM50.625 33.5957L51.3321 34.3028L51.625 34.0099V33.5957H50.625ZM29.6953 54.5254L30.32 55.3063L30.3633 55.2717L30.4024 55.2325L29.6953 54.5254ZM28.9531 55.1191V56.1191H29.3039L29.5778 55.9L28.9531 55.1191ZM24.0547 55.1191L23.0683 54.9547L22.8742 56.1191H24.0547V55.1191ZM24.5 52.4473L25.4864 52.6117L25.4887 52.598L25.4906 52.5843L24.5 52.4473ZM26.4297 38.4941L27.4203 38.6311L27.5775 37.4941H26.4297V38.4941ZM17.375 38.4941H16.375V39.4941H17.375V38.4941ZM17.375 34.041L16.5941 33.4163L16.375 33.6902V34.041H17.375ZM17.9688 33.2988L17.2616 32.5917L17.2225 32.6309L17.1879 32.6741L17.9688 33.2988ZM38.8984 12.3691V11.3691H38.4842L38.1913 11.662L38.8984 12.3691ZM24.2031 33.7441L23.496 33.037L21.7889 34.7441H24.2031V33.7441ZM31.9219 33.7441L32.9096 33.9001L33.0922 32.7441H31.9219V33.7441ZM31.4766 36.5645L30.4888 36.4085L30.4871 36.4195L30.4856 36.4305L31.4766 36.5645ZM29.9922 47.5488L29.0012 47.4149L28.6009 50.3772L30.7031 48.2521L29.9922 47.5488ZM43.6484 33.7441L44.3594 34.4474L46.0443 32.7441H43.6484V33.7441ZM35.9297 33.7441L34.9433 33.5797L34.7492 34.7441H35.9297V33.7441ZM36.375 31.0723L37.3614 31.2367L37.3639 31.2215L37.366 31.2062L36.375 31.0723ZM37.8594 20.0879L38.8504 20.2218L39.2471 17.2859L37.1523 19.3808L37.8594 20.0879ZM4.5 5.24414V62.2441H6.5V5.24414H4.5ZM5.5 63.2441H62.5V61.2441H5.5V63.2441ZM63.5 62.2441V5.24414H61.5V62.2441H63.5ZM62.5 4.24414H5.5V6.24414H62.5V4.24414ZM0.75 1.49414H5.5V-0.505859H0.75V1.49414ZM5.5 1.49414H62.5V-0.505859H5.5V1.49414ZM62.5 1.49414H67.25V-0.505859H62.5V1.49414ZM66.25 0.494141V5.24414H68.25V0.494141H66.25ZM66.25 5.24414V62.2441H68.25V5.24414H66.25ZM66.25 62.2441V66.9941H68.25V62.2441H66.25ZM67.25 65.9941H62.5V67.9941H67.25V65.9941ZM62.5 65.9941H5.5V67.9941H62.5V65.9941ZM5.5 65.9941H0.75V67.9941H5.5V65.9941ZM1.75 66.9941V62.2441H-0.25V66.9941H1.75ZM1.75 62.2441V5.24414H-0.25V62.2441H1.75ZM1.75 5.24414V0.494141H-0.25V5.24414H1.75ZM39.9375 13.3691H41.125V11.3691H39.9375V13.3691ZM41.125 13.3691H43.7969V11.3691H41.125V13.3691ZM42.8091 12.2132L42.3638 15.0335L44.3393 15.3454L44.7846 12.5251L42.8091 12.2132ZM42.3612 15.051L40.4315 28.8557L42.4122 29.1326L44.3419 15.3279L42.3612 15.051ZM41.4219 29.9941H48.25V27.9941H41.4219V29.9941ZM48.25 29.9941H50.625V27.9941H48.25V29.9941ZM49.625 28.9941V31.3691H51.625V28.9941H49.625ZM49.625 31.3691V32.5566H51.625V31.3691H49.625ZM49.625 32.5566V33.5957H51.625V32.5566H49.625ZM49.9179 32.8886L49.1757 33.6308L50.5899 35.045L51.3321 34.3028L49.9179 32.8886ZM49.1757 33.6308L28.9882 53.8183L30.4024 55.2325L50.5899 35.045L49.1757 33.6308ZM29.0706 53.7445L28.3284 54.3383L29.5778 55.9L30.32 55.3063L29.0706 53.7445ZM28.9531 54.1191H28.0625V56.1191H28.9531V54.1191ZM28.0625 54.1191H26.875V56.1191H28.0625V54.1191ZM26.875 54.1191H24.0547V56.1191H26.875V54.1191ZM25.0411 55.2835L25.4864 52.6117L23.5136 52.2829L23.0683 54.9547L25.0411 55.2835ZM25.4906 52.5843L27.4203 38.6311L25.4391 38.3571L23.5094 52.3103L25.4906 52.5843ZM26.4297 37.4941H19.75V39.4941H26.4297V37.4941ZM19.75 37.4941H17.375V39.4941H19.75V37.4941ZM18.375 38.4941V36.1191H16.375V38.4941H18.375ZM18.375 36.1191V34.9316H16.375V36.1191H18.375ZM18.375 34.9316V34.041H16.375V34.9316H18.375ZM18.1559 34.6657L18.7496 33.9235L17.1879 32.6741L16.5941 33.4163L18.1559 34.6657ZM18.6759 34.0059L38.8634 13.8184L37.4491 12.4042L17.2616 32.5917L18.6759 34.0059ZM38.8634 13.8184L39.6055 13.0762L38.1913 11.662L37.4491 12.4042L38.8634 13.8184ZM38.8984 13.3691H39.9375V11.3691H38.8984V13.3691ZM24.2031 34.7441H29.25V32.7441H24.2031V34.7441ZM29.25 34.7441H31.9219V32.7441H29.25V34.7441ZM30.9341 33.5882L30.4888 36.4085L32.4643 36.7204L32.9096 33.9001L30.9341 33.5882ZM30.4856 36.4305L29.0012 47.4149L30.9832 47.6827L32.4676 36.6984L30.4856 36.4305ZM30.7031 48.2521L44.3594 34.4474L42.9375 33.0409L29.2813 46.8456L30.7031 48.2521ZM43.6484 32.7441H38.75V34.7441H43.6484V32.7441ZM38.75 32.7441H35.9297V34.7441H38.75V32.7441ZM36.9161 33.9085L37.3614 31.2367L35.3886 30.9079L34.9433 33.5797L36.9161 33.9085ZM37.366 31.2062L38.8504 20.2218L36.8684 19.954L35.384 30.9383L37.366 31.2062ZM37.1523 19.3808L23.496 33.037L24.9102 34.4512L38.5665 20.795L37.1523 19.3808Z" fill="#151620" mask="url(#path-1-inside-1_600_2043)"/>
</svg>
