<svg width="96" height="77" viewBox="0 0 96 77" fill="none" xmlns="http://www.w3.org/2000/svg">
<mask id="path-1-inside-1_600_2037" fill="white">
<path d="M34.9375 62.4941C31.0781 57.1504 29 50.6191 29 43.4941C29 28.7988 38.5 16.3301 51.7109 12.0254C46.8125 8.01758 40.5781 5.49414 33.75 5.49414C18.0156 5.49414 5.25 18.2598 5.25 33.9941C5.25 49.7285 18.0156 62.4941 33.75 62.4941C34.0469 62.4941 34.4922 62.4941 34.9375 62.4941ZM40.2812 61.752C52.8984 58.7832 62.25 47.502 62.25 33.9941C62.25 27.166 59.7266 20.7832 55.5703 15.8848C43.1016 18.8535 33.75 30.1348 33.75 43.4941C33.75 50.4707 36.125 56.8535 40.2812 61.752ZM38.5 66.9473C37.0156 67.2441 35.3828 67.2441 33.75 67.2441C15.3438 67.2441 0.5 52.4004 0.5 33.9941C0.5 15.7363 15.3438 0.744141 33.75 0.744141C42.9531 0.744141 51.2656 4.60352 57.3516 10.6895C58.8359 10.3926 60.4688 10.2441 62.25 10.2441C80.5078 10.2441 95.5 25.2363 95.5 43.4941C95.5 61.9004 80.5078 76.7441 62.25 76.7441C52.8984 76.7441 44.5859 73.0332 38.5 66.9473ZM61.0625 15.1426C64.7734 20.4863 67 27.0176 67 33.9941C67 48.8379 57.3516 61.3066 44.1406 65.6113C49.0391 69.6191 55.2734 71.9941 62.25 71.9941C77.9844 71.9941 90.75 59.2285 90.75 43.4941C90.75 27.7598 77.9844 14.9941 62.25 14.9941C61.8047 14.9941 61.3594 15.1426 61.0625 15.1426Z"/>
</mask>
<path d="M34.9375 62.4941C31.0781 57.1504 29 50.6191 29 43.4941C29 28.7988 38.5 16.3301 51.7109 12.0254C46.8125 8.01758 40.5781 5.49414 33.75 5.49414C18.0156 5.49414 5.25 18.2598 5.25 33.9941C5.25 49.7285 18.0156 62.4941 33.75 62.4941C34.0469 62.4941 34.4922 62.4941 34.9375 62.4941ZM40.2812 61.752C52.8984 58.7832 62.25 47.502 62.25 33.9941C62.25 27.166 59.7266 20.7832 55.5703 15.8848C43.1016 18.8535 33.75 30.1348 33.75 43.4941C33.75 50.4707 36.125 56.8535 40.2812 61.752ZM38.5 66.9473C37.0156 67.2441 35.3828 67.2441 33.75 67.2441C15.3438 67.2441 0.5 52.4004 0.5 33.9941C0.5 15.7363 15.3438 0.744141 33.75 0.744141C42.9531 0.744141 51.2656 4.60352 57.3516 10.6895C58.8359 10.3926 60.4688 10.2441 62.25 10.2441C80.5078 10.2441 95.5 25.2363 95.5 43.4941C95.5 61.9004 80.5078 76.7441 62.25 76.7441C52.8984 76.7441 44.5859 73.0332 38.5 66.9473ZM61.0625 15.1426C64.7734 20.4863 67 27.0176 67 33.9941C67 48.8379 57.3516 61.3066 44.1406 65.6113C49.0391 69.6191 55.2734 71.9941 62.25 71.9941C77.9844 71.9941 90.75 59.2285 90.75 43.4941C90.75 27.7598 77.9844 14.9941 62.25 14.9941C61.8047 14.9941 61.3594 15.1426 61.0625 15.1426Z" fill="#33FFC9"/>
<path d="M34.9375 62.4941V63.4941H36.8933L35.7482 61.9087L34.9375 62.4941ZM51.7109 12.0254L52.0207 12.9762L53.7597 12.4096L52.3442 11.2514L51.7109 12.0254ZM40.2812 61.752L39.5187 62.3989L39.9146 62.8655L40.5103 62.7254L40.2812 61.752ZM55.5703 15.8848L56.3328 15.2378L55.9357 14.7698L55.3387 14.912L55.5703 15.8848ZM38.5 66.9473L39.2071 66.2402L38.8287 65.8617L38.3039 65.9667L38.5 66.9473ZM57.3516 10.6895L56.6445 11.3966L57.0229 11.775L57.5477 11.67L57.3516 10.6895ZM61.0625 15.1426V14.1426H59.1506L60.2411 15.713L61.0625 15.1426ZM44.1406 65.6113L43.8308 64.6605L42.0919 65.2271L43.5074 66.3853L44.1406 65.6113ZM35.7482 61.9087C32.0188 56.7449 30 50.421 30 43.4941H28C28 50.8172 30.1375 57.5559 34.1268 63.0796L35.7482 61.9087ZM30 43.4941C30 29.2395 39.214 17.1492 52.0207 12.9762L51.4011 11.0746C37.786 15.511 28 28.3582 28 43.4941H30ZM52.3442 11.2514C47.2841 7.11139 40.8301 4.49414 33.75 4.49414V6.49414C40.3262 6.49414 46.3409 8.92377 51.0777 12.7993L52.3442 11.2514ZM33.75 4.49414C17.4633 4.49414 4.25 17.7075 4.25 33.9941H6.25C6.25 18.8121 18.5679 6.49414 33.75 6.49414V4.49414ZM4.25 33.9941C4.25 50.2808 17.4633 63.4941 33.75 63.4941V61.4941C18.5679 61.4941 6.25 49.1762 6.25 33.9941H4.25ZM33.75 63.4941C33.7506 63.4941 33.7512 63.4941 33.7517 63.4941C33.7523 63.4941 33.7529 63.4941 33.7535 63.4941C33.7541 63.4941 33.7547 63.4941 33.7552 63.4941C33.7558 63.4941 33.7564 63.4941 33.757 63.4941C33.7576 63.4941 33.7582 63.4941 33.7587 63.4941C33.7593 63.4941 33.7599 63.4941 33.7605 63.4941C33.7611 63.4941 33.7617 63.4941 33.7623 63.4941C33.7628 63.4941 33.7634 63.4941 33.764 63.4941C33.7646 63.4941 33.7652 63.4941 33.7658 63.4941C33.7664 63.4941 33.767 63.4941 33.7676 63.4941C33.7682 63.4941 33.7687 63.4941 33.7693 63.4941C33.7699 63.4941 33.7705 63.4941 33.7711 63.4941C33.7717 63.4941 33.7723 63.4941 33.7729 63.4941C33.7735 63.4941 33.7741 63.4941 33.7747 63.4941C33.7753 63.4941 33.7759 63.4941 33.7765 63.4941C33.7771 63.4941 33.7777 63.4941 33.7783 63.4941C33.7789 63.4941 33.7795 63.4941 33.7801 63.4941C33.7807 63.4941 33.7813 63.4941 33.7819 63.4941C33.7825 63.4941 33.7831 63.4941 33.7837 63.4941C33.7843 63.4941 33.7849 63.4941 33.7855 63.4941C33.7861 63.4941 33.7867 63.4941 33.7873 63.4941C33.7879 63.4941 33.7885 63.4941 33.7891 63.4941C33.7897 63.4941 33.7903 63.4941 33.7909 63.4941C33.7915 63.4941 33.7921 63.4941 33.7927 63.4941C33.7933 63.4941 33.7939 63.4941 33.7945 63.4941C33.7951 63.4941 33.7957 63.4941 33.7964 63.4941C33.797 63.4941 33.7976 63.4941 33.7982 63.4941C33.7988 63.4941 33.7994 63.4941 33.8 63.4941C33.8006 63.4941 33.8012 63.4941 33.8018 63.4941C33.8025 63.4941 33.8031 63.4941 33.8037 63.4941C33.8043 63.4941 33.8049 63.4941 33.8055 63.4941C33.8061 63.4941 33.8068 63.4941 33.8074 63.4941C33.808 63.4941 33.8086 63.4941 33.8092 63.4941C33.8098 63.4941 33.8104 63.4941 33.8111 63.4941C33.8117 63.4941 33.8123 63.4941 33.8129 63.4941C33.8135 63.4941 33.8142 63.4941 33.8148 63.4941C33.8154 63.4941 33.816 63.4941 33.8166 63.4941C33.8173 63.4941 33.8179 63.4941 33.8185 63.4941C33.8191 63.4941 33.8197 63.4941 33.8204 63.4941C33.821 63.4941 33.8216 63.4941 33.8222 63.4941C33.8229 63.4941 33.8235 63.4941 33.8241 63.4941C33.8247 63.4941 33.8253 63.4941 33.826 63.4941C33.8266 63.4941 33.8272 63.4941 33.8279 63.4941C33.8285 63.4941 33.8291 63.4941 33.8297 63.4941C33.8304 63.4941 33.831 63.4941 33.8316 63.4941C33.8322 63.4941 33.8329 63.4941 33.8335 63.4941C33.8341 63.4941 33.8348 63.4941 33.8354 63.4941C33.836 63.4941 33.8367 63.4941 33.8373 63.4941C33.8379 63.4941 33.8386 63.4941 33.8392 63.4941C33.8398 63.4941 33.8404 63.4941 33.8411 63.4941C33.8417 63.4941 33.8424 63.4941 33.843 63.4941C33.8436 63.4941 33.8443 63.4941 33.8449 63.4941C33.8455 63.4941 33.8462 63.4941 33.8468 63.4941C33.8474 63.4941 33.8481 63.4941 33.8487 63.4941C33.8494 63.4941 33.85 63.4941 33.8506 63.4941C33.8513 63.4941 33.8519 63.4941 33.8525 63.4941C33.8532 63.4941 33.8538 63.4941 33.8545 63.4941C33.8551 63.4941 33.8557 63.4941 33.8564 63.4941C33.857 63.4941 33.8577 63.4941 33.8583 63.4941C33.859 63.4941 33.8596 63.4941 33.8602 63.4941C33.8609 63.4941 33.8615 63.4941 33.8622 63.4941C33.8628 63.4941 33.8635 63.4941 33.8641 63.4941C33.8648 63.4941 33.8654 63.4941 33.8661 63.4941C33.8667 63.4941 33.8673 63.4941 33.868 63.4941C33.8686 63.4941 33.8693 63.4941 33.8699 63.4941C33.8706 63.4941 33.8712 63.4941 33.8719 63.4941C33.8725 63.4941 33.8732 63.4941 33.8738 63.4941C33.8745 63.4941 33.8751 63.4941 33.8758 63.4941C33.8764 63.4941 33.8771 63.4941 33.8777 63.4941C33.8784 63.4941 33.8791 63.4941 33.8797 63.4941C33.8804 63.4941 33.881 63.4941 33.8817 63.4941C33.8823 63.4941 33.883 63.4941 33.8836 63.4941C33.8843 63.4941 33.8849 63.4941 33.8856 63.4941C33.8863 63.4941 33.8869 63.4941 33.8876 63.4941C33.8882 63.4941 33.8889 63.4941 33.8896 63.4941C33.8902 63.4941 33.8909 63.4941 33.8915 63.4941C33.8922 63.4941 33.8928 63.4941 33.8935 63.4941C33.8942 63.4941 33.8948 63.4941 33.8955 63.4941C33.8962 63.4941 33.8968 63.4941 33.8975 63.4941C33.8981 63.4941 33.8988 63.4941 33.8995 63.4941C33.9001 63.4941 33.9008 63.4941 33.9015 63.4941C33.9021 63.4941 33.9028 63.4941 33.9035 63.4941C33.9041 63.4941 33.9048 63.4941 33.9054 63.4941C33.9061 63.4941 33.9068 63.4941 33.9074 63.4941C33.9081 63.4941 33.9088 63.4941 33.9095 63.4941C33.9101 63.4941 33.9108 63.4941 33.9115 63.4941C33.9121 63.4941 33.9128 63.4941 33.9135 63.4941C33.9141 63.4941 33.9148 63.4941 33.9155 63.4941C33.9161 63.4941 33.9168 63.4941 33.9175 63.4941C33.9182 63.4941 33.9188 63.4941 33.9195 63.4941C33.9202 63.4941 33.9209 63.4941 33.9215 63.4941C33.9222 63.4941 33.9229 63.4941 33.9236 63.4941C33.9242 63.4941 33.9249 63.4941 33.9256 63.4941C33.9263 63.4941 33.9269 63.4941 33.9276 63.4941C33.9283 63.4941 33.929 63.4941 33.9296 63.4941C33.9303 63.4941 33.931 63.4941 33.9317 63.4941C33.9323 63.4941 33.933 63.4941 33.9337 63.4941C33.9344 63.4941 33.9351 63.4941 33.9357 63.4941C33.9364 63.4941 33.9371 63.4941 33.9378 63.4941C33.9385 63.4941 33.9391 63.4941 33.9398 63.4941C33.9405 63.4941 33.9412 63.4941 33.9419 63.4941C33.9426 63.4941 33.9432 63.4941 33.9439 63.4941C33.9446 63.4941 33.9453 63.4941 33.946 63.4941C33.9467 63.4941 33.9474 63.4941 33.948 63.4941C33.9487 63.4941 33.9494 63.4941 33.9501 63.4941C33.9508 63.4941 33.9515 63.4941 33.9522 63.4941C33.9528 63.4941 33.9535 63.4941 33.9542 63.4941C33.9549 63.4941 33.9556 63.4941 33.9563 63.4941C33.957 63.4941 33.9577 63.4941 33.9584 63.4941C33.959 63.4941 33.9597 63.4941 33.9604 63.4941C33.9611 63.4941 33.9618 63.4941 33.9625 63.4941C33.9632 63.4941 33.9639 63.4941 33.9646 63.4941C33.9653 63.4941 33.966 63.4941 33.9667 63.4941C33.9674 63.4941 33.968 63.4941 33.9687 63.4941C33.9694 63.4941 33.9701 63.4941 33.9708 63.4941C33.9715 63.4941 33.9722 63.4941 33.9729 63.4941C33.9736 63.4941 33.9743 63.4941 33.975 63.4941C33.9757 63.4941 33.9764 63.4941 33.9771 63.4941C33.9778 63.4941 33.9785 63.4941 33.9792 63.4941C33.9799 63.4941 33.9806 63.4941 33.9813 63.4941C33.982 63.4941 33.9827 63.4941 33.9834 63.4941C33.9841 63.4941 33.9848 63.4941 33.9855 63.4941C33.9862 63.4941 33.9869 63.4941 33.9876 63.4941C33.9883 63.4941 33.989 63.4941 33.9897 63.4941C33.9904 63.4941 33.9911 63.4941 33.9918 63.4941C33.9925 63.4941 33.9932 63.4941 33.9939 63.4941C33.9946 63.4941 33.9953 63.4941 33.9961 63.4941C33.9968 63.4941 33.9975 63.4941 33.9982 63.4941C33.9989 63.4941 33.9996 63.4941 34.0003 63.4941C34.001 63.4941 34.0017 63.4941 34.0024 63.4941C34.0031 63.4941 34.0038 63.4941 34.0045 63.4941C34.0052 63.4941 34.006 63.4941 34.0067 63.4941C34.0074 63.4941 34.0081 63.4941 34.0088 63.4941C34.0095 63.4941 34.0102 63.4941 34.0109 63.4941C34.0116 63.4941 34.0124 63.4941 34.0131 63.4941C34.0138 63.4941 34.0145 63.4941 34.0152 63.4941C34.0159 63.4941 34.0166 63.4941 34.0174 63.4941C34.0181 63.4941 34.0188 63.4941 34.0195 63.4941C34.0202 63.4941 34.0209 63.4941 34.0216 63.4941C34.0224 63.4941 34.0231 63.4941 34.0238 63.4941C34.0245 63.4941 34.0252 63.4941 34.0259 63.4941C34.0267 63.4941 34.0274 63.4941 34.0281 63.4941C34.0288 63.4941 34.0295 63.4941 34.0303 63.4941C34.031 63.4941 34.0317 63.4941 34.0324 63.4941C34.0331 63.4941 34.0339 63.4941 34.0346 63.4941C34.0353 63.4941 34.036 63.4941 34.0367 63.4941C34.0375 63.4941 34.0382 63.4941 34.0389 63.4941C34.0396 63.4941 34.0403 63.4941 34.0411 63.4941C34.0418 63.4941 34.0425 63.4941 34.0432 63.4941C34.044 63.4941 34.0447 63.4941 34.0454 63.4941C34.0461 63.4941 34.0469 63.4941 34.0476 63.4941C34.0483 63.4941 34.049 63.4941 34.0498 63.4941C34.0505 63.4941 34.0512 63.4941 34.0519 63.4941C34.0527 63.4941 34.0534 63.4941 34.0541 63.4941C34.0549 63.4941 34.0556 63.4941 34.0563 63.4941C34.057 63.4941 34.0578 63.4941 34.0585 63.4941C34.0592 63.4941 34.06 63.4941 34.0607 63.4941C34.0614 63.4941 34.0622 63.4941 34.0629 63.4941C34.0636 63.4941 34.0643 63.4941 34.0651 63.4941C34.0658 63.4941 34.0665 63.4941 34.0673 63.4941C34.068 63.4941 34.0687 63.4941 34.0695 63.4941C34.0702 63.4941 34.0709 63.4941 34.0717 63.4941C34.0724 63.4941 34.0731 63.4941 34.0739 63.4941C34.0746 63.4941 34.0754 63.4941 34.0761 63.4941C34.0768 63.4941 34.0776 63.4941 34.0783 63.4941C34.079 63.4941 34.0798 63.4941 34.0805 63.4941C34.0812 63.4941 34.082 63.4941 34.0827 63.4941C34.0835 63.4941 34.0842 63.4941 34.0849 63.4941C34.0857 63.4941 34.0864 63.4941 34.0872 63.4941C34.0879 63.4941 34.0886 63.4941 34.0894 63.4941C34.0901 63.4941 34.0909 63.4941 34.0916 63.4941C34.0923 63.4941 34.0931 63.4941 34.0938 63.4941C34.0946 63.4941 34.0953 63.4941 34.096 63.4941C34.0968 63.4941 34.0975 63.4941 34.0983 63.4941C34.099 63.4941 34.0998 63.4941 34.1005 63.4941C34.1013 63.4941 34.102 63.4941 34.1027 63.4941C34.1035 63.4941 34.1042 63.4941 34.105 63.4941C34.1057 63.4941 34.1065 63.4941 34.1072 63.4941C34.108 63.4941 34.1087 63.4941 34.1095 63.4941C34.1102 63.4941 34.111 63.4941 34.1117 63.4941C34.1124 63.4941 34.1132 63.4941 34.1139 63.4941C34.1147 63.4941 34.1154 63.4941 34.1162 63.4941C34.1169 63.4941 34.1177 63.4941 34.1184 63.4941C34.1192 63.4941 34.1199 63.4941 34.1207 63.4941C34.1214 63.4941 34.1222 63.4941 34.1229 63.4941C34.1237 63.4941 34.1244 63.4941 34.1252 63.4941C34.126 63.4941 34.1267 63.4941 34.1275 63.4941C34.1282 63.4941 34.129 63.4941 34.1297 63.4941C34.1305 63.4941 34.1312 63.4941 34.132 63.4941C34.1327 63.4941 34.1335 63.4941 34.1342 63.4941C34.135 63.4941 34.1358 63.4941 34.1365 63.4941C34.1373 63.4941 34.138 63.4941 34.1388 63.4941C34.1395 63.4941 34.1403 63.4941 34.141 63.4941C34.1418 63.4941 34.1426 63.4941 34.1433 63.4941C34.1441 63.4941 34.1448 63.4941 34.1456 63.4941C34.1464 63.4941 34.1471 63.4941 34.1479 63.4941C34.1486 63.4941 34.1494 63.4941 34.1502 63.4941C34.1509 63.4941 34.1517 63.4941 34.1524 63.4941C34.1532 63.4941 34.154 63.4941 34.1547 63.4941C34.1555 63.4941 34.1562 63.4941 34.157 63.4941C34.1578 63.4941 34.1585 63.4941 34.1593 63.4941C34.1601 63.4941 34.1608 63.4941 34.1616 63.4941C34.1623 63.4941 34.1631 63.4941 34.1639 63.4941C34.1646 63.4941 34.1654 63.4941 34.1662 63.4941C34.1669 63.4941 34.1677 63.4941 34.1685 63.4941C34.1692 63.4941 34.17 63.4941 34.1708 63.4941C34.1715 63.4941 34.1723 63.4941 34.1731 63.4941C34.1738 63.4941 34.1746 63.4941 34.1754 63.4941C34.1761 63.4941 34.1769 63.4941 34.1777 63.4941C34.1784 63.4941 34.1792 63.4941 34.18 63.4941C34.1807 63.4941 34.1815 63.4941 34.1823 63.4941C34.183 63.4941 34.1838 63.4941 34.1846 63.4941C34.1854 63.4941 34.1861 63.4941 34.1869 63.4941C34.1877 63.4941 34.1884 63.4941 34.1892 63.4941C34.19 63.4941 34.1908 63.4941 34.1915 63.4941C34.1923 63.4941 34.1931 63.4941 34.1938 63.4941C34.1946 63.4941 34.1954 63.4941 34.1962 63.4941C34.1969 63.4941 34.1977 63.4941 34.1985 63.4941C34.1993 63.4941 34.2 63.4941 34.2008 63.4941C34.2016 63.4941 34.2024 63.4941 34.2031 63.4941C34.2039 63.4941 34.2047 63.4941 34.2055 63.4941C34.2062 63.4941 34.207 63.4941 34.2078 63.4941C34.2086 63.4941 34.2093 63.4941 34.2101 63.4941C34.2109 63.4941 34.2117 63.4941 34.2125 63.4941C34.2132 63.4941 34.214 63.4941 34.2148 63.4941C34.2156 63.4941 34.2163 63.4941 34.2171 63.4941C34.2179 63.4941 34.2187 63.4941 34.2195 63.4941C34.2202 63.4941 34.221 63.4941 34.2218 63.4941C34.2226 63.4941 34.2234 63.4941 34.2241 63.4941C34.2249 63.4941 34.2257 63.4941 34.2265 63.4941C34.2273 63.4941 34.2281 63.4941 34.2288 63.4941C34.2296 63.4941 34.2304 63.4941 34.2312 63.4941C34.232 63.4941 34.2328 63.4941 34.2335 63.4941C34.2343 63.4941 34.2351 63.4941 34.2359 63.4941C34.2367 63.4941 34.2375 63.4941 34.2382 63.4941C34.239 63.4941 34.2398 63.4941 34.2406 63.4941C34.2414 63.4941 34.2422 63.4941 34.243 63.4941C34.2437 63.4941 34.2445 63.4941 34.2453 63.4941C34.2461 63.4941 34.2469 63.4941 34.2477 63.4941C34.2485 63.4941 34.2493 63.4941 34.25 63.4941C34.2508 63.4941 34.2516 63.4941 34.2524 63.4941C34.2532 63.4941 34.254 63.4941 34.2548 63.4941C34.2556 63.4941 34.2563 63.4941 34.2571 63.4941C34.2579 63.4941 34.2587 63.4941 34.2595 63.4941C34.2603 63.4941 34.2611 63.4941 34.2619 63.4941C34.2627 63.4941 34.2635 63.4941 34.2643 63.4941C34.265 63.4941 34.2658 63.4941 34.2666 63.4941C34.2674 63.4941 34.2682 63.4941 34.269 63.4941C34.2698 63.4941 34.2706 63.4941 34.2714 63.4941C34.2722 63.4941 34.273 63.4941 34.2738 63.4941C34.2746 63.4941 34.2754 63.4941 34.2761 63.4941C34.2769 63.4941 34.2777 63.4941 34.2785 63.4941C34.2793 63.4941 34.2801 63.4941 34.2809 63.4941C34.2817 63.4941 34.2825 63.4941 34.2833 63.4941C34.2841 63.4941 34.2849 63.4941 34.2857 63.4941C34.2865 63.4941 34.2873 63.4941 34.2881 63.4941C34.2889 63.4941 34.2897 63.4941 34.2905 63.4941C34.2913 63.4941 34.2921 63.4941 34.2929 63.4941C34.2937 63.4941 34.2945 63.4941 34.2953 63.4941C34.2961 63.4941 34.2969 63.4941 34.2977 63.4941C34.2985 63.4941 34.2993 63.4941 34.3001 63.4941C34.3009 63.4941 34.3017 63.4941 34.3025 63.4941C34.3033 63.4941 34.3041 63.4941 34.3049 63.4941C34.3057 63.4941 34.3065 63.4941 34.3073 63.4941C34.3081 63.4941 34.3089 63.4941 34.3097 63.4941C34.3105 63.4941 34.3113 63.4941 34.3121 63.4941C34.3129 63.4941 34.3137 63.4941 34.3145 63.4941C34.3153 63.4941 34.3161 63.4941 34.3169 63.4941C34.3177 63.4941 34.3185 63.4941 34.3193 63.4941C34.3201 63.4941 34.3209 63.4941 34.3217 63.4941C34.3225 63.4941 34.3233 63.4941 34.3242 63.4941C34.325 63.4941 34.3258 63.4941 34.3266 63.4941C34.3274 63.4941 34.3282 63.4941 34.329 63.4941C34.3298 63.4941 34.3306 63.4941 34.3314 63.4941C34.3322 63.4941 34.333 63.4941 34.3338 63.4941C34.3346 63.4941 34.3354 63.4941 34.3363 63.4941C34.3371 63.4941 34.3379 63.4941 34.3387 63.4941C34.3395 63.4941 34.3403 63.4941 34.3411 63.4941C34.3419 63.4941 34.3427 63.4941 34.3435 63.4941C34.3443 63.4941 34.3452 63.4941 34.346 63.4941C34.3468 63.4941 34.3476 63.4941 34.3484 63.4941C34.3492 63.4941 34.35 63.4941 34.3508 63.4941C34.3516 63.4941 34.3525 63.4941 34.3533 63.4941C34.3541 63.4941 34.3549 63.4941 34.3557 63.4941C34.3565 63.4941 34.3573 63.4941 34.3581 63.4941C34.3589 63.4941 34.3598 63.4941 34.3606 63.4941C34.3614 63.4941 34.3622 63.4941 34.363 63.4941C34.3638 63.4941 34.3646 63.4941 34.3655 63.4941C34.3663 63.4941 34.3671 63.4941 34.3679 63.4941C34.3687 63.4941 34.3695 63.4941 34.3703 63.4941C34.3712 63.4941 34.372 63.4941 34.3728 63.4941C34.3736 63.4941 34.3744 63.4941 34.3752 63.4941C34.3761 63.4941 34.3769 63.4941 34.3777 63.4941C34.3785 63.4941 34.3793 63.4941 34.3801 63.4941C34.381 63.4941 34.3818 63.4941 34.3826 63.4941C34.3834 63.4941 34.3842 63.4941 34.385 63.4941C34.3859 63.4941 34.3867 63.4941 34.3875 63.4941C34.3883 63.4941 34.3891 63.4941 34.39 63.4941C34.3908 63.4941 34.3916 63.4941 34.3924 63.4941C34.3932 63.4941 34.3941 63.4941 34.3949 63.4941C34.3957 63.4941 34.3965 63.4941 34.3973 63.4941C34.3982 63.4941 34.399 63.4941 34.3998 63.4941C34.4006 63.4941 34.4014 63.4941 34.4023 63.4941C34.4031 63.4941 34.4039 63.4941 34.4047 63.4941C34.4055 63.4941 34.4064 63.4941 34.4072 63.4941C34.408 63.4941 34.4088 63.4941 34.4097 63.4941C34.4105 63.4941 34.4113 63.4941 34.4121 63.4941C34.413 63.4941 34.4138 63.4941 34.4146 63.4941C34.4154 63.4941 34.4162 63.4941 34.4171 63.4941C34.4179 63.4941 34.4187 63.4941 34.4195 63.4941C34.4204 63.4941 34.4212 63.4941 34.422 63.4941C34.4228 63.4941 34.4237 63.4941 34.4245 63.4941C34.4253 63.4941 34.4261 63.4941 34.427 63.4941C34.4278 63.4941 34.4286 63.4941 34.4295 63.4941C34.4303 63.4941 34.4311 63.4941 34.4319 63.4941C34.4328 63.4941 34.4336 63.4941 34.4344 63.4941C34.4352 63.4941 34.4361 63.4941 34.4369 63.4941C34.4377 63.4941 34.4386 63.4941 34.4394 63.4941C34.4402 63.4941 34.441 63.4941 34.4419 63.4941C34.4427 63.4941 34.4435 63.4941 34.4444 63.4941C34.4452 63.4941 34.446 63.4941 34.4468 63.4941C34.4477 63.4941 34.4485 63.4941 34.4493 63.4941C34.4502 63.4941 34.451 63.4941 34.4518 63.4941C34.4526 63.4941 34.4535 63.4941 34.4543 63.4941C34.4551 63.4941 34.456 63.4941 34.4568 63.4941C34.4576 63.4941 34.4585 63.4941 34.4593 63.4941C34.4601 63.4941 34.461 63.4941 34.4618 63.4941C34.4626 63.4941 34.4635 63.4941 34.4643 63.4941C34.4651 63.4941 34.466 63.4941 34.4668 63.4941C34.4676 63.4941 34.4685 63.4941 34.4693 63.4941C34.4701 63.4941 34.4709 63.4941 34.4718 63.4941C34.4726 63.4941 34.4735 63.4941 34.4743 63.4941C34.4751 63.4941 34.476 63.4941 34.4768 63.4941C34.4776 63.4941 34.4785 63.4941 34.4793 63.4941C34.4801 63.4941 34.481 63.4941 34.4818 63.4941C34.4826 63.4941 34.4835 63.4941 34.4843 63.4941C34.4851 63.4941 34.486 63.4941 34.4868 63.4941C34.4876 63.4941 34.4885 63.4941 34.4893 63.4941C34.4902 63.4941 34.491 63.4941 34.4918 63.4941C34.4927 63.4941 34.4935 63.4941 34.4943 63.4941C34.4952 63.4941 34.496 63.4941 34.4968 63.4941C34.4977 63.4941 34.4985 63.4941 34.4994 63.4941C34.5002 63.4941 34.501 63.4941 34.5019 63.4941C34.5027 63.4941 34.5036 63.4941 34.5044 63.4941C34.5052 63.4941 34.5061 63.4941 34.5069 63.4941C34.5077 63.4941 34.5086 63.4941 34.5094 63.4941C34.5103 63.4941 34.5111 63.4941 34.5119 63.4941C34.5128 63.4941 34.5136 63.4941 34.5145 63.4941C34.5153 63.4941 34.5161 63.4941 34.517 63.4941C34.5178 63.4941 34.5187 63.4941 34.5195 63.4941C34.5203 63.4941 34.5212 63.4941 34.522 63.4941C34.5229 63.4941 34.5237 63.4941 34.5245 63.4941C34.5254 63.4941 34.5262 63.4941 34.5271 63.4941C34.5279 63.4941 34.5288 63.4941 34.5296 63.4941C34.5304 63.4941 34.5313 63.4941 34.5321 63.4941C34.533 63.4941 34.5338 63.4941 34.5347 63.4941C34.5355 63.4941 34.5363 63.4941 34.5372 63.4941C34.538 63.4941 34.5389 63.4941 34.5397 63.4941C34.5406 63.4941 34.5414 63.4941 34.5422 63.4941C34.5431 63.4941 34.5439 63.4941 34.5448 63.4941C34.5456 63.4941 34.5465 63.4941 34.5473 63.4941C34.5482 63.4941 34.549 63.4941 34.5498 63.4941C34.5507 63.4941 34.5515 63.4941 34.5524 63.4941C34.5532 63.4941 34.5541 63.4941 34.5549 63.4941C34.5558 63.4941 34.5566 63.4941 34.5575 63.4941C34.5583 63.4941 34.5591 63.4941 34.56 63.4941C34.5608 63.4941 34.5617 63.4941 34.5625 63.4941C34.5634 63.4941 34.5642 63.4941 34.5651 63.4941C34.5659 63.4941 34.5668 63.4941 34.5676 63.4941C34.5685 63.4941 34.5693 63.4941 34.5702 63.4941C34.571 63.4941 34.5718 63.4941 34.5727 63.4941C34.5735 63.4941 34.5744 63.4941 34.5752 63.4941C34.5761 63.4941 34.5769 63.4941 34.5778 63.4941C34.5786 63.4941 34.5795 63.4941 34.5803 63.4941C34.5812 63.4941 34.582 63.4941 34.5829 63.4941C34.5837 63.4941 34.5846 63.4941 34.5854 63.4941C34.5863 63.4941 34.5871 63.4941 34.588 63.4941C34.5888 63.4941 34.5897 63.4941 34.5905 63.4941C34.5914 63.4941 34.5922 63.4941 34.5931 63.4941C34.5939 63.4941 34.5948 63.4941 34.5956 63.4941C34.5965 63.4941 34.5973 63.4941 34.5982 63.4941C34.599 63.4941 34.5999 63.4941 34.6007 63.4941C34.6016 63.4941 34.6024 63.4941 34.6033 63.4941C34.6041 63.4941 34.605 63.4941 34.6058 63.4941C34.6067 63.4941 34.6075 63.4941 34.6084 63.4941C34.6092 63.4941 34.6101 63.4941 34.6109 63.4941C34.6118 63.4941 34.6127 63.4941 34.6135 63.4941C34.6144 63.4941 34.6152 63.4941 34.6161 63.4941C34.6169 63.4941 34.6178 63.4941 34.6186 63.4941C34.6195 63.4941 34.6203 63.4941 34.6212 63.4941C34.622 63.4941 34.6229 63.4941 34.6237 63.4941C34.6246 63.4941 34.6254 63.4941 34.6263 63.4941C34.6272 63.4941 34.628 63.4941 34.6289 63.4941C34.6297 63.4941 34.6306 63.4941 34.6314 63.4941C34.6323 63.4941 34.6331 63.4941 34.634 63.4941C34.6348 63.4941 34.6357 63.4941 34.6366 63.4941C34.6374 63.4941 34.6383 63.4941 34.6391 63.4941C34.64 63.4941 34.6408 63.4941 34.6417 63.4941C34.6425 63.4941 34.6434 63.4941 34.6443 63.4941C34.6451 63.4941 34.646 63.4941 34.6468 63.4941C34.6477 63.4941 34.6485 63.4941 34.6494 63.4941C34.6502 63.4941 34.6511 63.4941 34.652 63.4941C34.6528 63.4941 34.6537 63.4941 34.6545 63.4941C34.6554 63.4941 34.6562 63.4941 34.6571 63.4941C34.658 63.4941 34.6588 63.4941 34.6597 63.4941C34.6605 63.4941 34.6614 63.4941 34.6622 63.4941C34.6631 63.4941 34.664 63.4941 34.6648 63.4941C34.6657 63.4941 34.6665 63.4941 34.6674 63.4941C34.6682 63.4941 34.6691 63.4941 34.67 63.4941C34.6708 63.4941 34.6717 63.4941 34.6725 63.4941C34.6734 63.4941 34.6742 63.4941 34.6751 63.4941C34.676 63.4941 34.6768 63.4941 34.6777 63.4941C34.6785 63.4941 34.6794 63.4941 34.6803 63.4941C34.6811 63.4941 34.682 63.4941 34.6828 63.4941C34.6837 63.4941 34.6846 63.4941 34.6854 63.4941C34.6863 63.4941 34.6871 63.4941 34.688 63.4941C34.6888 63.4941 34.6897 63.4941 34.6906 63.4941C34.6914 63.4941 34.6923 63.4941 34.6931 63.4941C34.694 63.4941 34.6949 63.4941 34.6957 63.4941C34.6966 63.4941 34.6974 63.4941 34.6983 63.4941C34.6992 63.4941 34.7 63.4941 34.7009 63.4941C34.7018 63.4941 34.7026 63.4941 34.7035 63.4941C34.7043 63.4941 34.7052 63.4941 34.7061 63.4941C34.7069 63.4941 34.7078 63.4941 34.7086 63.4941C34.7095 63.4941 34.7104 63.4941 34.7112 63.4941C34.7121 63.4941 34.7129 63.4941 34.7138 63.4941C34.7147 63.4941 34.7155 63.4941 34.7164 63.4941C34.7173 63.4941 34.7181 63.4941 34.719 63.4941C34.7198 63.4941 34.7207 63.4941 34.7216 63.4941C34.7224 63.4941 34.7233 63.4941 34.7242 63.4941C34.725 63.4941 34.7259 63.4941 34.7267 63.4941C34.7276 63.4941 34.7285 63.4941 34.7293 63.4941C34.7302 63.4941 34.7311 63.4941 34.7319 63.4941C34.7328 63.4941 34.7336 63.4941 34.7345 63.4941C34.7354 63.4941 34.7362 63.4941 34.7371 63.4941C34.738 63.4941 34.7388 63.4941 34.7397 63.4941C34.7405 63.4941 34.7414 63.4941 34.7423 63.4941C34.7431 63.4941 34.744 63.4941 34.7449 63.4941C34.7457 63.4941 34.7466 63.4941 34.7475 63.4941C34.7483 63.4941 34.7492 63.4941 34.75 63.4941C34.7509 63.4941 34.7518 63.4941 34.7526 63.4941C34.7535 63.4941 34.7544 63.4941 34.7552 63.4941C34.7561 63.4941 34.757 63.4941 34.7578 63.4941C34.7587 63.4941 34.7596 63.4941 34.7604 63.4941C34.7613 63.4941 34.7621 63.4941 34.763 63.4941C34.7639 63.4941 34.7647 63.4941 34.7656 63.4941C34.7665 63.4941 34.7673 63.4941 34.7682 63.4941C34.7691 63.4941 34.7699 63.4941 34.7708 63.4941C34.7717 63.4941 34.7725 63.4941 34.7734 63.4941C34.7743 63.4941 34.7751 63.4941 34.776 63.4941C34.7769 63.4941 34.7777 63.4941 34.7786 63.4941C34.7795 63.4941 34.7803 63.4941 34.7812 63.4941C34.782 63.4941 34.7829 63.4941 34.7838 63.4941C34.7846 63.4941 34.7855 63.4941 34.7864 63.4941C34.7872 63.4941 34.7881 63.4941 34.789 63.4941C34.7898 63.4941 34.7907 63.4941 34.7916 63.4941C34.7924 63.4941 34.7933 63.4941 34.7942 63.4941C34.795 63.4941 34.7959 63.4941 34.7968 63.4941C34.7976 63.4941 34.7985 63.4941 34.7994 63.4941C34.8002 63.4941 34.8011 63.4941 34.802 63.4941C34.8028 63.4941 34.8037 63.4941 34.8046 63.4941C34.8054 63.4941 34.8063 63.4941 34.8072 63.4941C34.808 63.4941 34.8089 63.4941 34.8098 63.4941C34.8106 63.4941 34.8115 63.4941 34.8124 63.4941C34.8132 63.4941 34.8141 63.4941 34.815 63.4941C34.8158 63.4941 34.8167 63.4941 34.8176 63.4941C34.8184 63.4941 34.8193 63.4941 34.8202 63.4941C34.8211 63.4941 34.8219 63.4941 34.8228 63.4941C34.8237 63.4941 34.8245 63.4941 34.8254 63.4941C34.8263 63.4941 34.8271 63.4941 34.828 63.4941C34.8289 63.4941 34.8297 63.4941 34.8306 63.4941C34.8315 63.4941 34.8323 63.4941 34.8332 63.4941C34.8341 63.4941 34.8349 63.4941 34.8358 63.4941C34.8367 63.4941 34.8375 63.4941 34.8384 63.4941C34.8393 63.4941 34.8401 63.4941 34.841 63.4941C34.8419 63.4941 34.8428 63.4941 34.8436 63.4941C34.8445 63.4941 34.8454 63.4941 34.8462 63.4941C34.8471 63.4941 34.848 63.4941 34.8488 63.4941C34.8497 63.4941 34.8506 63.4941 34.8514 63.4941C34.8523 63.4941 34.8532 63.4941 34.854 63.4941C34.8549 63.4941 34.8558 63.4941 34.8566 63.4941C34.8575 63.4941 34.8584 63.4941 34.8593 63.4941C34.8601 63.4941 34.861 63.4941 34.8619 63.4941C34.8627 63.4941 34.8636 63.4941 34.8645 63.4941C34.8653 63.4941 34.8662 63.4941 34.8671 63.4941C34.8679 63.4941 34.8688 63.4941 34.8697 63.4941C34.8705 63.4941 34.8714 63.4941 34.8723 63.4941C34.8732 63.4941 34.874 63.4941 34.8749 63.4941C34.8758 63.4941 34.8766 63.4941 34.8775 63.4941C34.8784 63.4941 34.8792 63.4941 34.8801 63.4941C34.881 63.4941 34.8818 63.4941 34.8827 63.4941C34.8836 63.4941 34.8845 63.4941 34.8853 63.4941C34.8862 63.4941 34.8871 63.4941 34.8879 63.4941C34.8888 63.4941 34.8897 63.4941 34.8905 63.4941C34.8914 63.4941 34.8923 63.4941 34.8931 63.4941C34.894 63.4941 34.8949 63.4941 34.8958 63.4941C34.8966 63.4941 34.8975 63.4941 34.8984 63.4941C34.8992 63.4941 34.9001 63.4941 34.901 63.4941C34.9018 63.4941 34.9027 63.4941 34.9036 63.4941C34.9045 63.4941 34.9053 63.4941 34.9062 63.4941C34.9071 63.4941 34.9079 63.4941 34.9088 63.4941C34.9097 63.4941 34.9105 63.4941 34.9114 63.4941C34.9123 63.4941 34.9131 63.4941 34.914 63.4941C34.9149 63.4941 34.9158 63.4941 34.9166 63.4941C34.9175 63.4941 34.9184 63.4941 34.9192 63.4941C34.9201 63.4941 34.921 63.4941 34.9218 63.4941C34.9227 63.4941 34.9236 63.4941 34.9245 63.4941C34.9253 63.4941 34.9262 63.4941 34.9271 63.4941C34.9279 63.4941 34.9288 63.4941 34.9297 63.4941C34.9305 63.4941 34.9314 63.4941 34.9323 63.4941C34.9332 63.4941 34.934 63.4941 34.9349 63.4941C34.9358 63.4941 34.9366 63.4941 34.9375 63.4941V61.4941C34.9366 61.4941 34.9358 61.4941 34.9349 61.4941C34.934 61.4941 34.9332 61.4941 34.9323 61.4941C34.9314 61.4941 34.9305 61.4941 34.9297 61.4941C34.9288 61.4941 34.9279 61.4941 34.9271 61.4941C34.9262 61.4941 34.9253 61.4941 34.9245 61.4941C34.9236 61.4941 34.9227 61.4941 34.9218 61.4941C34.921 61.4941 34.9201 61.4941 34.9192 61.4941C34.9184 61.4941 34.9175 61.4941 34.9166 61.4941C34.9158 61.4941 34.9149 61.4941 34.914 61.4941C34.9131 61.4941 34.9123 61.4941 34.9114 61.4941C34.9105 61.4941 34.9097 61.4941 34.9088 61.4941C34.9079 61.4941 34.9071 61.4941 34.9062 61.4941C34.9053 61.4941 34.9045 61.4941 34.9036 61.4941C34.9027 61.4941 34.9018 61.4941 34.901 61.4941C34.9001 61.4941 34.8992 61.4941 34.8984 61.4941C34.8975 61.4941 34.8966 61.4941 34.8958 61.4941C34.8949 61.4941 34.894 61.4941 34.8931 61.4941C34.8923 61.4941 34.8914 61.4941 34.8905 61.4941C34.8897 61.4941 34.8888 61.4941 34.8879 61.4941C34.8871 61.4941 34.8862 61.4941 34.8853 61.4941C34.8845 61.4941 34.8836 61.4941 34.8827 61.4941C34.8818 61.4941 34.881 61.4941 34.8801 61.4941C34.8792 61.4941 34.8784 61.4941 34.8775 61.4941C34.8766 61.4941 34.8758 61.4941 34.8749 61.4941C34.874 61.4941 34.8732 61.4941 34.8723 61.4941C34.8714 61.4941 34.8705 61.4941 34.8697 61.4941C34.8688 61.4941 34.8679 61.4941 34.8671 61.4941C34.8662 61.4941 34.8653 61.4941 34.8645 61.4941C34.8636 61.4941 34.8627 61.4941 34.8619 61.4941C34.861 61.4941 34.8601 61.4941 34.8593 61.4941C34.8584 61.4941 34.8575 61.4941 34.8566 61.4941C34.8558 61.4941 34.8549 61.4941 34.854 61.4941C34.8532 61.4941 34.8523 61.4941 34.8514 61.4941C34.8506 61.4941 34.8497 61.4941 34.8488 61.4941C34.848 61.4941 34.8471 61.4941 34.8462 61.4941C34.8454 61.4941 34.8445 61.4941 34.8436 61.4941C34.8428 61.4941 34.8419 61.4941 34.841 61.4941C34.8401 61.4941 34.8393 61.4941 34.8384 61.4941C34.8375 61.4941 34.8367 61.4941 34.8358 61.4941C34.8349 61.4941 34.8341 61.4941 34.8332 61.4941C34.8323 61.4941 34.8315 61.4941 34.8306 61.4941C34.8297 61.4941 34.8289 61.4941 34.828 61.4941C34.8271 61.4941 34.8263 61.4941 34.8254 61.4941C34.8245 61.4941 34.8237 61.4941 34.8228 61.4941C34.8219 61.4941 34.8211 61.4941 34.8202 61.4941C34.8193 61.4941 34.8184 61.4941 34.8176 61.4941C34.8167 61.4941 34.8158 61.4941 34.815 61.4941C34.8141 61.4941 34.8132 61.4941 34.8124 61.4941C34.8115 61.4941 34.8106 61.4941 34.8098 61.4941C34.8089 61.4941 34.808 61.4941 34.8072 61.4941C34.8063 61.4941 34.8054 61.4941 34.8046 61.4941C34.8037 61.4941 34.8028 61.4941 34.802 61.4941C34.8011 61.4941 34.8002 61.4941 34.7994 61.4941C34.7985 61.4941 34.7976 61.4941 34.7968 61.4941C34.7959 61.4941 34.795 61.4941 34.7942 61.4941C34.7933 61.4941 34.7924 61.4941 34.7916 61.4941C34.7907 61.4941 34.7898 61.4941 34.789 61.4941C34.7881 61.4941 34.7872 61.4941 34.7864 61.4941C34.7855 61.4941 34.7846 61.4941 34.7838 61.4941C34.7829 61.4941 34.782 61.4941 34.7812 61.4941C34.7803 61.4941 34.7795 61.4941 34.7786 61.4941C34.7777 61.4941 34.7769 61.4941 34.776 61.4941C34.7751 61.4941 34.7743 61.4941 34.7734 61.4941C34.7725 61.4941 34.7717 61.4941 34.7708 61.4941C34.7699 61.4941 34.7691 61.4941 34.7682 61.4941C34.7673 61.4941 34.7665 61.4941 34.7656 61.4941C34.7647 61.4941 34.7639 61.4941 34.763 61.4941C34.7621 61.4941 34.7613 61.4941 34.7604 61.4941C34.7596 61.4941 34.7587 61.4941 34.7578 61.4941C34.757 61.4941 34.7561 61.4941 34.7552 61.4941C34.7544 61.4941 34.7535 61.4941 34.7526 61.4941C34.7518 61.4941 34.7509 61.4941 34.75 61.4941C34.7492 61.4941 34.7483 61.4941 34.7475 61.4941C34.7466 61.4941 34.7457 61.4941 34.7449 61.4941C34.744 61.4941 34.7431 61.4941 34.7423 61.4941C34.7414 61.4941 34.7405 61.4941 34.7397 61.4941C34.7388 61.4941 34.738 61.4941 34.7371 61.4941C34.7362 61.4941 34.7354 61.4941 34.7345 61.4941C34.7336 61.4941 34.7328 61.4941 34.7319 61.4941C34.7311 61.4941 34.7302 61.4941 34.7293 61.4941C34.7285 61.4941 34.7276 61.4941 34.7267 61.4941C34.7259 61.4941 34.725 61.4941 34.7242 61.4941C34.7233 61.4941 34.7224 61.4941 34.7216 61.4941C34.7207 61.4941 34.7198 61.4941 34.719 61.4941C34.7181 61.4941 34.7173 61.4941 34.7164 61.4941C34.7155 61.4941 34.7147 61.4941 34.7138 61.4941C34.7129 61.4941 34.7121 61.4941 34.7112 61.4941C34.7104 61.4941 34.7095 61.4941 34.7086 61.4941C34.7078 61.4941 34.7069 61.4941 34.7061 61.4941C34.7052 61.4941 34.7043 61.4941 34.7035 61.4941C34.7026 61.4941 34.7018 61.4941 34.7009 61.4941C34.7 61.4941 34.6992 61.4941 34.6983 61.4941C34.6974 61.4941 34.6966 61.4941 34.6957 61.4941C34.6949 61.4941 34.694 61.4941 34.6931 61.4941C34.6923 61.4941 34.6914 61.4941 34.6906 61.4941C34.6897 61.4941 34.6888 61.4941 34.688 61.4941C34.6871 61.4941 34.6863 61.4941 34.6854 61.4941C34.6846 61.4941 34.6837 61.4941 34.6828 61.4941C34.682 61.4941 34.6811 61.4941 34.6803 61.4941C34.6794 61.4941 34.6785 61.4941 34.6777 61.4941C34.6768 61.4941 34.676 61.4941 34.6751 61.4941C34.6742 61.4941 34.6734 61.4941 34.6725 61.4941C34.6717 61.4941 34.6708 61.4941 34.67 61.4941C34.6691 61.4941 34.6682 61.4941 34.6674 61.4941C34.6665 61.4941 34.6657 61.4941 34.6648 61.4941C34.664 61.4941 34.6631 61.4941 34.6622 61.4941C34.6614 61.4941 34.6605 61.4941 34.6597 61.4941C34.6588 61.4941 34.658 61.4941 34.6571 61.4941C34.6562 61.4941 34.6554 61.4941 34.6545 61.4941C34.6537 61.4941 34.6528 61.4941 34.652 61.4941C34.6511 61.4941 34.6502 61.4941 34.6494 61.4941C34.6485 61.4941 34.6477 61.4941 34.6468 61.4941C34.646 61.4941 34.6451 61.4941 34.6443 61.4941C34.6434 61.4941 34.6425 61.4941 34.6417 61.4941C34.6408 61.4941 34.64 61.4941 34.6391 61.4941C34.6383 61.4941 34.6374 61.4941 34.6366 61.4941C34.6357 61.4941 34.6348 61.4941 34.634 61.4941C34.6331 61.4941 34.6323 61.4941 34.6314 61.4941C34.6306 61.4941 34.6297 61.4941 34.6289 61.4941C34.628 61.4941 34.6272 61.4941 34.6263 61.4941C34.6254 61.4941 34.6246 61.4941 34.6237 61.4941C34.6229 61.4941 34.622 61.4941 34.6212 61.4941C34.6203 61.4941 34.6195 61.4941 34.6186 61.4941C34.6178 61.4941 34.6169 61.4941 34.6161 61.4941C34.6152 61.4941 34.6144 61.4941 34.6135 61.4941C34.6127 61.4941 34.6118 61.4941 34.6109 61.4941C34.6101 61.4941 34.6092 61.4941 34.6084 61.4941C34.6075 61.4941 34.6067 61.4941 34.6058 61.4941C34.605 61.4941 34.6041 61.4941 34.6033 61.4941C34.6024 61.4941 34.6016 61.4941 34.6007 61.4941C34.5999 61.4941 34.599 61.4941 34.5982 61.4941C34.5973 61.4941 34.5965 61.4941 34.5956 61.4941C34.5948 61.4941 34.5939 61.4941 34.5931 61.4941C34.5922 61.4941 34.5914 61.4941 34.5905 61.4941C34.5897 61.4941 34.5888 61.4941 34.588 61.4941C34.5871 61.4941 34.5863 61.4941 34.5854 61.4941C34.5846 61.4941 34.5837 61.4941 34.5829 61.4941C34.582 61.4941 34.5812 61.4941 34.5803 61.4941C34.5795 61.4941 34.5786 61.4941 34.5778 61.4941C34.5769 61.4941 34.5761 61.4941 34.5752 61.4941C34.5744 61.4941 34.5735 61.4941 34.5727 61.4941C34.5718 61.4941 34.571 61.4941 34.5702 61.4941C34.5693 61.4941 34.5685 61.4941 34.5676 61.4941C34.5668 61.4941 34.5659 61.4941 34.5651 61.4941C34.5642 61.4941 34.5634 61.4941 34.5625 61.4941C34.5617 61.4941 34.5608 61.4941 34.56 61.4941C34.5591 61.4941 34.5583 61.4941 34.5575 61.4941C34.5566 61.4941 34.5558 61.4941 34.5549 61.4941C34.5541 61.4941 34.5532 61.4941 34.5524 61.4941C34.5515 61.4941 34.5507 61.4941 34.5498 61.4941C34.549 61.4941 34.5482 61.4941 34.5473 61.4941C34.5465 61.4941 34.5456 61.4941 34.5448 61.4941C34.5439 61.4941 34.5431 61.4941 34.5422 61.4941C34.5414 61.4941 34.5406 61.4941 34.5397 61.4941C34.5389 61.4941 34.538 61.4941 34.5372 61.4941C34.5363 61.4941 34.5355 61.4941 34.5347 61.4941C34.5338 61.4941 34.533 61.4941 34.5321 61.4941C34.5313 61.4941 34.5304 61.4941 34.5296 61.4941C34.5288 61.4941 34.5279 61.4941 34.5271 61.4941C34.5262 61.4941 34.5254 61.4941 34.5245 61.4941C34.5237 61.4941 34.5229 61.4941 34.522 61.4941C34.5212 61.4941 34.5203 61.4941 34.5195 61.4941C34.5187 61.4941 34.5178 61.4941 34.517 61.4941C34.5161 61.4941 34.5153 61.4941 34.5145 61.4941C34.5136 61.4941 34.5128 61.4941 34.5119 61.4941C34.5111 61.4941 34.5103 61.4941 34.5094 61.4941C34.5086 61.4941 34.5077 61.4941 34.5069 61.4941C34.5061 61.4941 34.5052 61.4941 34.5044 61.4941C34.5036 61.4941 34.5027 61.4941 34.5019 61.4941C34.501 61.4941 34.5002 61.4941 34.4994 61.4941C34.4985 61.4941 34.4977 61.4941 34.4968 61.4941C34.496 61.4941 34.4952 61.4941 34.4943 61.4941C34.4935 61.4941 34.4927 61.4941 34.4918 61.4941C34.491 61.4941 34.4902 61.4941 34.4893 61.4941C34.4885 61.4941 34.4876 61.4941 34.4868 61.4941C34.486 61.4941 34.4851 61.4941 34.4843 61.4941C34.4835 61.4941 34.4826 61.4941 34.4818 61.4941C34.481 61.4941 34.4801 61.4941 34.4793 61.4941C34.4785 61.4941 34.4776 61.4941 34.4768 61.4941C34.476 61.4941 34.4751 61.4941 34.4743 61.4941C34.4735 61.4941 34.4726 61.4941 34.4718 61.4941C34.4709 61.4941 34.4701 61.4941 34.4693 61.4941C34.4685 61.4941 34.4676 61.4941 34.4668 61.4941C34.466 61.4941 34.4651 61.4941 34.4643 61.4941C34.4635 61.4941 34.4626 61.4941 34.4618 61.4941C34.461 61.4941 34.4601 61.4941 34.4593 61.4941C34.4585 61.4941 34.4576 61.4941 34.4568 61.4941C34.456 61.4941 34.4551 61.4941 34.4543 61.4941C34.4535 61.4941 34.4526 61.4941 34.4518 61.4941C34.451 61.4941 34.4502 61.4941 34.4493 61.4941C34.4485 61.4941 34.4477 61.4941 34.4468 61.4941C34.446 61.4941 34.4452 61.4941 34.4444 61.4941C34.4435 61.4941 34.4427 61.4941 34.4419 61.4941C34.441 61.4941 34.4402 61.4941 34.4394 61.4941C34.4386 61.4941 34.4377 61.4941 34.4369 61.4941C34.4361 61.4941 34.4352 61.4941 34.4344 61.4941C34.4336 61.4941 34.4328 61.4941 34.4319 61.4941C34.4311 61.4941 34.4303 61.4941 34.4295 61.4941C34.4286 61.4941 34.4278 61.4941 34.427 61.4941C34.4261 61.4941 34.4253 61.4941 34.4245 61.4941C34.4237 61.4941 34.4228 61.4941 34.422 61.4941C34.4212 61.4941 34.4204 61.4941 34.4195 61.4941C34.4187 61.4941 34.4179 61.4941 34.4171 61.4941C34.4162 61.4941 34.4154 61.4941 34.4146 61.4941C34.4138 61.4941 34.413 61.4941 34.4121 61.4941C34.4113 61.4941 34.4105 61.4941 34.4097 61.4941C34.4088 61.4941 34.408 61.4941 34.4072 61.4941C34.4064 61.4941 34.4055 61.4941 34.4047 61.4941C34.4039 61.4941 34.4031 61.4941 34.4023 61.4941C34.4014 61.4941 34.4006 61.4941 34.3998 61.4941C34.399 61.4941 34.3982 61.4941 34.3973 61.4941C34.3965 61.4941 34.3957 61.4941 34.3949 61.4941C34.3941 61.4941 34.3932 61.4941 34.3924 61.4941C34.3916 61.4941 34.3908 61.4941 34.39 61.4941C34.3891 61.4941 34.3883 61.4941 34.3875 61.4941C34.3867 61.4941 34.3859 61.4941 34.385 61.4941C34.3842 61.4941 34.3834 61.4941 34.3826 61.4941C34.3818 61.4941 34.381 61.4941 34.3801 61.4941C34.3793 61.4941 34.3785 61.4941 34.3777 61.4941C34.3769 61.4941 34.3761 61.4941 34.3752 61.4941C34.3744 61.4941 34.3736 61.4941 34.3728 61.4941C34.372 61.4941 34.3712 61.4941 34.3703 61.4941C34.3695 61.4941 34.3687 61.4941 34.3679 61.4941C34.3671 61.4941 34.3663 61.4941 34.3655 61.4941C34.3646 61.4941 34.3638 61.4941 34.363 61.4941C34.3622 61.4941 34.3614 61.4941 34.3606 61.4941C34.3598 61.4941 34.3589 61.4941 34.3581 61.4941C34.3573 61.4941 34.3565 61.4941 34.3557 61.4941C34.3549 61.4941 34.3541 61.4941 34.3533 61.4941C34.3525 61.4941 34.3516 61.4941 34.3508 61.4941C34.35 61.4941 34.3492 61.4941 34.3484 61.4941C34.3476 61.4941 34.3468 61.4941 34.346 61.4941C34.3452 61.4941 34.3443 61.4941 34.3435 61.4941C34.3427 61.4941 34.3419 61.4941 34.3411 61.4941C34.3403 61.4941 34.3395 61.4941 34.3387 61.4941C34.3379 61.4941 34.3371 61.4941 34.3363 61.4941C34.3354 61.4941 34.3346 61.4941 34.3338 61.4941C34.333 61.4941 34.3322 61.4941 34.3314 61.4941C34.3306 61.4941 34.3298 61.4941 34.329 61.4941C34.3282 61.4941 34.3274 61.4941 34.3266 61.4941C34.3258 61.4941 34.325 61.4941 34.3242 61.4941C34.3233 61.4941 34.3225 61.4941 34.3217 61.4941C34.3209 61.4941 34.3201 61.4941 34.3193 61.4941C34.3185 61.4941 34.3177 61.4941 34.3169 61.4941C34.3161 61.4941 34.3153 61.4941 34.3145 61.4941C34.3137 61.4941 34.3129 61.4941 34.3121 61.4941C34.3113 61.4941 34.3105 61.4941 34.3097 61.4941C34.3089 61.4941 34.3081 61.4941 34.3073 61.4941C34.3065 61.4941 34.3057 61.4941 34.3049 61.4941C34.3041 61.4941 34.3033 61.4941 34.3025 61.4941C34.3017 61.4941 34.3009 61.4941 34.3001 61.4941C34.2993 61.4941 34.2985 61.4941 34.2977 61.4941C34.2969 61.4941 34.2961 61.4941 34.2953 61.4941C34.2945 61.4941 34.2937 61.4941 34.2929 61.4941C34.2921 61.4941 34.2913 61.4941 34.2905 61.4941C34.2897 61.4941 34.2889 61.4941 34.2881 61.4941C34.2873 61.4941 34.2865 61.4941 34.2857 61.4941C34.2849 61.4941 34.2841 61.4941 34.2833 61.4941C34.2825 61.4941 34.2817 61.4941 34.2809 61.4941C34.2801 61.4941 34.2793 61.4941 34.2785 61.4941C34.2777 61.4941 34.2769 61.4941 34.2761 61.4941C34.2754 61.4941 34.2746 61.4941 34.2738 61.4941C34.273 61.4941 34.2722 61.4941 34.2714 61.4941C34.2706 61.4941 34.2698 61.4941 34.269 61.4941C34.2682 61.4941 34.2674 61.4941 34.2666 61.4941C34.2658 61.4941 34.265 61.4941 34.2643 61.4941C34.2635 61.4941 34.2627 61.4941 34.2619 61.4941C34.2611 61.4941 34.2603 61.4941 34.2595 61.4941C34.2587 61.4941 34.2579 61.4941 34.2571 61.4941C34.2563 61.4941 34.2556 61.4941 34.2548 61.4941C34.254 61.4941 34.2532 61.4941 34.2524 61.4941C34.2516 61.4941 34.2508 61.4941 34.25 61.4941C34.2493 61.4941 34.2485 61.4941 34.2477 61.4941C34.2469 61.4941 34.2461 61.4941 34.2453 61.4941C34.2445 61.4941 34.2437 61.4941 34.243 61.4941C34.2422 61.4941 34.2414 61.4941 34.2406 61.4941C34.2398 61.4941 34.239 61.4941 34.2382 61.4941C34.2375 61.4941 34.2367 61.4941 34.2359 61.4941C34.2351 61.4941 34.2343 61.4941 34.2335 61.4941C34.2328 61.4941 34.232 61.4941 34.2312 61.4941C34.2304 61.4941 34.2296 61.4941 34.2288 61.4941C34.2281 61.4941 34.2273 61.4941 34.2265 61.4941C34.2257 61.4941 34.2249 61.4941 34.2241 61.4941C34.2234 61.4941 34.2226 61.4941 34.2218 61.4941C34.221 61.4941 34.2202 61.4941 34.2195 61.4941C34.2187 61.4941 34.2179 61.4941 34.2171 61.4941C34.2163 61.4941 34.2156 61.4941 34.2148 61.4941C34.214 61.4941 34.2132 61.4941 34.2125 61.4941C34.2117 61.4941 34.2109 61.4941 34.2101 61.4941C34.2093 61.4941 34.2086 61.4941 34.2078 61.4941C34.207 61.4941 34.2062 61.4941 34.2055 61.4941C34.2047 61.4941 34.2039 61.4941 34.2031 61.4941C34.2024 61.4941 34.2016 61.4941 34.2008 61.4941C34.2 61.4941 34.1993 61.4941 34.1985 61.4941C34.1977 61.4941 34.1969 61.4941 34.1962 61.4941C34.1954 61.4941 34.1946 61.4941 34.1938 61.4941C34.1931 61.4941 34.1923 61.4941 34.1915 61.4941C34.1908 61.4941 34.19 61.4941 34.1892 61.4941C34.1884 61.4941 34.1877 61.4941 34.1869 61.4941C34.1861 61.4941 34.1854 61.4941 34.1846 61.4941C34.1838 61.4941 34.183 61.4941 34.1823 61.4941C34.1815 61.4941 34.1807 61.4941 34.18 61.4941C34.1792 61.4941 34.1784 61.4941 34.1777 61.4941C34.1769 61.4941 34.1761 61.4941 34.1754 61.4941C34.1746 61.4941 34.1738 61.4941 34.1731 61.4941C34.1723 61.4941 34.1715 61.4941 34.1708 61.4941C34.17 61.4941 34.1692 61.4941 34.1685 61.4941C34.1677 61.4941 34.1669 61.4941 34.1662 61.4941C34.1654 61.4941 34.1646 61.4941 34.1639 61.4941C34.1631 61.4941 34.1623 61.4941 34.1616 61.4941C34.1608 61.4941 34.1601 61.4941 34.1593 61.4941C34.1585 61.4941 34.1578 61.4941 34.157 61.4941C34.1562 61.4941 34.1555 61.4941 34.1547 61.4941C34.154 61.4941 34.1532 61.4941 34.1524 61.4941C34.1517 61.4941 34.1509 61.4941 34.1502 61.4941C34.1494 61.4941 34.1486 61.4941 34.1479 61.4941C34.1471 61.4941 34.1464 61.4941 34.1456 61.4941C34.1448 61.4941 34.1441 61.4941 34.1433 61.4941C34.1426 61.4941 34.1418 61.4941 34.141 61.4941C34.1403 61.4941 34.1395 61.4941 34.1388 61.4941C34.138 61.4941 34.1373 61.4941 34.1365 61.4941C34.1358 61.4941 34.135 61.4941 34.1342 61.4941C34.1335 61.4941 34.1327 61.4941 34.132 61.4941C34.1312 61.4941 34.1305 61.4941 34.1297 61.4941C34.129 61.4941 34.1282 61.4941 34.1275 61.4941C34.1267 61.4941 34.126 61.4941 34.1252 61.4941C34.1244 61.4941 34.1237 61.4941 34.1229 61.4941C34.1222 61.4941 34.1214 61.4941 34.1207 61.4941C34.1199 61.4941 34.1192 61.4941 34.1184 61.4941C34.1177 61.4941 34.1169 61.4941 34.1162 61.4941C34.1154 61.4941 34.1147 61.4941 34.1139 61.4941C34.1132 61.4941 34.1124 61.4941 34.1117 61.4941C34.111 61.4941 34.1102 61.4941 34.1095 61.4941C34.1087 61.4941 34.108 61.4941 34.1072 61.4941C34.1065 61.4941 34.1057 61.4941 34.105 61.4941C34.1042 61.4941 34.1035 61.4941 34.1027 61.4941C34.102 61.4941 34.1013 61.4941 34.1005 61.4941C34.0998 61.4941 34.099 61.4941 34.0983 61.4941C34.0975 61.4941 34.0968 61.4941 34.096 61.4941C34.0953 61.4941 34.0946 61.4941 34.0938 61.4941C34.0931 61.4941 34.0923 61.4941 34.0916 61.4941C34.0909 61.4941 34.0901 61.4941 34.0894 61.4941C34.0886 61.4941 34.0879 61.4941 34.0872 61.4941C34.0864 61.4941 34.0857 61.4941 34.0849 61.4941C34.0842 61.4941 34.0835 61.4941 34.0827 61.4941C34.082 61.4941 34.0812 61.4941 34.0805 61.4941C34.0798 61.4941 34.079 61.4941 34.0783 61.4941C34.0776 61.4941 34.0768 61.4941 34.0761 61.4941C34.0754 61.4941 34.0746 61.4941 34.0739 61.4941C34.0731 61.4941 34.0724 61.4941 34.0717 61.4941C34.0709 61.4941 34.0702 61.4941 34.0695 61.4941C34.0687 61.4941 34.068 61.4941 34.0673 61.4941C34.0665 61.4941 34.0658 61.4941 34.0651 61.4941C34.0643 61.4941 34.0636 61.4941 34.0629 61.4941C34.0622 61.4941 34.0614 61.4941 34.0607 61.4941C34.06 61.4941 34.0592 61.4941 34.0585 61.4941C34.0578 61.4941 34.057 61.4941 34.0563 61.4941C34.0556 61.4941 34.0549 61.4941 34.0541 61.4941C34.0534 61.4941 34.0527 61.4941 34.0519 61.4941C34.0512 61.4941 34.0505 61.4941 34.0498 61.4941C34.049 61.4941 34.0483 61.4941 34.0476 61.4941C34.0469 61.4941 34.0461 61.4941 34.0454 61.4941C34.0447 61.4941 34.044 61.4941 34.0432 61.4941C34.0425 61.4941 34.0418 61.4941 34.0411 61.4941C34.0403 61.4941 34.0396 61.4941 34.0389 61.4941C34.0382 61.4941 34.0375 61.4941 34.0367 61.4941C34.036 61.4941 34.0353 61.4941 34.0346 61.4941C34.0339 61.4941 34.0331 61.4941 34.0324 61.4941C34.0317 61.4941 34.031 61.4941 34.0303 61.4941C34.0295 61.4941 34.0288 61.4941 34.0281 61.4941C34.0274 61.4941 34.0267 61.4941 34.0259 61.4941C34.0252 61.4941 34.0245 61.4941 34.0238 61.4941C34.0231 61.4941 34.0224 61.4941 34.0216 61.4941C34.0209 61.4941 34.0202 61.4941 34.0195 61.4941C34.0188 61.4941 34.0181 61.4941 34.0174 61.4941C34.0166 61.4941 34.0159 61.4941 34.0152 61.4941C34.0145 61.4941 34.0138 61.4941 34.0131 61.4941C34.0124 61.4941 34.0116 61.4941 34.0109 61.4941C34.0102 61.4941 34.0095 61.4941 34.0088 61.4941C34.0081 61.4941 34.0074 61.4941 34.0067 61.4941C34.006 61.4941 34.0052 61.4941 34.0045 61.4941C34.0038 61.4941 34.0031 61.4941 34.0024 61.4941C34.0017 61.4941 34.001 61.4941 34.0003 61.4941C33.9996 61.4941 33.9989 61.4941 33.9982 61.4941C33.9975 61.4941 33.9968 61.4941 33.9961 61.4941C33.9953 61.4941 33.9946 61.4941 33.9939 61.4941C33.9932 61.4941 33.9925 61.4941 33.9918 61.4941C33.9911 61.4941 33.9904 61.4941 33.9897 61.4941C33.989 61.4941 33.9883 61.4941 33.9876 61.4941C33.9869 61.4941 33.9862 61.4941 33.9855 61.4941C33.9848 61.4941 33.9841 61.4941 33.9834 61.4941C33.9827 61.4941 33.982 61.4941 33.9813 61.4941C33.9806 61.4941 33.9799 61.4941 33.9792 61.4941C33.9785 61.4941 33.9778 61.4941 33.9771 61.4941C33.9764 61.4941 33.9757 61.4941 33.975 61.4941C33.9743 61.4941 33.9736 61.4941 33.9729 61.4941C33.9722 61.4941 33.9715 61.4941 33.9708 61.4941C33.9701 61.4941 33.9694 61.4941 33.9687 61.4941C33.968 61.4941 33.9674 61.4941 33.9667 61.4941C33.966 61.4941 33.9653 61.4941 33.9646 61.4941C33.9639 61.4941 33.9632 61.4941 33.9625 61.4941C33.9618 61.4941 33.9611 61.4941 33.9604 61.4941C33.9597 61.4941 33.959 61.4941 33.9584 61.4941C33.9577 61.4941 33.957 61.4941 33.9563 61.4941C33.9556 61.4941 33.9549 61.4941 33.9542 61.4941C33.9535 61.4941 33.9528 61.4941 33.9522 61.4941C33.9515 61.4941 33.9508 61.4941 33.9501 61.4941C33.9494 61.4941 33.9487 61.4941 33.948 61.4941C33.9474 61.4941 33.9467 61.4941 33.946 61.4941C33.9453 61.4941 33.9446 61.4941 33.9439 61.4941C33.9432 61.4941 33.9426 61.4941 33.9419 61.4941C33.9412 61.4941 33.9405 61.4941 33.9398 61.4941C33.9391 61.4941 33.9385 61.4941 33.9378 61.4941C33.9371 61.4941 33.9364 61.4941 33.9357 61.4941C33.9351 61.4941 33.9344 61.4941 33.9337 61.4941C33.933 61.4941 33.9323 61.4941 33.9317 61.4941C33.931 61.4941 33.9303 61.4941 33.9296 61.4941C33.929 61.4941 33.9283 61.4941 33.9276 61.4941C33.9269 61.4941 33.9263 61.4941 33.9256 61.4941C33.9249 61.4941 33.9242 61.4941 33.9236 61.4941C33.9229 61.4941 33.9222 61.4941 33.9215 61.4941C33.9209 61.4941 33.9202 61.4941 33.9195 61.4941C33.9188 61.4941 33.9182 61.4941 33.9175 61.4941C33.9168 61.4941 33.9161 61.4941 33.9155 61.4941C33.9148 61.4941 33.9141 61.4941 33.9135 61.4941C33.9128 61.4941 33.9121 61.4941 33.9115 61.4941C33.9108 61.4941 33.9101 61.4941 33.9095 61.4941C33.9088 61.4941 33.9081 61.4941 33.9074 61.4941C33.9068 61.4941 33.9061 61.4941 33.9054 61.4941C33.9048 61.4941 33.9041 61.4941 33.9035 61.4941C33.9028 61.4941 33.9021 61.4941 33.9015 61.4941C33.9008 61.4941 33.9001 61.4941 33.8995 61.4941C33.8988 61.4941 33.8981 61.4941 33.8975 61.4941C33.8968 61.4941 33.8962 61.4941 33.8955 61.4941C33.8948 61.4941 33.8942 61.4941 33.8935 61.4941C33.8928 61.4941 33.8922 61.4941 33.8915 61.4941C33.8909 61.4941 33.8902 61.4941 33.8896 61.4941C33.8889 61.4941 33.8882 61.4941 33.8876 61.4941C33.8869 61.4941 33.8863 61.4941 33.8856 61.4941C33.8849 61.4941 33.8843 61.4941 33.8836 61.4941C33.883 61.4941 33.8823 61.4941 33.8817 61.4941C33.881 61.4941 33.8804 61.4941 33.8797 61.4941C33.8791 61.4941 33.8784 61.4941 33.8777 61.4941C33.8771 61.4941 33.8764 61.4941 33.8758 61.4941C33.8751 61.4941 33.8745 61.4941 33.8738 61.4941C33.8732 61.4941 33.8725 61.4941 33.8719 61.4941C33.8712 61.4941 33.8706 61.4941 33.8699 61.4941C33.8693 61.4941 33.8686 61.4941 33.868 61.4941C33.8673 61.4941 33.8667 61.4941 33.8661 61.4941C33.8654 61.4941 33.8648 61.4941 33.8641 61.4941C33.8635 61.4941 33.8628 61.4941 33.8622 61.4941C33.8615 61.4941 33.8609 61.4941 33.8602 61.4941C33.8596 61.4941 33.859 61.4941 33.8583 61.4941C33.8577 61.4941 33.857 61.4941 33.8564 61.4941C33.8557 61.4941 33.8551 61.4941 33.8545 61.4941C33.8538 61.4941 33.8532 61.4941 33.8525 61.4941C33.8519 61.4941 33.8513 61.4941 33.8506 61.4941C33.85 61.4941 33.8494 61.4941 33.8487 61.4941C33.8481 61.4941 33.8474 61.4941 33.8468 61.4941C33.8462 61.4941 33.8455 61.4941 33.8449 61.4941C33.8443 61.4941 33.8436 61.4941 33.843 61.4941C33.8424 61.4941 33.8417 61.4941 33.8411 61.4941C33.8404 61.4941 33.8398 61.4941 33.8392 61.4941C33.8386 61.4941 33.8379 61.4941 33.8373 61.4941C33.8367 61.4941 33.836 61.4941 33.8354 61.4941C33.8348 61.4941 33.8341 61.4941 33.8335 61.4941C33.8329 61.4941 33.8322 61.4941 33.8316 61.4941C33.831 61.4941 33.8304 61.4941 33.8297 61.4941C33.8291 61.4941 33.8285 61.4941 33.8279 61.4941C33.8272 61.4941 33.8266 61.4941 33.826 61.4941C33.8253 61.4941 33.8247 61.4941 33.8241 61.4941C33.8235 61.4941 33.8229 61.4941 33.8222 61.4941C33.8216 61.4941 33.821 61.4941 33.8204 61.4941C33.8197 61.4941 33.8191 61.4941 33.8185 61.4941C33.8179 61.4941 33.8173 61.4941 33.8166 61.4941C33.816 61.4941 33.8154 61.4941 33.8148 61.4941C33.8142 61.4941 33.8135 61.4941 33.8129 61.4941C33.8123 61.4941 33.8117 61.4941 33.8111 61.4941C33.8104 61.4941 33.8098 61.4941 33.8092 61.4941C33.8086 61.4941 33.808 61.4941 33.8074 61.4941C33.8068 61.4941 33.8061 61.4941 33.8055 61.4941C33.8049 61.4941 33.8043 61.4941 33.8037 61.4941C33.8031 61.4941 33.8025 61.4941 33.8018 61.4941C33.8012 61.4941 33.8006 61.4941 33.8 61.4941C33.7994 61.4941 33.7988 61.4941 33.7982 61.4941C33.7976 61.4941 33.797 61.4941 33.7964 61.4941C33.7957 61.4941 33.7951 61.4941 33.7945 61.4941C33.7939 61.4941 33.7933 61.4941 33.7927 61.4941C33.7921 61.4941 33.7915 61.4941 33.7909 61.4941C33.7903 61.4941 33.7897 61.4941 33.7891 61.4941C33.7885 61.4941 33.7879 61.4941 33.7873 61.4941C33.7867 61.4941 33.7861 61.4941 33.7855 61.4941C33.7849 61.4941 33.7843 61.4941 33.7837 61.4941C33.7831 61.4941 33.7825 61.4941 33.7819 61.4941C33.7813 61.4941 33.7807 61.4941 33.7801 61.4941C33.7795 61.4941 33.7789 61.4941 33.7783 61.4941C33.7777 61.4941 33.7771 61.4941 33.7765 61.4941C33.7759 61.4941 33.7753 61.4941 33.7747 61.4941C33.7741 61.4941 33.7735 61.4941 33.7729 61.4941C33.7723 61.4941 33.7717 61.4941 33.7711 61.4941C33.7705 61.4941 33.7699 61.4941 33.7693 61.4941C33.7687 61.4941 33.7682 61.4941 33.7676 61.4941C33.767 61.4941 33.7664 61.4941 33.7658 61.4941C33.7652 61.4941 33.7646 61.4941 33.764 61.4941C33.7634 61.4941 33.7628 61.4941 33.7623 61.4941C33.7617 61.4941 33.7611 61.4941 33.7605 61.4941C33.7599 61.4941 33.7593 61.4941 33.7587 61.4941C33.7582 61.4941 33.7576 61.4941 33.757 61.4941C33.7564 61.4941 33.7558 61.4941 33.7552 61.4941C33.7547 61.4941 33.7541 61.4941 33.7535 61.4941C33.7529 61.4941 33.7523 61.4941 33.7517 61.4941C33.7512 61.4941 33.7506 61.4941 33.75 61.4941V63.4941ZM40.5103 62.7254C53.5688 59.6528 63.25 47.9766 63.25 33.9941H61.25C61.25 47.0273 52.2281 57.9136 40.0522 60.7785L40.5103 62.7254ZM63.25 33.9941C63.25 26.9183 60.6353 20.3086 56.3328 15.2378L54.8078 16.5317C58.8178 21.2578 61.25 27.4137 61.25 33.9941H63.25ZM55.3387 14.912C42.4313 17.9851 32.75 29.6596 32.75 43.4941H34.75C34.75 30.6099 43.7718 19.7219 55.8019 16.8576L55.3387 14.912ZM32.75 43.4941C32.75 50.7006 35.2046 57.3144 39.5187 62.3989L41.0438 61.105C37.0454 56.3926 34.75 50.2408 34.75 43.4941H32.75ZM38.3039 65.9667C36.9346 66.2405 35.4053 66.2441 33.75 66.2441V68.2441C35.3603 68.2441 37.0967 68.2477 38.6961 67.9278L38.3039 65.9667ZM33.75 66.2441C15.896 66.2441 1.5 51.8481 1.5 33.9941H-0.5C-0.5 52.9527 14.7915 68.2441 33.75 68.2441V66.2441ZM1.5 33.9941C1.5 16.2857 15.8989 1.74414 33.75 1.74414V-0.255859C14.7886 -0.255859 -0.5 15.187 -0.5 33.9941H1.5ZM33.75 1.74414C42.6659 1.74414 50.7299 5.48199 56.6445 11.3966L58.0587 9.98235C51.8014 3.72504 43.2404 -0.255859 33.75 -0.255859V1.74414ZM57.5477 11.67C58.9573 11.3881 60.5234 11.2441 62.25 11.2441V9.24414C60.4141 9.24414 58.7145 9.39706 57.1554 9.70887L57.5477 11.67ZM62.25 11.2441C79.9555 11.2441 94.5 25.7886 94.5 43.4941H96.5C96.5 24.684 81.0601 9.24414 62.25 9.24414V11.2441ZM94.5 43.4941C94.5 61.3452 79.9584 75.7441 62.25 75.7441V77.7441C81.0572 77.7441 96.5 62.4556 96.5 43.4941H94.5ZM62.25 75.7441C53.1723 75.7441 45.1117 72.1448 39.2071 66.2402L37.7929 67.6544C44.0602 73.9216 52.6246 77.7441 62.25 77.7441V75.7441ZM60.2411 15.713C63.842 20.8982 66 27.2321 66 33.9941H68C68 26.8031 65.7049 20.0745 61.8839 14.5722L60.2411 15.713ZM66 33.9941C66 48.3927 56.6419 60.4861 43.8308 64.6605L44.4504 66.5621C58.0612 62.1271 68 49.2831 68 33.9941H66ZM43.5074 66.3853C48.5818 70.537 55.0391 72.9941 62.25 72.9941V70.9941C55.5078 70.9941 49.4964 68.7012 44.7739 64.8374L43.5074 66.3853ZM62.25 72.9941C78.5367 72.9941 91.75 59.7808 91.75 43.4941H89.75C89.75 58.6762 77.4321 70.9941 62.25 70.9941V72.9941ZM91.75 43.4941C91.75 27.2075 78.5367 13.9941 62.25 13.9941V15.9941C77.4321 15.9941 89.75 28.3121 89.75 43.4941H91.75ZM62.25 13.9941C61.928 13.9941 61.626 14.0473 61.4217 14.0845C61.3071 14.1053 61.2314 14.1198 61.1586 14.131C61.0865 14.1421 61.0613 14.1426 61.0625 14.1426V16.1426C61.3256 16.1426 61.6276 16.0798 61.7795 16.0522C61.9834 16.0152 62.1267 15.9941 62.25 15.9941V13.9941Z" fill="#151620" mask="url(#path-1-inside-1_600_2037)"/>
</svg>
