<svg width="93" height="47" viewBox="0 0 93 47" fill="none" xmlns="http://www.w3.org/2000/svg">
<path d="M23.0167 46.7436C8.74051 46.7436 0 37.6256 0 26.9556C0 10.4656 15.4416 0.571589 41.0804 0.183594V9.30159C22.434 9.49559 16.607 18.2256 16.607 24.8216C16.607 25.7916 16.607 26.5676 16.8983 27.3436C19.2291 25.7916 23.308 25.0156 26.8042 25.0156C35.5447 25.0156 42.2458 28.5076 42.2458 35.4916C42.2458 41.8936 35.2534 46.7436 23.0167 46.7436ZM73.4202 46.7436C59.1441 46.7436 50.4036 37.6256 50.4036 26.9556C50.4036 10.4656 65.8451 0.571589 91.484 0.183594V9.30159C72.8375 9.49559 67.0105 18.2256 67.0105 24.8216C67.0105 25.7916 67.0105 26.5676 67.3019 27.3436C69.6327 25.7916 73.7116 25.0156 77.2078 25.0156C85.9483 25.0156 92.6494 28.5076 92.6494 35.4916C92.6494 41.8936 85.657 46.7436 73.4202 46.7436Z" fill="#EE46FF"/>
</svg>
