<svg width="60" height="47" viewBox="0 0 60 47" fill="none" xmlns="http://www.w3.org/2000/svg">
<path d="M14.7584 46.6147C5.60444 46.6147 0 37.4967 0 26.8267C0 10.3367 9.90119 0.442683 26.3409 0.0546875V9.17269C14.3847 9.36668 10.6484 18.0967 10.6484 24.6927C10.6484 25.6627 10.6484 26.4387 10.8353 27.2147C12.3298 25.6627 14.9452 24.8867 17.187 24.8867C22.7914 24.8867 27.0882 28.3787 27.0882 35.3627C27.0882 41.7647 22.6046 46.6147 14.7584 46.6147ZM47.0773 46.6147C37.9234 46.6147 32.319 37.4967 32.319 26.8267C32.319 10.3367 42.2202 0.442683 58.6599 0.0546875V9.17269C46.7037 9.36668 42.9674 18.0967 42.9674 24.6927C42.9674 25.6627 42.9674 26.4387 43.1542 27.2147C44.6487 25.6627 47.2641 24.8867 49.5059 24.8867C55.1104 24.8867 59.4071 28.3787 59.4071 35.3627C59.4071 41.7647 54.9236 46.6147 47.0773 46.6147Z" fill="#EE46FF"/>
</svg>
