<svg width="243" height="76" viewBox="0 0 243 76" fill="none" xmlns="http://www.w3.org/2000/svg">
<mask id="mask0_396_3118" style="mask-type:luminance" maskUnits="userSpaceOnUse" x="0" y="0" width="243" height="76">
<path d="M242.578 0.244141H0V75.2441H242.578V0.244141Z" fill="white"/>
</mask>
<g mask="url(#mask0_396_3118)">
<mask id="mask1_396_3118" style="mask-type:luminance" maskUnits="userSpaceOnUse" x="0" y="0" width="243" height="76">
<path d="M242.578 0.244141H0V75.2441H242.578V0.244141Z" fill="white"/>
</mask>
<g mask="url(#mask1_396_3118)">
<path d="M242.578 30.626C242.578 25.7152 238.586 21.7344 233.661 21.7344C228.738 21.7344 224.746 25.7152 224.746 30.626V66.1924C224.746 71.1033 228.738 75.0843 233.661 75.0843C238.586 75.0843 242.578 71.1033 242.578 66.1924V30.626Z" fill="#151620"/>
<path d="M67.9786 21.7344C72.9 21.7344 76.8946 25.7175 76.8946 30.626V66.1924C76.8946 71.1011 72.9 75.0843 67.9786 75.0843C63.0565 75.0843 59.062 71.1011 59.062 66.1924V30.626C59.062 25.7175 63.0565 21.7344 67.9786 21.7344Z" fill="#151620"/>
<path d="M233.661 0.244141C238.584 0.244141 242.578 4.22737 242.578 9.13578C242.578 14.0442 238.584 18.0274 233.661 18.0274C228.74 18.0274 224.746 14.0442 224.746 9.13578C224.746 4.22737 228.74 0.244141 233.661 0.244141Z" fill="#151620"/>
<path d="M59.0684 9.13578C59.0684 4.22737 63.0628 0.244141 67.9848 0.244141C72.9064 0.244141 76.9008 4.22737 76.9008 9.13578C76.9008 14.0442 72.9064 18.0274 67.9848 18.0274C63.0628 18.0274 59.0684 14.0442 59.0684 9.13578Z" fill="#151620"/>
<path d="M82.2837 14.5765C82.2837 13.8951 82.7504 13.3023 83.4166 13.1361L97.1603 9.77336C98.0989 9.5462 98.9994 10.2498 98.9994 11.2137V21.9224C98.9994 22.3324 99.3324 22.6648 99.7438 22.6648H108.105C108.926 22.6648 109.593 23.3297 109.593 24.144V35.8112C109.593 36.6311 108.926 37.2904 108.105 37.2904H99.7438C99.3324 37.2904 98.9994 37.6227 98.9994 38.0326V55.5389C98.9994 58.3199 100.949 60.2644 103.738 60.3533C106.054 60.431 108.115 59.9319 110.026 59.2785C110.643 59.0677 111.314 59.4059 111.531 60.0208C112.937 64.0597 115.476 67.5273 116.92 69.2391C117.353 69.7492 117.298 70.5356 116.748 70.9122C113.332 73.256 108.455 75.0786 102.532 75.0786C87.7664 75.0786 82.2837 67.3001 82.2837 56.4643V14.5765Z" fill="#151620"/>
<path d="M181.055 66.3239L165.678 24.6526C165.322 23.683 166.039 22.6582 167.072 22.6582H181.744C182.705 22.6582 183.56 23.273 183.86 24.1871L193.11 52.3357C193.276 52.8454 193.999 52.8454 194.171 52.3357L203.42 24.1871C203.72 23.273 204.575 22.6582 205.537 22.6582H220.208C221.241 22.6582 221.958 23.683 221.602 24.6526L206.225 66.3239C204.287 71.5817 199.259 75.0775 193.642 75.0775C188.027 75.0775 183 71.5817 181.06 66.3239H181.055Z" fill="#151620"/>
<path fill-rule="evenodd" clip-rule="evenodd" d="M141.247 75.2456C156.062 75.2456 168.078 63.2682 168.078 48.4876C168.078 33.707 156.067 21.7295 141.247 21.7295C126.425 21.7295 114.415 33.707 114.415 48.4876C114.415 63.2682 126.425 75.2456 141.247 75.2456ZM151.39 51.0415C151.39 45.014 147.585 35.2969 140.991 35.2969C134.397 35.2969 130.592 45.0195 130.592 51.0415C130.592 56.5982 134.214 61.9716 140.991 61.9716C147.768 61.9716 151.39 56.5982 151.39 51.0415Z" fill="#151620"/>
<path fill-rule="evenodd" clip-rule="evenodd" d="M16.7211 4.66081C16.7211 3.84644 16.0544 3.18164 15.2378 3.18164H1.48324C0.666624 3.18164 0 3.84644 0 4.66081V73.2342C0 74.0543 0.666624 74.7138 1.48324 74.7138H15.2378C16.0544 74.7138 16.7211 74.0488 16.7211 73.2342V71.3008C16.7211 70.6694 17.4711 70.3203 17.9822 70.697C21.7264 73.478 26.2538 75.0905 31.2146 75.0905C45.3358 75.0905 54.813 63.1407 54.813 48.4044C54.813 33.668 44.3525 21.7184 31.2146 21.7184C26.3205 21.7184 21.7652 23.3804 17.9877 26.2223C17.4821 26.6046 16.7267 26.2556 16.7267 25.6185V4.66081H16.7211ZM16.7211 48.3988C16.7211 41.845 20.6264 36.5322 27.4038 36.5322C34.1811 36.5322 38.0864 41.845 38.0864 48.3988C38.0864 54.9526 34.1811 60.2654 27.4038 60.2654C20.6264 60.2654 16.7211 54.9526 16.7211 48.3988Z" fill="#151620"/>
</g>
</g>
</svg>
