<svg width="486" height="112" viewBox="0 0 486 112" fill="none" xmlns="http://www.w3.org/2000/svg">
<path d="M240.762 28.0617V0L253.469 17.3801L265.933 0V28.0617H262.468V15.5093C262.468 14.6846 262.478 13.7894 262.498 12.8239C262.518 11.8382 262.589 10.7218 262.711 9.47458C262.083 10.581 261.464 11.5566 260.856 12.4014C260.269 13.2262 259.732 13.9906 259.245 14.6947L253.347 22.9925L247.267 14.6947C246.761 13.9906 246.214 13.2262 245.626 12.4014C245.058 11.5566 244.45 10.581 243.802 9.47458C243.923 10.7218 243.994 11.8382 244.015 12.8239C244.035 13.7894 244.045 14.6846 244.045 15.5093V28.0617H240.762Z" fill="url(#paint0_linear_333_18777)"/>
<path d="M289.816 28.6048C287.85 28.6048 285.996 28.2427 284.253 27.5185C282.53 26.7742 281.01 25.7584 279.693 24.471C278.395 23.1836 277.372 21.6849 276.622 19.9751C275.892 18.2652 275.528 16.4347 275.528 14.4834C275.528 12.5322 275.892 10.7016 276.622 8.9918C277.372 7.28195 278.395 5.78332 279.693 4.4959C281.01 3.20848 282.53 2.20269 284.253 1.47852C285.996 0.734232 287.85 0.362088 289.816 0.362088C291.802 0.362088 293.656 0.734232 295.379 1.47852C297.102 2.20269 298.612 3.20848 299.909 4.4959C301.226 5.78332 302.25 7.28195 302.979 8.9918C303.729 10.7016 304.104 12.5322 304.104 14.4834C304.104 16.4347 303.729 18.2652 302.979 19.9751C302.25 21.6849 301.226 23.1836 299.909 24.471C298.612 25.7584 297.102 26.7742 295.379 27.5185C293.656 28.2427 291.802 28.6048 289.816 28.6048ZM289.816 25.346C291.822 25.346 293.636 24.8632 295.258 23.8977C296.879 22.912 298.156 21.5944 299.088 19.9449C300.041 18.2954 300.517 16.4749 300.517 14.4834C300.517 12.4718 300.041 10.6514 299.088 9.02197C298.156 7.37247 296.879 6.06494 295.258 5.09938C293.636 4.1137 291.822 3.62086 289.816 3.62086C287.809 3.62086 285.996 4.1137 284.374 5.09938C282.773 6.06494 281.496 7.37247 280.544 9.02197C279.591 10.6514 279.115 12.4718 279.115 14.4834C279.115 16.4749 279.591 18.2954 280.544 19.9449C281.496 21.5944 282.773 22.912 284.374 23.8977C285.996 24.8632 287.809 25.346 289.816 25.346Z" fill="url(#paint1_linear_333_18777)"/>
<path d="M313.708 28.0617V0.905216H322.676C325.149 0.905216 327.297 1.30753 329.121 2.11217C330.965 2.9168 332.485 3.98294 333.681 5.31059C334.877 6.63824 335.769 8.1067 336.356 9.71597C336.944 11.3051 337.238 12.8943 337.238 14.4834C337.238 16.0726 336.944 17.6718 336.356 19.2811C335.769 20.8702 334.877 22.3286 333.681 23.6563C332.485 24.9839 330.965 26.0501 329.121 26.8547C327.297 27.6593 325.149 28.0617 322.676 28.0617H313.708ZM317.174 24.9839H322.311C324.419 24.9839 326.192 24.6621 327.631 24.0184C329.07 23.3545 330.236 22.4996 331.127 21.4536C332.019 20.3874 332.658 19.2408 333.043 18.0138C333.448 16.7867 333.651 15.6099 333.651 14.4834C333.651 13.3569 333.448 12.1802 333.043 10.9531C332.658 9.72603 332.019 8.58948 331.127 7.54346C330.236 6.47731 329.07 5.62239 327.631 4.97868C326.192 4.31486 324.419 3.98295 322.311 3.98295H317.174V24.9839Z" fill="url(#paint2_linear_333_18777)"/>
<path d="M346.846 28.0617V0.905216H360.344V3.98295H350.312V9.77632H358.216V12.854H350.312V24.9839H360.344V28.0617H346.846Z" fill="url(#paint3_linear_333_18777)"/>
<path d="M370.03 28.0617V0.905216H376.9C378.623 0.905216 380.103 1.24719 381.339 1.93112C382.575 2.61506 383.528 3.52028 384.196 4.64677C384.886 5.75314 385.23 6.97015 385.23 8.2978C385.23 9.78638 384.804 11.1241 383.953 12.3109C383.102 13.4978 381.937 14.3728 380.457 14.936L389.638 28.0617H385.595L376.9 15.5697H373.496V28.0617H370.03ZM373.496 12.673H376.9C378.076 12.673 379.028 12.4618 379.758 12.0394C380.508 11.5968 381.055 11.0436 381.4 10.3798C381.764 9.69586 381.947 9.00186 381.947 8.2978C381.947 7.0305 381.481 5.99453 380.548 5.1899C379.636 4.38526 378.42 3.98295 376.9 3.98295H373.496V12.673Z" fill="url(#paint4_linear_333_18777)"/>
<path d="M420.041 28.9669L400.888 8.59954V28.0617H397.605V0L416.757 20.3673V0.905216H420.041V28.9669Z" fill="url(#paint5_linear_333_18777)"/>
<path d="M432.006 28.0617V0.905216H435.472V28.0617H432.006Z" fill="url(#paint6_linear_333_18777)"/>
<path d="M444.87 28.0617L456.878 3.98295H446.146V0.905216H462.015L450.007 24.9839H461.468V28.0617H444.87Z" fill="url(#paint7_linear_333_18777)"/>
<path d="M471.413 28.0617V0.905216H484.911V3.98295H474.879V9.77632H482.783V12.854H474.879V24.9839H484.911V28.0617H471.413Z" fill="url(#paint8_linear_333_18777)"/>
<path d="M238.463 39.9444V37.5017H252.59V39.9444H246.882V59.0545H244.171V39.9444H238.463Z" fill="url(#paint9_linear_333_18777)"/>
<path d="M259.822 59.0545V37.5017H262.533V44.5423H270.144V37.5017H272.855V59.0545H270.144V46.9849H262.533V59.0545H259.822Z" fill="url(#paint10_linear_333_18777)"/>
<path d="M281.935 59.0545V37.5017H292.495V39.9444H284.646V44.5423H290.83V46.9849H284.646V56.6118H292.495V59.0545H281.935Z" fill="url(#paint11_linear_333_18777)"/>
<path d="M310.207 59.0545V36.7833L320.148 50.5771L329.9 36.7833V59.0545H327.188V49.0923C327.188 48.4378 327.196 47.7273 327.212 46.961C327.228 46.1787 327.283 45.2927 327.379 44.3028C326.887 45.1809 326.403 45.9552 325.928 46.6257C325.468 47.2803 325.048 47.887 324.667 48.4457L320.053 55.0313L315.297 48.4457C314.9 47.887 314.472 47.2803 314.012 46.6257C313.568 45.9552 313.093 45.1809 312.585 44.3028C312.68 45.2927 312.736 46.1787 312.752 46.961C312.768 47.7273 312.776 48.4378 312.776 49.0923V59.0545H310.207Z" fill="url(#paint12_linear_333_18777)"/>
<path d="M348.584 59.4855C347.046 59.4855 345.595 59.1982 344.232 58.6234C342.884 58.0327 341.695 57.2265 340.664 56.2047C339.649 55.183 338.849 53.9936 338.262 52.6365C337.691 51.2795 337.406 49.8267 337.406 48.2781C337.406 46.7295 337.691 45.2767 338.262 43.9197C338.849 42.5626 339.649 41.3733 340.664 40.3515C341.695 39.3297 342.884 38.5315 344.232 37.9568C345.595 37.366 347.046 37.0707 348.584 37.0707C350.138 37.0707 351.589 37.366 352.936 37.9568C354.284 38.5315 355.465 39.3297 356.48 40.3515C357.511 41.3733 358.311 42.5626 358.882 43.9197C359.469 45.2767 359.762 46.7295 359.762 48.2781C359.762 49.8267 359.469 51.2795 358.882 52.6365C358.311 53.9936 357.511 55.183 356.48 56.2047C355.465 57.2265 354.284 58.0327 352.936 58.6234C351.589 59.1982 350.138 59.4855 348.584 59.4855ZM348.584 56.8992C350.154 56.8992 351.573 56.516 352.841 55.7497C354.11 54.9674 355.108 53.9217 355.838 52.6126C356.583 51.3035 356.956 49.8586 356.956 48.2781C356.956 46.6816 356.583 45.2368 355.838 43.9436C355.108 42.6345 354.11 41.5968 352.841 40.8304C351.573 40.0482 350.154 39.657 348.584 39.657C347.014 39.657 345.595 40.0482 344.327 40.8304C343.074 41.5968 342.075 42.6345 341.33 43.9436C340.585 45.2368 340.212 46.6816 340.212 48.2781C340.212 49.8586 340.585 51.3035 341.33 52.6126C342.075 53.9217 343.074 54.9674 344.327 55.7497C345.595 56.516 347.014 56.8992 348.584 56.8992Z" fill="url(#paint13_linear_333_18777)"/>
<path d="M384.828 59.7729L369.844 43.6084V59.0545H367.276V36.7833L382.259 52.9479V37.5017H384.828V59.7729Z" fill="url(#paint14_linear_333_18777)"/>
<path d="M403.512 59.4855C401.974 59.4855 400.523 59.1982 399.16 58.6234C397.812 58.0327 396.623 57.2265 395.592 56.2047C394.577 55.183 393.777 53.9936 393.19 52.6365C392.619 51.2795 392.334 49.8267 392.334 48.2781C392.334 46.7295 392.619 45.2767 393.19 43.9197C393.777 42.5626 394.577 41.3733 395.592 40.3515C396.623 39.3297 397.812 38.5315 399.16 37.9568C400.523 37.366 401.974 37.0707 403.512 37.0707C405.066 37.0707 406.517 37.366 407.864 37.9568C409.212 38.5315 410.393 39.3297 411.408 40.3515C412.439 41.3733 413.239 42.5626 413.81 43.9197C414.397 45.2767 414.69 46.7295 414.69 48.2781C414.69 49.8267 414.397 51.2795 413.81 52.6365C413.239 53.9936 412.439 55.183 411.408 56.2047C410.393 57.2265 409.212 58.0327 407.864 58.6234C406.517 59.1982 405.066 59.4855 403.512 59.4855ZM403.512 56.8992C405.082 56.8992 406.501 56.516 407.769 55.7497C409.038 54.9674 410.037 53.9217 410.766 52.6126C411.511 51.3035 411.884 49.8586 411.884 48.2781C411.884 46.6816 411.511 45.2368 410.766 43.9436C410.037 42.6345 409.038 41.5968 407.769 40.8304C406.501 40.0482 405.082 39.657 403.512 39.657C401.942 39.657 400.523 40.0482 399.255 40.8304C398.002 41.5968 397.003 42.6345 396.258 43.9436C395.513 45.2368 395.14 46.6816 395.14 48.2781C395.14 49.8586 395.513 51.3035 396.258 52.6126C397.003 53.9217 398.002 54.9674 399.255 55.7497C400.523 56.516 401.942 56.8992 403.512 56.8992Z" fill="url(#paint15_linear_333_18777)"/>
<path d="M422.204 59.0545V37.5017H424.915V56.6118H432.335V59.0545H422.204Z" fill="url(#paint16_linear_333_18777)"/>
<path d="M439.853 59.0545V37.5017H442.564V59.0545H439.853Z" fill="url(#paint17_linear_333_18777)"/>
<path d="M450.059 39.9444V37.5017H464.186V39.9444H458.478V59.0545H455.767V39.9444H450.059Z" fill="url(#paint18_linear_333_18777)"/>
<path d="M471.418 59.0545V37.5017H474.129V44.5423H481.74V37.5017H484.451V59.0545H481.74V46.9849H474.129V59.0545H471.418Z" fill="url(#paint19_linear_333_18777)"/>
<path d="M0.661133 107.131V82.705H3.75515V104.363H12.223V107.131H0.661133Z" fill="white"/>
<path d="M29.3885 107.62C27.6334 107.62 25.9778 107.294 24.4218 106.643C22.8838 105.973 21.5268 105.06 20.3507 103.902C19.1927 102.744 18.279 101.396 17.6095 99.8577C16.9581 98.3198 16.6325 96.6733 16.6325 94.9182C16.6325 93.1631 16.9581 91.5166 17.6095 89.9786C18.279 88.4406 19.1927 87.0927 20.3507 85.9347C21.5268 84.7767 22.8838 83.872 24.4218 83.2206C25.9778 82.5512 27.6334 82.2164 29.3885 82.2164C31.1616 82.2164 32.8172 82.5512 34.3552 83.2206C35.8931 83.872 37.2411 84.7767 38.3991 85.9347C39.5752 87.0927 40.4889 88.4406 41.1403 89.9786C41.8098 91.5166 42.1445 93.1631 42.1445 94.9182C42.1445 96.6733 41.8098 98.3198 41.1403 99.8577C40.4889 101.396 39.5752 102.744 38.3991 103.902C37.2411 105.06 35.8931 105.973 34.3552 106.643C32.8172 107.294 31.1616 107.62 29.3885 107.62ZM29.3885 104.689C31.1797 104.689 32.7991 104.254 34.2466 103.386C35.6941 102.499 36.834 101.314 37.6663 99.8306C38.5167 98.3469 38.9419 96.7094 38.9419 94.9182C38.9419 93.1088 38.5167 91.4713 37.6663 90.0057C36.834 88.5221 35.6941 87.346 34.2466 86.4775C32.7991 85.5909 31.1797 85.1476 29.3885 85.1476C27.5972 85.1476 25.9778 85.5909 24.5303 86.4775C23.1009 87.346 21.961 88.5221 21.1106 90.0057C20.2602 91.4713 19.835 93.1088 19.835 94.9182C19.835 96.7094 20.2602 98.3469 21.1106 99.8306C21.961 101.314 23.1009 102.499 24.5303 103.386C25.9778 104.254 27.5972 104.689 29.3885 104.689Z" fill="white"/>
<path d="M71.139 107.946L54.0405 89.6258V107.131H51.1093V81.8907L68.2078 100.211V82.705H71.139V107.946Z" fill="white"/>
<path d="M81.8866 107.131V82.705H89.8931C92.1005 82.705 94.0184 83.0668 95.6468 83.7906C97.2934 84.5143 98.6504 85.4733 99.7179 86.6675C100.785 87.8617 101.582 89.1825 102.106 90.63C102.631 92.0594 102.893 93.4888 102.893 94.9182C102.893 96.3476 102.631 97.786 102.106 99.2335C101.582 100.663 100.785 101.975 99.7179 103.169C98.6504 104.363 97.2934 105.322 95.6468 106.046C94.0184 106.77 92.1005 107.131 89.8931 107.131H81.8866ZM84.9806 104.363H89.5674C91.4491 104.363 93.0323 104.074 94.317 103.495C95.6016 102.897 96.642 102.128 97.4381 101.188C98.2342 100.229 98.8042 99.1973 99.148 98.0936C99.5098 96.9899 99.6908 95.9314 99.6908 94.9182C99.6908 93.9049 99.5098 92.8465 99.148 91.7427C98.8042 90.639 98.2342 89.6167 97.4381 88.6759C96.642 87.7169 95.6016 86.9479 94.317 86.3689C93.0323 85.7718 91.4491 85.4733 89.5674 85.4733H84.9806V104.363Z" fill="white"/>
<path d="M122.827 107.62C121.072 107.62 119.417 107.294 117.86 106.643C116.323 105.973 114.965 105.06 113.789 103.902C112.631 102.744 111.718 101.396 111.048 99.8577C110.397 98.3198 110.071 96.6733 110.071 94.9182C110.071 93.1631 110.397 91.5166 111.048 89.9786C111.718 88.4406 112.631 87.0927 113.789 85.9347C114.965 84.7767 116.323 83.872 117.86 83.2206C119.417 82.5512 121.072 82.2164 122.827 82.2164C124.6 82.2164 126.256 82.5512 127.794 83.2206C129.332 83.872 130.68 84.7767 131.838 85.9347C133.014 87.0927 133.928 88.4406 134.579 89.9786C135.248 91.5166 135.583 93.1631 135.583 94.9182C135.583 96.6733 135.248 98.3198 134.579 99.8577C133.928 101.396 133.014 102.744 131.838 103.902C130.68 105.06 129.332 105.973 127.794 106.643C126.256 107.294 124.6 107.62 122.827 107.62ZM122.827 104.689C124.618 104.689 126.238 104.254 127.685 103.386C129.133 102.499 130.273 101.314 131.105 99.8306C131.955 98.3469 132.381 96.7094 132.381 94.9182C132.381 93.1088 131.955 91.4713 131.105 90.0057C130.273 88.5221 129.133 87.346 127.685 86.4775C126.238 85.5909 124.618 85.1476 122.827 85.1476C121.036 85.1476 119.417 85.5909 117.969 86.4775C116.54 87.346 115.4 88.5221 114.549 90.0057C113.699 91.4713 113.274 93.1088 113.274 94.9182C113.274 96.7094 113.699 98.3469 114.549 99.8306C115.4 101.314 116.54 102.499 117.969 103.386C119.417 104.254 121.036 104.689 122.827 104.689Z" fill="white"/>
<path d="M164.578 107.946L147.479 89.6258V107.131H144.548V81.8907L161.647 100.211V82.705H164.578V107.946Z" fill="white"/>
<path d="M190.457 99.1521C189.299 99.1521 188.304 98.7359 187.472 97.9036C186.639 97.0713 186.223 96.0762 186.223 94.9182C186.223 93.7421 186.639 92.7469 187.472 91.9327C188.304 91.1004 189.299 90.6843 190.457 90.6843C191.633 90.6843 192.628 91.1004 193.442 91.9327C194.275 92.7469 194.691 93.7421 194.691 94.9182C194.691 96.0762 194.275 97.0713 193.442 97.9036C192.628 98.7359 191.633 99.1521 190.457 99.1521Z" fill="white"/>
<path d="M216.324 107.131V81.8907L227.668 97.5237L238.796 81.8907V107.131H235.702V95.841C235.702 95.0991 235.711 94.2939 235.729 93.4254C235.747 92.5389 235.81 91.5347 235.919 90.4129C235.358 91.408 234.806 92.2855 234.263 93.0455C233.739 93.7873 233.259 94.4749 232.825 95.1082L227.56 102.572L222.132 95.1082C221.679 94.4749 221.191 93.7873 220.666 93.0455C220.159 92.2855 219.617 91.408 219.038 90.4129C219.146 91.5347 219.209 92.5389 219.228 93.4254C219.246 94.2939 219.255 95.0991 219.255 95.841V107.131H216.324Z" fill="white"/>
<path d="M246.612 107.131L256.953 81.8907H257.007L267.348 107.131H264.064L261.187 99.8849H252.637L249.733 107.131H246.612ZM253.669 97.3065H260.155L258.228 92.4755C257.993 91.8603 257.767 91.2542 257.55 90.6571C257.333 90.06 257.116 89.3453 256.899 88.513C256.681 89.3453 256.473 90.06 256.274 90.6571C256.075 91.2361 255.849 91.8423 255.596 92.4755L253.669 97.3065Z" fill="white"/>
<path d="M275.25 107.131V82.705H281.383C282.921 82.705 284.242 83.0126 285.346 83.6277C286.45 84.2429 287.3 85.0571 287.897 86.0704C288.512 87.0655 288.82 88.1602 288.82 89.3544C288.82 90.6933 288.44 91.8965 287.68 92.9641C286.92 94.0316 285.88 94.8187 284.559 95.3253L292.755 107.131H289.146L281.383 95.8952H278.344V107.131H275.25ZM278.344 93.2897H281.383C282.433 93.2897 283.283 93.0998 283.935 92.7198C284.604 92.3217 285.093 91.8242 285.4 91.2271C285.726 90.6119 285.889 89.9877 285.889 89.3544C285.889 88.2145 285.473 87.2827 284.64 86.5589C283.826 85.8352 282.741 85.4733 281.383 85.4733H278.344V93.2897Z" fill="white"/>
<path d="M318.159 107.457C316.603 107.457 315.173 107.095 313.871 106.371C312.586 105.648 311.573 104.653 310.831 103.386L312.622 99.8306C312.821 101.224 313.436 102.382 314.468 103.305C315.517 104.227 316.748 104.689 318.159 104.689C319.19 104.689 320.122 104.444 320.954 103.956C321.805 103.449 322.474 102.78 322.963 101.948C323.451 101.115 323.695 100.183 323.695 99.1521C323.695 98.1388 323.442 97.2161 322.936 96.3838C322.447 95.5334 321.787 94.8639 320.954 94.3754C320.122 93.8687 319.19 93.6154 318.159 93.6154C317.652 93.6154 317.173 93.6788 316.72 93.8054C316.286 93.9321 315.888 94.0949 315.526 94.2939L320.167 85.3104H312.622V82.705H324.673L320.086 91.2542C321.298 91.4894 322.393 91.978 323.37 92.7198C324.365 93.4616 325.152 94.3844 325.731 95.4881C326.328 96.5737 326.627 97.7951 326.627 99.1521C326.627 100.708 326.247 102.119 325.487 103.386C324.727 104.634 323.705 105.63 322.42 106.371C321.135 107.095 319.715 107.457 318.159 107.457Z" fill="white"/>
<path d="M333.942 96.2209V93.6154H342.084V96.2209H333.942Z" fill="white"/>
<path d="M356.088 107.457C354.532 107.457 353.103 107.095 351.8 106.371C350.516 105.648 349.502 104.653 348.761 103.386L350.552 99.8306C350.751 101.224 351.366 102.382 352.397 103.305C353.447 104.227 354.677 104.689 356.088 104.689C357.102 104.689 358.024 104.444 358.857 103.956C359.707 103.449 360.377 102.78 360.865 101.948C361.372 101.115 361.625 100.192 361.625 99.1792C361.625 98.166 361.372 97.2432 360.865 96.4109C360.359 95.5786 359.68 94.9182 358.83 94.4296C357.997 93.923 357.056 93.6697 356.007 93.6697C355.102 93.6697 354.252 93.8778 353.456 94.2939C352.678 94.692 352.035 95.2348 351.529 95.9224V82.705H362.548V85.4733H354.189V91.4985C354.551 91.3356 354.921 91.2271 355.301 91.1728C355.699 91.1004 356.079 91.0642 356.441 91.0642C357.907 91.0642 359.255 91.4171 360.485 92.1227C361.716 92.8284 362.702 93.7964 363.444 95.0267C364.185 96.239 364.556 97.6232 364.556 99.1792C364.556 100.735 364.167 102.138 363.389 103.386C362.611 104.634 361.58 105.63 360.295 106.371C359.029 107.095 357.626 107.457 356.088 107.457Z" fill="white"/>
<path d="M371.22 111.202C372.034 110.189 372.686 109.013 373.174 107.674C373.681 106.335 373.934 104.797 373.934 103.06H376.865C376.865 104.598 376.648 106.046 376.214 107.403C375.798 108.778 375.219 110.044 374.477 111.202H371.22Z" fill="white"/>
<path d="M397.561 107.131L407.359 92.557C407.811 91.8694 408.118 91.2723 408.281 90.7657C408.462 90.2591 408.553 89.7886 408.553 89.3544C408.553 88.1783 408.137 87.1831 407.304 86.3689C406.472 85.5547 405.459 85.1476 404.265 85.1476C403.07 85.1476 402.057 85.5547 401.225 86.3689C400.411 87.1831 400.003 88.1783 400.003 89.3544C400.003 90.6571 400.555 91.7518 401.659 92.6384H397.941C397.362 91.5347 397.072 90.44 397.072 89.3544C397.072 88.0335 397.398 86.8484 398.049 85.799C398.701 84.7495 399.569 83.9172 400.655 83.3021C401.759 82.6869 402.971 82.3793 404.292 82.3793C405.612 82.3793 406.816 82.6869 407.901 83.3021C408.987 83.9172 409.855 84.7495 410.507 85.799C411.158 86.8484 411.484 88.0335 411.484 89.3544C411.484 90.1324 411.357 90.9014 411.104 91.6613C410.851 92.4032 410.407 93.2264 409.774 94.1311L402.717 104.363H411.945V107.131H397.561Z" fill="white"/>
<path d="M428.76 107.457C427.33 107.457 426.082 107.104 425.014 106.399C423.947 105.675 423.051 104.716 422.327 103.522C421.622 102.309 421.088 100.961 420.726 99.4778C420.382 97.976 420.21 96.4561 420.21 94.9182C420.21 93.3802 420.382 91.8694 420.726 90.3857C421.088 88.8839 421.622 87.536 422.327 86.3418C423.051 85.1295 423.947 84.1705 425.014 83.4649C426.082 82.7411 427.33 82.3793 428.76 82.3793C430.189 82.3793 431.438 82.7411 432.505 83.4649C433.573 84.1705 434.459 85.1295 435.165 86.3418C435.889 87.536 436.422 88.8839 436.766 90.3857C437.128 91.8694 437.309 93.3802 437.309 94.9182C437.309 96.4561 437.128 97.976 436.766 99.4778C436.422 100.961 435.889 102.309 435.165 103.522C434.459 104.716 433.573 105.675 432.505 106.399C431.438 107.104 430.189 107.457 428.76 107.457ZM428.76 104.689C429.719 104.689 430.542 104.399 431.229 103.82C431.917 103.241 432.478 102.472 432.912 101.513C433.346 100.554 433.672 99.5049 433.889 98.365C434.106 97.207 434.215 96.0581 434.215 94.9182C434.215 93.7783 434.106 92.6384 433.889 91.4985C433.672 90.3405 433.346 89.282 432.912 88.323C432.478 87.3641 431.917 86.5951 431.229 86.0161C430.542 85.4371 429.719 85.1476 428.76 85.1476C427.819 85.1476 426.996 85.4371 426.29 86.0161C425.602 86.5951 425.041 87.3641 424.607 88.323C424.173 89.282 423.847 90.3405 423.63 91.4985C423.413 92.6384 423.304 93.7783 423.304 94.9182C423.304 96.0581 423.413 97.207 423.63 98.365C423.847 99.5049 424.173 100.554 424.607 101.513C425.041 102.472 425.602 103.241 426.29 103.82C426.996 104.399 427.819 104.689 428.76 104.689Z" fill="white"/>
<path d="M446.063 107.131L455.86 92.557C456.313 91.8694 456.62 91.2723 456.783 90.7657C456.964 90.2591 457.054 89.7886 457.054 89.3544C457.054 88.1783 456.638 87.1831 455.806 86.3689C454.974 85.5547 453.96 85.1476 452.766 85.1476C451.572 85.1476 450.559 85.5547 449.726 86.3689C448.912 87.1831 448.505 88.1783 448.505 89.3544C448.505 90.6571 449.057 91.7518 450.161 92.6384H446.443C445.863 91.5347 445.574 90.44 445.574 89.3544C445.574 88.0335 445.9 86.8484 446.551 85.799C447.202 84.7495 448.071 83.9172 449.157 83.3021C450.26 82.6869 451.473 82.3793 452.793 82.3793C454.114 82.3793 455.317 82.6869 456.403 83.3021C457.489 83.9172 458.357 84.7495 459.009 85.799C459.66 86.8484 459.986 88.0335 459.986 89.3544C459.986 90.1324 459.859 90.9014 459.606 91.6613C459.352 92.4032 458.909 93.2264 458.276 94.1311L451.219 104.363H460.447V107.131H446.063Z" fill="white"/>
<path d="M476.366 107.457C474.81 107.457 473.38 107.095 472.078 106.371C470.793 105.648 469.78 104.653 469.038 103.386L470.829 99.8306C471.028 101.224 471.643 102.382 472.675 103.305C473.724 104.227 474.954 104.689 476.366 104.689C477.379 104.689 478.302 104.444 479.134 103.956C479.984 103.449 480.654 102.78 481.142 101.948C481.649 101.115 481.902 100.192 481.902 99.1792C481.902 98.166 481.649 97.2432 481.142 96.4109C480.636 95.5786 479.957 94.9182 479.107 94.4296C478.275 93.923 477.334 93.6697 476.284 93.6697C475.38 93.6697 474.529 93.8778 473.733 94.2939C472.955 94.692 472.313 95.2348 471.806 95.9224V82.705H482.825V85.4733H474.466V91.4985C474.828 91.3356 475.199 91.2271 475.579 91.1728C475.977 91.1004 476.357 91.0642 476.719 91.0642C478.184 91.0642 479.532 91.4171 480.762 92.1227C481.993 92.8284 482.979 93.7964 483.721 95.0267C484.463 96.239 484.834 97.6232 484.834 99.1792C484.834 100.735 484.444 102.138 483.666 103.386C482.888 104.634 481.857 105.63 480.572 106.371C479.306 107.095 477.904 107.457 476.366 107.457Z" fill="white"/>
<rect y="68.0491" width="486" height="3.21854" fill="url(#paint20_linear_333_18777)"/>
<path d="M0.462891 0.0918579H22.9669C26.5202 1.27628 29.5377 3.47592 32.0193 6.69079C34.5574 9.84925 35.8264 13.7409 35.8264 18.3658C35.8264 25.9236 32.8371 31.4791 26.8586 35.0323L35.4034 59.313H23.5591L16.368 37.7396H11.8841V59.313H0.462891V0.0918579ZM11.8841 10.2441V28.2642H19.1599C20.1187 28.0386 21.1621 27.0798 22.2901 25.3877C23.4745 23.6393 24.0667 21.6089 24.0667 19.2964C24.0667 16.984 23.5591 14.9535 22.5439 13.2051C21.5851 11.4567 20.6263 10.4697 19.6675 10.2441H11.8841Z" fill="white"/>
<path d="M41.9375 59.313V0.0918579H72.3095V10.2441H53.5279V24.3725H70.2791V34.1863H53.5279V49.4992H72.6479V59.313H41.9375Z" fill="white"/>
<path d="M90.6198 10.2441V31.3945H98.1494C101.251 28.8564 102.802 25.1339 102.802 20.2271C102.802 18.1402 102.379 16.1662 101.533 14.3049C100.744 12.4437 99.785 11.0901 98.657 10.2441H90.6198ZM79.1986 59.313V0.0918579H102.126C105.961 1.78389 108.978 4.37834 111.178 7.87521C113.434 11.3721 114.562 15.4612 114.562 20.1424C114.562 24.7673 113.406 29.0538 111.093 33.0019C108.781 36.95 105.369 39.7418 100.857 41.3775H90.6198V59.313H79.1986Z" fill="white"/>
<path d="M120.756 59.313V0.0918579H132.346V49.4992H149.943V59.313H120.756Z" fill="white"/>
<path d="M180.915 59.313L179.138 49.9222H165.771L163.995 59.313H152.489L163.91 0.0918579H181.422L192.251 59.313H180.915ZM172.285 11.0901L168.986 30.8023L167.125 40.8698H177.7L175.754 30.8023L172.455 11.0901H172.285Z" fill="white"/>
<path d="M213.777 59.313H201.425V39.6008L188.904 0.0918579H200.41L205.655 18.112L207.432 28.518H207.77L209.547 18.112L214.792 0.0918579H226.298L213.777 39.6008V59.313Z" fill="white"/>
<defs>
<linearGradient id="paint0_linear_333_18777" x1="375.887" y1="-1.55864" x2="375.887" y2="71.7851" gradientUnits="userSpaceOnUse">
<stop stop-color="#A7FFBB"/>
<stop offset="1" stop-color="#E2FF6E"/>
</linearGradient>
<linearGradient id="paint1_linear_333_18777" x1="375.887" y1="-1.55864" x2="375.887" y2="71.7851" gradientUnits="userSpaceOnUse">
<stop stop-color="#A7FFBB"/>
<stop offset="1" stop-color="#E2FF6E"/>
</linearGradient>
<linearGradient id="paint2_linear_333_18777" x1="375.887" y1="-1.55864" x2="375.887" y2="71.7851" gradientUnits="userSpaceOnUse">
<stop stop-color="#A7FFBB"/>
<stop offset="1" stop-color="#E2FF6E"/>
</linearGradient>
<linearGradient id="paint3_linear_333_18777" x1="375.887" y1="-1.55864" x2="375.887" y2="71.7851" gradientUnits="userSpaceOnUse">
<stop stop-color="#A7FFBB"/>
<stop offset="1" stop-color="#E2FF6E"/>
</linearGradient>
<linearGradient id="paint4_linear_333_18777" x1="375.887" y1="-1.55864" x2="375.887" y2="71.7851" gradientUnits="userSpaceOnUse">
<stop stop-color="#A7FFBB"/>
<stop offset="1" stop-color="#E2FF6E"/>
</linearGradient>
<linearGradient id="paint5_linear_333_18777" x1="375.887" y1="-1.55864" x2="375.887" y2="71.7851" gradientUnits="userSpaceOnUse">
<stop stop-color="#A7FFBB"/>
<stop offset="1" stop-color="#E2FF6E"/>
</linearGradient>
<linearGradient id="paint6_linear_333_18777" x1="375.887" y1="-1.55864" x2="375.887" y2="71.7851" gradientUnits="userSpaceOnUse">
<stop stop-color="#A7FFBB"/>
<stop offset="1" stop-color="#E2FF6E"/>
</linearGradient>
<linearGradient id="paint7_linear_333_18777" x1="375.887" y1="-1.55864" x2="375.887" y2="71.7851" gradientUnits="userSpaceOnUse">
<stop stop-color="#A7FFBB"/>
<stop offset="1" stop-color="#E2FF6E"/>
</linearGradient>
<linearGradient id="paint8_linear_333_18777" x1="375.887" y1="-1.55864" x2="375.887" y2="71.7851" gradientUnits="userSpaceOnUse">
<stop stop-color="#A7FFBB"/>
<stop offset="1" stop-color="#E2FF6E"/>
</linearGradient>
<linearGradient id="paint9_linear_333_18777" x1="346.032" y1="6.30957" x2="346.032" y2="64.5189" gradientUnits="userSpaceOnUse">
<stop stop-color="#A7FFBB"/>
<stop offset="1" stop-color="#E2FF6E"/>
</linearGradient>
<linearGradient id="paint10_linear_333_18777" x1="346.032" y1="6.30957" x2="346.032" y2="64.5189" gradientUnits="userSpaceOnUse">
<stop stop-color="#A7FFBB"/>
<stop offset="1" stop-color="#E2FF6E"/>
</linearGradient>
<linearGradient id="paint11_linear_333_18777" x1="346.032" y1="6.30957" x2="346.032" y2="64.5189" gradientUnits="userSpaceOnUse">
<stop stop-color="#A7FFBB"/>
<stop offset="1" stop-color="#E2FF6E"/>
</linearGradient>
<linearGradient id="paint12_linear_333_18777" x1="346.032" y1="6.30957" x2="346.032" y2="64.5189" gradientUnits="userSpaceOnUse">
<stop stop-color="#A7FFBB"/>
<stop offset="1" stop-color="#E2FF6E"/>
</linearGradient>
<linearGradient id="paint13_linear_333_18777" x1="346.032" y1="6.30957" x2="346.032" y2="64.5189" gradientUnits="userSpaceOnUse">
<stop stop-color="#A7FFBB"/>
<stop offset="1" stop-color="#E2FF6E"/>
</linearGradient>
<linearGradient id="paint14_linear_333_18777" x1="346.032" y1="6.30957" x2="346.032" y2="64.5189" gradientUnits="userSpaceOnUse">
<stop stop-color="#A7FFBB"/>
<stop offset="1" stop-color="#E2FF6E"/>
</linearGradient>
<linearGradient id="paint15_linear_333_18777" x1="346.032" y1="6.30957" x2="346.032" y2="64.5189" gradientUnits="userSpaceOnUse">
<stop stop-color="#A7FFBB"/>
<stop offset="1" stop-color="#E2FF6E"/>
</linearGradient>
<linearGradient id="paint16_linear_333_18777" x1="346.032" y1="6.30957" x2="346.032" y2="64.5189" gradientUnits="userSpaceOnUse">
<stop stop-color="#A7FFBB"/>
<stop offset="1" stop-color="#E2FF6E"/>
</linearGradient>
<linearGradient id="paint17_linear_333_18777" x1="346.032" y1="6.30957" x2="346.032" y2="64.5189" gradientUnits="userSpaceOnUse">
<stop stop-color="#A7FFBB"/>
<stop offset="1" stop-color="#E2FF6E"/>
</linearGradient>
<linearGradient id="paint18_linear_333_18777" x1="346.032" y1="6.30957" x2="346.032" y2="64.5189" gradientUnits="userSpaceOnUse">
<stop stop-color="#A7FFBB"/>
<stop offset="1" stop-color="#E2FF6E"/>
</linearGradient>
<linearGradient id="paint19_linear_333_18777" x1="346.032" y1="6.30957" x2="346.032" y2="64.5189" gradientUnits="userSpaceOnUse">
<stop stop-color="#A7FFBB"/>
<stop offset="1" stop-color="#E2FF6E"/>
</linearGradient>
<linearGradient id="paint20_linear_333_18777" x1="69.4943" y1="68.0491" x2="447.341" y2="68.0491" gradientUnits="userSpaceOnUse">
<stop stop-color="#A7FFBB"/>
<stop offset="1" stop-color="#E2FF6E"/>
</linearGradient>
</defs>
</svg>
