<svg width="1058" height="251" viewBox="0 0 1058 251" fill="none" xmlns="http://www.w3.org/2000/svg">
<path d="M1.60547 242V188.875H8.33464V235.979H26.7513V242H1.60547Z" fill="white"/>
<path d="M64.0845 243.062C60.2674 243.062 56.6667 242.354 53.2824 240.937C49.9375 239.481 46.9861 237.494 44.4283 234.976C41.9098 232.457 39.9225 229.525 38.4665 226.181C37.0498 222.836 36.3415 219.255 36.3415 215.437C36.3415 211.62 37.0498 208.039 38.4665 204.694C39.9225 201.35 41.9098 198.418 44.4283 195.899C46.9861 193.381 49.9375 191.413 53.2824 189.997C56.6667 188.541 60.2674 187.812 64.0845 187.812C67.941 187.812 71.5417 188.541 74.8866 189.997C78.2315 191.413 81.1632 193.381 83.6817 195.899C86.2396 198.418 88.2269 201.35 89.6436 204.694C91.0996 208.039 91.8276 211.62 91.8276 215.437C91.8276 219.255 91.0996 222.836 89.6436 226.181C88.2269 229.525 86.2396 232.457 83.6817 234.976C81.1632 237.494 78.2315 239.481 74.8866 240.937C71.5417 242.354 67.941 243.062 64.0845 243.062ZM64.0845 236.687C67.9804 236.687 71.5023 235.743 74.6505 233.854C77.7986 231.926 80.2778 229.348 82.088 226.122C83.9375 222.895 84.8623 219.333 84.8623 215.437C84.8623 211.502 83.9375 207.941 82.088 204.753C80.2778 201.527 77.7986 198.969 74.6505 197.08C71.5023 195.152 67.9804 194.187 64.0845 194.187C60.1887 194.187 56.6667 195.152 53.5186 197.08C50.4098 198.969 47.9306 201.527 46.0811 204.753C44.2315 207.941 43.3068 211.502 43.3068 215.437C43.3068 219.333 44.2315 222.895 46.0811 226.122C47.9306 229.348 50.4098 231.926 53.5186 233.854C56.6667 235.743 60.1887 236.687 64.0845 236.687Z" fill="white"/>
<path d="M154.888 243.771L117.7 203.927V242H111.325V187.104L148.513 226.948V188.875H154.888V243.771Z" fill="white"/>
<path d="M178.263 242V188.875H195.676C200.477 188.875 204.648 189.662 208.19 191.236C211.771 192.81 214.722 194.896 217.044 197.493C219.366 200.09 221.097 202.963 222.238 206.111C223.38 209.22 223.95 212.329 223.95 215.437C223.95 218.546 223.38 221.675 222.238 224.823C221.097 227.932 219.366 230.785 217.044 233.382C214.722 235.979 211.771 238.065 208.19 239.639C204.648 241.213 200.477 242 195.676 242H178.263ZM184.992 235.979H194.968C199.06 235.979 202.503 235.35 205.297 234.09C208.091 232.792 210.354 231.119 212.086 229.073C213.817 226.987 215.057 224.744 215.804 222.344C216.591 219.943 216.985 217.641 216.985 215.437C216.985 213.234 216.591 210.932 215.804 208.531C215.057 206.131 213.817 203.907 212.086 201.861C210.354 199.775 208.091 198.103 205.297 196.844C202.503 195.545 199.06 194.896 194.968 194.896H184.992V235.979Z" fill="white"/>
<path d="M267.304 243.062C263.487 243.062 259.886 242.354 256.502 240.937C253.157 239.481 250.206 237.494 247.648 234.976C245.129 232.457 243.142 229.525 241.686 226.181C240.27 222.836 239.561 219.255 239.561 215.437C239.561 211.62 240.27 208.039 241.686 204.694C243.142 201.35 245.129 198.418 247.648 195.899C250.206 193.381 253.157 191.413 256.502 189.997C259.886 188.541 263.487 187.812 267.304 187.812C271.161 187.812 274.761 188.541 278.106 189.997C281.451 191.413 284.383 193.381 286.901 195.899C289.459 198.418 291.447 201.35 292.863 204.694C294.319 208.039 295.047 211.62 295.047 215.437C295.047 219.255 294.319 222.836 292.863 226.181C291.447 229.525 289.459 232.457 286.901 234.976C284.383 237.494 281.451 239.481 278.106 240.937C274.761 242.354 271.161 243.062 267.304 243.062ZM267.304 236.687C271.2 236.687 274.722 235.743 277.87 233.854C281.018 231.926 283.498 229.348 285.308 226.122C287.157 222.895 288.082 219.333 288.082 215.437C288.082 211.502 287.157 207.941 285.308 204.753C283.498 201.527 281.018 198.969 277.87 197.08C274.722 195.152 271.2 194.187 267.304 194.187C263.408 194.187 259.886 195.152 256.738 197.08C253.629 198.969 251.15 201.527 249.301 204.753C247.451 207.941 246.526 211.502 246.526 215.437C246.526 219.333 247.451 222.895 249.301 226.122C251.15 229.348 253.629 231.926 256.738 233.854C259.886 235.743 263.408 236.687 267.304 236.687Z" fill="white"/>
<path d="M358.107 243.771L320.92 203.927V242H314.545V187.104L351.732 226.948V188.875H358.107V243.771Z" fill="white"/>
<path d="M414.392 224.646C411.874 224.646 409.709 223.741 407.899 221.931C406.089 220.12 405.184 217.956 405.184 215.437C405.184 212.88 406.089 210.715 407.899 208.944C409.709 207.134 411.874 206.229 414.392 206.229C416.95 206.229 419.114 207.134 420.885 208.944C422.695 210.715 423.601 212.88 423.601 215.437C423.601 217.956 422.695 220.12 420.885 221.931C419.114 223.741 416.95 224.646 414.392 224.646Z" fill="white"/>
<path d="M470.649 242V187.104L495.323 221.104L519.524 187.104V242H512.795V217.444C512.795 215.831 512.815 214.08 512.854 212.191C512.894 210.263 513.031 208.079 513.267 205.639C512.048 207.803 510.847 209.712 509.667 211.365C508.526 212.978 507.483 214.473 506.538 215.851L495.087 232.083L483.281 215.851C482.298 214.473 481.235 212.978 480.094 211.365C478.992 209.712 477.811 207.803 476.552 205.639C476.788 208.079 476.926 210.263 476.965 212.191C477.005 214.08 477.024 215.831 477.024 217.444V242H470.649Z" fill="white"/>
<path d="M536.524 242L559.014 187.104H559.132L581.622 242H574.479L568.222 226.24H549.629L543.313 242H536.524ZM551.872 220.632H565.979L561.788 210.125C561.277 208.787 560.785 207.469 560.313 206.17C559.84 204.872 559.368 203.317 558.896 201.507C558.424 203.317 557.971 204.872 557.538 206.17C557.105 207.429 556.614 208.748 556.063 210.125L551.872 220.632Z" fill="white"/>
<path d="M598.808 242V188.875H612.148C615.493 188.875 618.366 189.544 620.766 190.882C623.167 192.22 625.016 193.991 626.315 196.194C627.653 198.359 628.322 200.74 628.322 203.337C628.322 206.249 627.495 208.866 625.843 211.187C624.19 213.509 621.927 215.221 619.054 216.323L636.881 242H629.03L612.148 217.562H605.537V242H598.808ZM605.537 211.896H612.148C614.431 211.896 616.28 211.483 617.697 210.656C619.153 209.791 620.215 208.708 620.884 207.41C621.593 206.072 621.947 204.714 621.947 203.337C621.947 200.858 621.042 198.831 619.232 197.257C617.461 195.683 615.1 194.896 612.148 194.896H605.537V211.896Z" fill="white"/>
<path d="M692.131 242.708C688.747 242.708 685.638 241.921 682.804 240.347C680.01 238.773 677.807 236.609 676.193 233.854L680.089 226.122C680.522 229.152 681.86 231.67 684.103 233.677C686.385 235.684 689.061 236.687 692.131 236.687C694.374 236.687 696.401 236.156 698.211 235.094C700.06 233.992 701.516 232.536 702.579 230.726C703.641 228.916 704.173 226.889 704.173 224.646C704.173 222.442 703.622 220.435 702.52 218.625C701.457 216.775 700.021 215.319 698.211 214.257C696.401 213.155 694.374 212.604 692.131 212.604C691.029 212.604 689.986 212.742 689.002 213.017C688.058 213.293 687.192 213.647 686.405 214.08L696.499 194.542H680.089V188.875H706.298L696.322 207.469C698.958 207.98 701.339 209.043 703.464 210.656C705.629 212.27 707.34 214.277 708.6 216.677C709.898 219.038 710.548 221.694 710.548 224.646C710.548 228.03 709.721 231.1 708.068 233.854C706.416 236.569 704.192 238.734 701.398 240.347C698.604 241.921 695.515 242.708 692.131 242.708Z" fill="white"/>
<path d="M726.457 218.271V212.604H744.166V218.271H726.457Z" fill="white"/>
<path d="M774.624 242.708C771.24 242.708 768.131 241.921 765.298 240.347C762.504 238.773 760.3 236.609 758.687 233.854L762.582 226.122C763.015 229.152 764.353 231.67 766.596 233.677C768.879 235.684 771.555 236.687 774.624 236.687C776.828 236.687 778.835 236.156 780.645 235.094C782.494 233.992 783.95 232.536 785.013 230.726C786.115 228.916 786.666 226.909 786.666 224.705C786.666 222.501 786.115 220.494 785.013 218.684C783.911 216.874 782.435 215.437 780.586 214.375C778.776 213.273 776.729 212.722 774.447 212.722C772.479 212.722 770.63 213.175 768.898 214.08C767.206 214.946 765.809 216.126 764.707 217.622V188.875H788.673V194.896H770.492V208C771.279 207.646 772.086 207.41 772.912 207.292C773.778 207.134 774.604 207.056 775.391 207.056C778.579 207.056 781.511 207.823 784.187 209.358C786.862 210.892 789.007 212.998 790.621 215.674C792.234 218.31 793.041 221.321 793.041 224.705C793.041 228.089 792.195 231.139 790.503 233.854C788.81 236.569 786.567 238.734 783.773 240.347C781.019 241.921 777.969 242.708 774.624 242.708Z" fill="white"/>
<path d="M807.534 250.854C809.305 248.65 810.721 246.093 811.784 243.181C812.886 240.269 813.437 236.924 813.437 233.146H819.812C819.812 236.491 819.339 239.639 818.395 242.59C817.49 245.581 816.231 248.336 814.617 250.854H807.534Z" fill="white"/>
<path d="M864.822 242L886.131 210.302C887.115 208.807 887.784 207.508 888.138 206.406C888.532 205.304 888.728 204.281 888.728 203.337C888.728 200.779 887.823 198.615 886.013 196.844C884.203 195.073 881.999 194.187 879.402 194.187C876.805 194.187 874.601 195.073 872.791 196.844C871.02 198.615 870.135 200.779 870.135 203.337C870.135 206.17 871.335 208.551 873.735 210.479H865.649C864.389 208.079 863.76 205.698 863.76 203.337C863.76 200.464 864.468 197.887 865.885 195.604C867.301 193.322 869.19 191.512 871.551 190.174C873.952 188.836 876.588 188.167 879.461 188.167C882.334 188.167 884.951 188.836 887.312 190.174C889.673 191.512 891.562 193.322 892.978 195.604C894.395 197.887 895.103 200.464 895.103 203.337C895.103 205.029 894.828 206.701 894.277 208.354C893.726 209.968 892.762 211.758 891.385 213.726L876.037 235.979H896.107V242H864.822Z" fill="white"/>
<path d="M932.676 242.708C929.568 242.708 926.852 241.941 924.531 240.406C922.209 238.832 920.261 236.747 918.687 234.149C917.152 231.513 915.991 228.581 915.204 225.354C914.457 222.088 914.083 218.782 914.083 215.437C914.083 212.093 914.457 208.807 915.204 205.58C915.991 202.314 917.152 199.382 918.687 196.785C920.261 194.148 922.209 192.062 924.531 190.528C926.852 188.954 929.568 188.167 932.676 188.167C935.785 188.167 938.5 188.954 940.822 190.528C943.144 192.062 945.072 194.148 946.607 196.785C948.181 199.382 949.342 202.314 950.09 205.58C950.877 208.807 951.27 212.093 951.27 215.437C951.27 218.782 950.877 222.088 950.09 225.354C949.342 228.581 948.181 231.513 946.607 234.149C945.072 236.747 943.144 238.832 940.822 240.406C938.5 241.941 935.785 242.708 932.676 242.708ZM932.676 236.687C934.762 236.687 936.553 236.058 938.048 234.799C939.543 233.539 940.763 231.867 941.708 229.781C942.652 227.696 943.36 225.413 943.833 222.934C944.305 220.416 944.541 217.917 944.541 215.437C944.541 212.958 944.305 210.479 943.833 208C943.36 205.481 942.652 203.179 941.708 201.094C940.763 199.008 939.543 197.336 938.048 196.076C936.553 194.817 934.762 194.187 932.676 194.187C930.63 194.187 928.84 194.817 927.305 196.076C925.81 197.336 924.59 199.008 923.645 201.094C922.701 203.179 921.992 205.481 921.52 208C921.048 210.479 920.812 212.958 920.812 215.437C920.812 217.917 921.048 220.416 921.52 222.934C921.992 225.413 922.701 227.696 923.645 229.781C924.59 231.867 925.81 233.539 927.305 234.799C928.84 236.058 930.63 236.687 932.676 236.687Z" fill="white"/>
<path d="M970.308 242L991.617 210.302C992.601 208.807 993.27 207.508 993.624 206.406C994.018 205.304 994.215 204.281 994.215 203.337C994.215 200.779 993.31 198.615 991.499 196.844C989.689 195.073 987.486 194.187 984.888 194.187C982.291 194.187 980.087 195.073 978.277 196.844C976.506 198.615 975.621 200.779 975.621 203.337C975.621 206.17 976.821 208.551 979.222 210.479H971.135C969.876 208.079 969.246 205.698 969.246 203.337C969.246 200.464 969.954 197.887 971.371 195.604C972.788 193.322 974.677 191.512 977.038 190.174C979.438 188.836 982.075 188.167 984.947 188.167C987.82 188.167 990.437 188.836 992.798 190.174C995.159 191.512 997.048 193.322 998.465 195.604C999.881 197.887 1000.59 200.464 1000.59 203.337C1000.59 205.029 1000.31 206.701 999.763 208.354C999.212 209.968 998.248 211.758 996.871 213.726L981.524 235.979H1001.59V242H970.308Z" fill="white"/>
<path d="M1036.21 242.708C1032.83 242.708 1029.72 241.921 1026.89 240.347C1024.09 238.773 1021.89 236.609 1020.28 233.854L1024.17 226.122C1024.61 229.152 1025.94 231.67 1028.19 233.677C1030.47 235.684 1033.15 236.687 1036.21 236.687C1038.42 236.687 1040.43 236.156 1042.24 235.094C1044.09 233.992 1045.54 232.536 1046.6 230.726C1047.71 228.916 1048.26 226.909 1048.26 224.705C1048.26 222.501 1047.71 220.494 1046.6 218.684C1045.5 216.874 1044.03 215.437 1042.18 214.375C1040.37 213.273 1038.32 212.722 1036.04 212.722C1034.07 212.722 1032.22 213.175 1030.49 214.08C1028.8 214.946 1027.4 216.126 1026.3 217.622V188.875H1050.26V194.896H1032.08V208C1032.87 207.646 1033.68 207.41 1034.5 207.292C1035.37 207.134 1036.2 207.056 1036.98 207.056C1040.17 207.056 1043.1 207.823 1045.78 209.358C1048.45 210.892 1050.6 212.998 1052.21 215.674C1053.82 218.31 1054.63 221.321 1054.63 224.705C1054.63 228.089 1053.79 231.139 1052.09 233.854C1050.4 236.569 1048.16 238.734 1045.36 240.347C1042.61 241.921 1039.56 242.708 1036.21 242.708Z" fill="white"/>
<rect x="0.167969" y="157" width="1057" height="7" fill="url(#paint0_linear_93_3115)"/>
<path d="M490.302 66.4704V0.744324L519.797 41.4521L548.728 0.744324V66.4704H540.683V37.0704C540.683 35.1386 540.707 33.042 540.754 30.7805C540.801 28.4718 540.966 25.8569 541.248 22.9357C539.79 25.5271 538.355 27.8122 536.944 29.791C535.579 31.7228 534.333 33.5132 533.204 35.1622L519.515 54.5973L505.402 35.1622C504.226 33.5132 502.956 31.7228 501.592 29.791C500.274 27.8122 498.863 25.5271 497.358 22.9357C497.64 25.8569 497.805 28.4718 497.852 30.7805C497.899 33.042 497.922 35.1386 497.922 37.0704V66.4704H490.302Z" fill="url(#paint1_linear_93_3115)"/>
<path d="M604.162 67.7426C599.599 67.7426 595.294 66.8945 591.249 65.1983C587.25 63.4551 583.722 61.0757 580.664 58.0603C577.654 55.0449 575.278 51.5348 573.538 47.53C571.844 43.5252 570.997 39.2377 570.997 34.6675C570.997 30.0973 571.844 25.8098 573.538 21.805C575.278 17.8001 577.654 14.29 580.664 11.2746C583.722 8.25925 587.25 5.90347 591.249 4.20732C595.294 2.46404 599.599 1.59241 604.162 1.59241C608.772 1.59241 613.076 2.46404 617.075 4.20732C621.073 5.90347 624.578 8.25925 627.589 11.2746C630.646 14.29 633.022 17.8001 634.716 21.805C636.456 25.8098 637.326 30.0973 637.326 34.6675C637.326 39.2377 636.456 43.5252 634.716 47.53C633.022 51.5348 630.646 55.0449 627.589 58.0603C624.578 61.0757 621.073 63.4551 617.075 65.1983C613.076 66.8945 608.772 67.7426 604.162 67.7426ZM604.162 60.1098C608.819 60.1098 613.029 58.9791 616.793 56.7175C620.556 54.4089 623.52 51.3228 625.684 47.4593C627.895 43.5959 629 39.3319 629 34.6675C629 29.9559 627.895 25.692 625.684 21.8756C623.52 18.0122 620.556 14.9496 616.793 12.6881C613.029 10.3794 608.819 9.22512 604.162 9.22512C599.505 9.22512 595.294 10.3794 591.531 12.6881C587.815 14.9496 584.851 18.0122 582.64 21.8756C580.429 25.692 579.324 29.9559 579.324 34.6675C579.324 39.3319 580.429 43.5959 582.64 47.4593C584.851 51.3228 587.815 54.4089 591.531 56.7175C595.294 58.9791 599.505 60.1098 604.162 60.1098Z" fill="url(#paint2_linear_93_3115)"/>
<path d="M659.618 66.4704V2.86452H680.434C686.173 2.86452 691.16 3.80684 695.394 5.69146C699.674 7.57607 703.202 10.0732 705.978 13.1828C708.753 16.2924 710.823 19.7319 712.187 23.5011C713.552 27.2232 714.234 30.9454 714.234 34.6675C714.234 38.3896 713.552 42.1353 712.187 45.9045C710.823 49.6267 708.753 53.0425 705.978 56.1521C703.202 59.2618 699.674 61.7589 695.394 63.6435C691.16 65.5281 686.173 66.4704 680.434 66.4704H659.618ZM667.662 59.2618H679.587C684.48 59.2618 688.596 58.5079 691.936 57.0002C695.276 55.4454 697.981 53.443 700.051 50.993C702.12 48.4959 703.602 45.8103 704.496 42.9362C705.437 40.0622 705.907 37.306 705.907 34.6675C705.907 32.029 705.437 29.2728 704.496 26.3987C703.602 23.5247 702.12 20.8626 700.051 18.4126C697.981 15.9155 695.276 13.9131 691.936 12.4054C688.596 10.8506 684.48 10.0732 679.587 10.0732H667.662V59.2618Z" fill="url(#paint3_linear_93_3115)"/>
<path d="M736.537 66.4704V2.86452H767.866V10.0732H744.581V23.6425H762.927V30.8511H744.581V59.2618H767.866V66.4704H736.537Z" fill="url(#paint4_linear_93_3115)"/>
<path d="M790.348 66.4704V2.86452H806.295C810.294 2.86452 813.728 3.66549 816.597 5.26741C819.467 6.86934 821.678 8.98954 823.23 11.628C824.829 14.2194 825.629 17.0698 825.629 20.1795C825.629 23.666 824.641 26.7992 822.666 29.579C820.69 32.3588 817.985 34.4083 814.551 35.7276L835.861 66.4704H826.476L806.295 37.2117H798.392V66.4704H790.348ZM798.392 30.4271H806.295C809.023 30.4271 811.234 29.9324 812.928 28.9429C814.668 27.9064 815.939 26.6107 816.738 25.0559C817.585 23.454 818.008 21.8285 818.008 20.1795C818.008 17.2112 816.926 14.7847 814.763 12.9001C812.646 11.0155 809.823 10.0732 806.295 10.0732H798.392V30.4271Z" fill="url(#paint5_linear_93_3115)"/>
<path d="M906.429 68.5906L861.974 20.8862V66.4704H854.353V0.744324L898.808 48.4488V2.86452H906.429V68.5906Z" fill="url(#paint6_linear_93_3115)"/>
<path d="M934.202 66.4704V2.86452H942.246V66.4704H934.202Z" fill="url(#paint7_linear_93_3115)"/>
<path d="M983.676 67.3185C979.913 67.3185 976.502 66.5647 973.444 65.057C970.434 63.5493 968.035 61.7118 966.247 59.5445L968.576 49.7916C969.893 52.43 971.868 54.8094 974.503 56.9296C977.137 59.0498 980.289 60.1098 983.958 60.1098C987.298 60.1098 990.05 59.0498 992.214 56.9296C994.425 54.8094 995.531 52.1944 995.531 49.0848C995.531 46.8233 994.99 44.9622 993.908 43.5016C992.826 42.0411 991.603 40.8867 990.238 40.0386C988.874 39.1906 987.792 38.5781 986.992 38.2011L979.231 34.2434C978.007 33.5838 976.479 32.6651 974.644 31.4872C972.856 30.3093 971.28 28.6838 969.916 26.6107C968.552 24.5377 967.87 21.8521 967.87 18.554C967.87 15.3501 968.599 12.4996 970.057 10.0025C971.563 7.5054 973.633 5.55011 976.267 4.13664C978.948 2.72318 982.006 2.01645 985.44 2.01645C988.827 2.01645 991.814 2.62895 994.402 3.85395C996.989 5.03184 999.012 6.25684 1000.47 7.52895L998.141 17.2819C996.965 15.303 995.225 13.442 992.92 11.6987C990.615 9.9554 988.004 9.08377 985.087 9.08377C982.265 9.08377 980.007 9.93185 978.313 11.628C976.62 13.277 975.773 15.3266 975.773 17.7766C975.773 19.6612 976.196 21.216 977.043 22.441C977.937 23.666 978.925 24.6319 980.007 25.3386C981.136 26.0453 982.053 26.5872 982.759 26.9641L990.662 30.9218C991.603 31.393 992.779 32.0526 994.19 32.9007C995.648 33.7487 997.083 34.8795 998.494 36.293C999.905 37.6593 1001.08 39.3555 1002.02 41.3814C1002.96 43.3603 1003.43 45.7632 1003.43 48.5901C1003.43 52.218 1002.56 55.4454 1000.82 58.2723C999.129 61.0993 996.801 63.3137 993.837 64.9156C990.873 66.5176 987.486 67.3185 983.676 67.3185Z" fill="url(#paint8_linear_93_3115)"/>
<path d="M1025.67 66.4704V2.86452H1057V10.0732H1033.71V23.6425H1052.06V30.8511H1033.71V59.2618H1057V66.4704H1025.67Z" fill="url(#paint9_linear_93_3115)"/>
<path d="M484.067 81.104V75.4501H516.941V81.104H503.659V125.337H497.35V81.104H484.067Z" fill="url(#paint10_linear_93_3115)"/>
<path d="M533.769 125.337V75.4501H540.079V91.7465H557.788V75.4501H564.098V125.337H557.788V97.4004H540.079V125.337H533.769Z" fill="url(#paint11_linear_93_3115)"/>
<path d="M585.225 125.337V75.4501H609.798V81.104H591.534V91.7465H605.924V97.4004H591.534V119.683H609.798V125.337H585.225Z" fill="url(#paint12_linear_93_3115)"/>
<path d="M651.014 125.337V73.7872L674.147 105.715L696.838 73.7872V125.337H690.529V102.278C690.529 100.763 690.547 99.1187 690.584 97.3449C690.621 95.5342 690.75 93.4833 690.972 91.1922C689.828 93.2246 688.703 95.0169 687.596 96.5689C686.526 98.084 685.548 99.4882 684.663 100.782L673.926 116.025L662.857 100.782C661.935 99.4882 660.939 98.084 659.869 96.5689C658.836 95.0169 657.729 93.2246 656.548 91.1922C656.769 93.4833 656.899 95.5342 656.935 97.3449C656.972 99.1187 656.991 100.763 656.991 102.278V125.337H651.014Z" fill="url(#paint13_linear_93_3115)"/>
<path d="M740.316 126.335C736.737 126.335 733.361 125.67 730.188 124.339C727.052 122.972 724.285 121.106 721.887 118.741C719.525 116.376 717.662 113.623 716.297 110.482C714.969 107.341 714.305 103.978 714.305 100.394C714.305 96.8091 714.969 93.4464 716.297 90.3053C717.662 87.1643 719.525 84.4113 721.887 82.0463C724.285 79.6813 727.052 77.8336 730.188 76.5033C733.361 75.136 736.737 74.4524 740.316 74.4524C743.932 74.4524 747.308 75.136 750.444 76.5033C753.58 77.8336 756.329 79.6813 758.69 82.0463C761.088 84.4113 762.951 87.1643 764.28 90.3053C765.645 93.4464 766.327 96.8091 766.327 100.394C766.327 103.978 765.645 107.341 764.28 110.482C762.951 113.623 761.088 116.376 758.69 118.741C756.329 121.106 753.58 122.972 750.444 124.339C747.308 125.67 743.932 126.335 740.316 126.335ZM740.316 120.348C743.969 120.348 747.271 119.462 750.222 117.688C753.174 115.877 755.498 113.457 757.196 110.426C758.93 107.396 759.797 104.052 759.797 100.394C759.797 96.6983 758.93 93.354 757.196 90.3608C755.498 87.3306 753.174 84.9286 750.222 83.1549C747.271 81.3442 743.969 80.4388 740.316 80.4388C736.663 80.4388 733.361 81.3442 730.409 83.1549C727.495 84.9286 725.17 87.3306 723.436 90.3608C721.702 93.354 720.835 96.6983 720.835 100.394C720.835 104.052 721.702 107.396 723.436 110.426C725.17 113.457 727.495 115.877 730.409 117.688C733.361 119.462 736.663 120.348 740.316 120.348Z" fill="url(#paint14_linear_93_3115)"/>
<path d="M824.655 127L789.788 89.5847V125.337H783.811V73.7872L818.677 111.202V75.4501H824.655V127Z" fill="url(#paint15_linear_93_3115)"/>
<path d="M868.132 126.335C864.553 126.335 861.177 125.67 858.004 124.339C854.868 122.972 852.101 121.106 849.703 118.741C847.342 116.376 845.478 113.623 844.113 110.482C842.785 107.341 842.121 103.978 842.121 100.394C842.121 96.8091 842.785 93.4464 844.113 90.3053C845.478 87.1643 847.342 84.4113 849.703 82.0463C852.101 79.6813 854.868 77.8336 858.004 76.5033C861.177 75.136 864.553 74.4524 868.132 74.4524C871.748 74.4524 875.124 75.136 878.26 76.5033C881.396 77.8336 884.145 79.6813 886.506 82.0463C888.905 84.4113 890.768 87.1643 892.096 90.3053C893.461 93.4464 894.144 96.8091 894.144 100.394C894.144 103.978 893.461 107.341 892.096 110.482C890.768 113.623 888.905 116.376 886.506 118.741C884.145 121.106 881.396 122.972 878.26 124.339C875.124 125.67 871.748 126.335 868.132 126.335ZM868.132 120.348C871.785 120.348 875.087 119.462 878.039 117.688C880.99 115.877 883.315 113.457 885.012 110.426C886.746 107.396 887.613 104.052 887.613 100.394C887.613 96.6983 886.746 93.354 885.012 90.3608C883.315 87.3306 880.99 84.9286 878.039 83.1549C875.087 81.3442 871.785 80.4388 868.132 80.4388C864.48 80.4388 861.177 81.3442 858.226 83.1549C855.311 84.9286 852.987 87.3306 851.253 90.3608C849.518 93.354 848.651 96.6983 848.651 100.394C848.651 104.052 849.518 107.396 851.253 110.426C852.987 113.457 855.311 115.877 858.226 117.688C861.177 119.462 864.48 120.348 868.132 120.348Z" fill="url(#paint16_linear_93_3115)"/>
<path d="M911.627 125.337V75.4501H917.937V119.683H935.204V125.337H911.627Z" fill="url(#paint17_linear_93_3115)"/>
<path d="M952.696 125.337V75.4501H959.005V125.337H952.696Z" fill="url(#paint18_linear_93_3115)"/>
<path d="M976.446 81.104V75.4501H1009.32V81.104H996.037V125.337H989.728V81.104H976.446Z" fill="url(#paint19_linear_93_3115)"/>
<path d="M1026.15 125.337V75.4501H1032.46V91.7465H1050.17V75.4501H1056.48V125.337H1050.17V97.4004H1032.46V125.337H1026.15Z" fill="url(#paint20_linear_93_3115)"/>
<path d="M2 3.80505H48.8141C56.2058 6.26896 62.4828 10.8448 67.6453 17.5325C72.9251 24.1029 75.565 32.1985 75.565 41.8195C75.565 57.5415 69.3466 69.0984 56.9097 76.4901L74.685 127H50.046L35.0866 82.1218H25.759V127H2V3.80505ZM25.759 24.9242V62.4106H40.8944C42.889 61.9413 45.0596 59.9467 47.4061 56.4269C49.87 52.7897 51.102 48.5659 51.102 43.7554C51.102 38.9449 50.046 34.7211 47.9341 31.0839C45.9395 27.4467 43.9449 25.3935 41.9504 24.9242H25.759Z" fill="white"/>
<path d="M88.2777 127V3.80505H151.459V24.9242H112.389V54.315H147.235V74.7301H112.389V106.585H152.163V127H88.2777Z" fill="white"/>
<path d="M189.549 24.9242V68.9224H205.213C211.666 63.6426 214.892 55.8989 214.892 45.6913C214.892 41.3502 214.012 37.2437 212.252 33.3718C210.61 29.5 208.615 26.6841 206.268 24.9242H189.549ZM165.79 127V3.80505H213.484C221.463 7.32491 227.74 12.722 232.315 19.9964C237.009 27.2708 239.355 35.7771 239.355 45.5153C239.355 55.1363 236.95 64.0532 232.139 72.2662C227.329 80.4792 220.231 86.287 210.844 89.6895H189.549V127H165.79Z" fill="white"/>
<path d="M252.24 127V3.80505H276.351V106.585H312.957V127H252.24Z" fill="white"/>
<path d="M377.386 127L373.69 107.465H345.883L342.187 127H318.252L342.011 3.80505H378.442L400.969 127H377.386ZM359.434 26.6841L352.571 67.6904L348.699 88.6336H370.698L366.65 67.6904L359.786 26.6841H359.434Z" fill="white"/>
<path d="M445.746 127H420.052V85.9937L394.005 3.80505H417.94L428.851 41.2915L432.547 62.9386H433.251L436.947 41.2915L447.858 3.80505H471.793L445.746 85.9937V127Z" fill="white"/>
<defs>
<linearGradient id="paint0_linear_93_3115" x1="151.311" y1="157" x2="973.088" y2="157" gradientUnits="userSpaceOnUse">
<stop stop-color="#A7FFBB"/>
<stop offset="1" stop-color="#E2FF6E"/>
</linearGradient>
<linearGradient id="paint1_linear_93_3115" x1="734.443" y1="-2.45399" x2="734.443" y2="134.115" gradientUnits="userSpaceOnUse">
<stop stop-color="#A7FFBB"/>
<stop offset="1" stop-color="#E2FF6E"/>
</linearGradient>
<linearGradient id="paint2_linear_93_3115" x1="734.443" y1="-2.45399" x2="734.443" y2="134.115" gradientUnits="userSpaceOnUse">
<stop stop-color="#A7FFBB"/>
<stop offset="1" stop-color="#E2FF6E"/>
</linearGradient>
<linearGradient id="paint3_linear_93_3115" x1="734.443" y1="-2.45399" x2="734.443" y2="134.115" gradientUnits="userSpaceOnUse">
<stop stop-color="#A7FFBB"/>
<stop offset="1" stop-color="#E2FF6E"/>
</linearGradient>
<linearGradient id="paint4_linear_93_3115" x1="734.443" y1="-2.45399" x2="734.443" y2="134.115" gradientUnits="userSpaceOnUse">
<stop stop-color="#A7FFBB"/>
<stop offset="1" stop-color="#E2FF6E"/>
</linearGradient>
<linearGradient id="paint5_linear_93_3115" x1="734.443" y1="-2.45399" x2="734.443" y2="134.115" gradientUnits="userSpaceOnUse">
<stop stop-color="#A7FFBB"/>
<stop offset="1" stop-color="#E2FF6E"/>
</linearGradient>
<linearGradient id="paint6_linear_93_3115" x1="734.443" y1="-2.45399" x2="734.443" y2="134.115" gradientUnits="userSpaceOnUse">
<stop stop-color="#A7FFBB"/>
<stop offset="1" stop-color="#E2FF6E"/>
</linearGradient>
<linearGradient id="paint7_linear_93_3115" x1="734.443" y1="-2.45399" x2="734.443" y2="134.115" gradientUnits="userSpaceOnUse">
<stop stop-color="#A7FFBB"/>
<stop offset="1" stop-color="#E2FF6E"/>
</linearGradient>
<linearGradient id="paint8_linear_93_3115" x1="734.443" y1="-2.45399" x2="734.443" y2="134.115" gradientUnits="userSpaceOnUse">
<stop stop-color="#A7FFBB"/>
<stop offset="1" stop-color="#E2FF6E"/>
</linearGradient>
<linearGradient id="paint9_linear_93_3115" x1="734.443" y1="-2.45399" x2="734.443" y2="134.115" gradientUnits="userSpaceOnUse">
<stop stop-color="#A7FFBB"/>
<stop offset="1" stop-color="#E2FF6E"/>
</linearGradient>
<linearGradient id="paint10_linear_93_3115" x1="734.443" y1="-2.45399" x2="734.443" y2="134.115" gradientUnits="userSpaceOnUse">
<stop stop-color="#A7FFBB"/>
<stop offset="1" stop-color="#E2FF6E"/>
</linearGradient>
<linearGradient id="paint11_linear_93_3115" x1="734.443" y1="-2.45399" x2="734.443" y2="134.115" gradientUnits="userSpaceOnUse">
<stop stop-color="#A7FFBB"/>
<stop offset="1" stop-color="#E2FF6E"/>
</linearGradient>
<linearGradient id="paint12_linear_93_3115" x1="734.443" y1="-2.45399" x2="734.443" y2="134.115" gradientUnits="userSpaceOnUse">
<stop stop-color="#A7FFBB"/>
<stop offset="1" stop-color="#E2FF6E"/>
</linearGradient>
<linearGradient id="paint13_linear_93_3115" x1="734.443" y1="-2.45399" x2="734.443" y2="134.115" gradientUnits="userSpaceOnUse">
<stop stop-color="#A7FFBB"/>
<stop offset="1" stop-color="#E2FF6E"/>
</linearGradient>
<linearGradient id="paint14_linear_93_3115" x1="734.443" y1="-2.45399" x2="734.443" y2="134.115" gradientUnits="userSpaceOnUse">
<stop stop-color="#A7FFBB"/>
<stop offset="1" stop-color="#E2FF6E"/>
</linearGradient>
<linearGradient id="paint15_linear_93_3115" x1="734.443" y1="-2.45399" x2="734.443" y2="134.115" gradientUnits="userSpaceOnUse">
<stop stop-color="#A7FFBB"/>
<stop offset="1" stop-color="#E2FF6E"/>
</linearGradient>
<linearGradient id="paint16_linear_93_3115" x1="734.443" y1="-2.45399" x2="734.443" y2="134.115" gradientUnits="userSpaceOnUse">
<stop stop-color="#A7FFBB"/>
<stop offset="1" stop-color="#E2FF6E"/>
</linearGradient>
<linearGradient id="paint17_linear_93_3115" x1="734.443" y1="-2.45399" x2="734.443" y2="134.115" gradientUnits="userSpaceOnUse">
<stop stop-color="#A7FFBB"/>
<stop offset="1" stop-color="#E2FF6E"/>
</linearGradient>
<linearGradient id="paint18_linear_93_3115" x1="734.443" y1="-2.45399" x2="734.443" y2="134.115" gradientUnits="userSpaceOnUse">
<stop stop-color="#A7FFBB"/>
<stop offset="1" stop-color="#E2FF6E"/>
</linearGradient>
<linearGradient id="paint19_linear_93_3115" x1="734.443" y1="-2.45399" x2="734.443" y2="134.115" gradientUnits="userSpaceOnUse">
<stop stop-color="#A7FFBB"/>
<stop offset="1" stop-color="#E2FF6E"/>
</linearGradient>
<linearGradient id="paint20_linear_93_3115" x1="734.443" y1="-2.45399" x2="734.443" y2="134.115" gradientUnits="userSpaceOnUse">
<stop stop-color="#A7FFBB"/>
<stop offset="1" stop-color="#E2FF6E"/>
</linearGradient>
</defs>
</svg>
