<svg width="343" height="83" viewBox="0 0 343 83" fill="none" xmlns="http://www.w3.org/2000/svg">
<path d="M170.361 21.2028V0.612305L179.312 13.3651L188.092 0.612305V21.2028H185.651V11.9924C185.651 11.3872 185.658 10.7304 185.672 10.0219C185.686 9.29867 185.736 8.47948 185.822 7.56435C185.379 8.37616 184.944 9.09203 184.516 9.71196C184.102 10.3171 183.723 10.878 183.381 11.3946L179.226 17.4832L174.943 11.3946C174.587 10.878 174.201 10.3171 173.787 9.71196C173.387 9.09203 172.959 8.37616 172.502 7.56435C172.588 8.47948 172.638 9.29867 172.652 10.0219C172.666 10.7304 172.674 11.3872 172.674 11.9924V21.2028H170.361Z" fill="url(#paint0_linear_396_3210)"/>
<path d="M204.915 21.6013C203.53 21.6013 202.224 21.3356 200.996 20.8042C199.783 20.2581 198.712 19.5127 197.784 18.5681C196.87 17.6234 196.149 16.5238 195.621 15.2692C195.107 14.0145 194.85 12.6714 194.85 11.2396C194.85 9.8079 195.107 8.46472 195.621 7.21011C196.149 5.95549 196.87 4.85586 197.784 3.91121C198.712 2.96655 199.783 2.22855 200.996 1.69718C202.224 1.15105 203.53 0.87799 204.915 0.87799C206.314 0.87799 207.62 1.15105 208.834 1.69718C210.047 2.22855 211.111 2.96655 212.024 3.91121C212.952 4.85586 213.673 5.95549 214.187 7.21011C214.716 8.46472 214.98 9.8079 214.98 11.2396C214.98 12.6714 214.716 14.0145 214.187 15.2692C213.673 16.5238 212.952 17.6234 212.024 18.5681C211.111 19.5127 210.047 20.2581 208.834 20.8042C207.62 21.3356 206.314 21.6013 204.915 21.6013ZM204.915 19.2101C206.328 19.2101 207.606 18.8559 208.748 18.1474C209.89 17.4242 210.79 16.4574 211.446 15.247C212.117 14.0367 212.453 12.7009 212.453 11.2396C212.453 9.76362 212.117 8.42782 211.446 7.23225C210.79 6.02191 209.89 5.0625 208.748 4.35401C207.606 3.63076 206.328 3.26914 204.915 3.26914C203.502 3.26914 202.224 3.63076 201.082 4.35401C199.954 5.0625 199.055 6.02191 198.384 7.23225C197.713 8.42782 197.377 9.76362 197.377 11.2396C197.377 12.7009 197.713 14.0367 198.384 15.247C199.055 16.4574 199.954 17.4242 201.082 18.1474C202.224 18.8559 203.502 19.2101 204.915 19.2101Z" fill="url(#paint1_linear_396_3210)"/>
<path d="M221.745 21.2028V1.27651H228.062C229.804 1.27651 231.317 1.57172 232.602 2.16213C233.901 2.75253 234.972 3.53482 235.814 4.50899C236.656 5.48317 237.284 6.56066 237.698 7.74147C238.112 8.90753 238.319 10.0736 238.319 11.2396C238.319 12.4057 238.112 13.5791 237.698 14.7599C237.284 15.926 236.656 16.9961 235.814 17.9703C234.972 18.9445 233.901 19.7267 232.602 20.3171C231.317 20.9076 229.804 21.2028 228.062 21.2028H221.745ZM224.186 18.9445H227.805C229.29 18.9445 230.539 18.7083 231.552 18.236C232.566 17.7489 233.387 17.1216 234.015 16.354C234.643 15.5717 235.093 14.7304 235.364 13.83C235.65 12.9297 235.792 12.0662 235.792 11.2396C235.792 10.4131 235.65 9.54959 235.364 8.64922C235.093 7.74885 234.643 6.9149 234.015 6.14737C233.387 5.36508 232.566 4.73778 231.552 4.26545C230.539 3.77836 229.29 3.53482 227.805 3.53482H224.186V18.9445Z" fill="url(#paint2_linear_396_3210)"/>
<path d="M245.088 21.2028V1.27651H254.596V3.53482H247.529V7.78575H253.097V10.0441H247.529V18.9445H254.596V21.2028H245.088Z" fill="url(#paint3_linear_396_3210)"/>
<path d="M261.418 21.2028V1.27651H266.258C267.471 1.27651 268.514 1.52744 269.384 2.02928C270.255 2.53113 270.926 3.19534 271.397 4.02191C271.883 4.83372 272.125 5.72671 272.125 6.70088C272.125 7.79313 271.826 8.77468 271.226 9.64554C270.626 10.5164 269.806 11.1585 268.763 11.5717L275.23 21.2028H272.382L266.258 12.0367H263.86V21.2028H261.418ZM263.86 9.91122H266.258C267.086 9.91122 267.757 9.75624 268.271 9.44627C268.799 9.12155 269.185 8.71564 269.427 8.22856C269.684 7.72671 269.813 7.21749 269.813 6.70088C269.813 5.77099 269.484 5.01084 268.828 4.42043C268.185 3.83003 267.329 3.53482 266.258 3.53482H263.86V9.91122Z" fill="url(#paint4_linear_396_3210)"/>
<path d="M296.646 21.867L283.155 6.92228V21.2028H280.843V0.612305L294.334 15.557V1.27651H296.646V21.867Z" fill="url(#paint5_linear_396_3210)"/>
<path d="M305.075 21.2028V1.27651H307.516V21.2028H305.075Z" fill="url(#paint6_linear_396_3210)"/>
<path d="M314.136 21.2028L322.595 3.53482H315.035V1.27651H326.214L317.755 18.9445H325.828V21.2028H314.136Z" fill="url(#paint7_linear_396_3210)"/>
<path d="M332.833 21.2028V1.27651H342.341V3.53482H335.275V7.78575H340.842V10.0441H335.275V18.9445H342.341V21.2028H332.833Z" fill="url(#paint8_linear_396_3210)"/>
<path d="M168.742 29.922V28.1297H178.693V29.922H174.672V43.9442H172.762V29.922H168.742Z" fill="url(#paint9_linear_396_3210)"/>
<path d="M183.787 43.9442V28.1297H185.697V33.2958H191.058V28.1297H192.968V43.9442H191.058V35.0881H185.697V43.9442H183.787Z" fill="url(#paint10_linear_396_3210)"/>
<path d="M199.364 43.9442V28.1297H206.802V29.922H201.274V33.2958H205.629V35.0881H201.274V42.1519H206.802V43.9442H199.364Z" fill="url(#paint11_linear_396_3210)"/>
<path d="M219.279 43.9442V27.6025L226.282 37.7238L233.15 27.6025V43.9442H231.241V36.6344C231.241 36.1541 231.246 35.6328 231.257 35.0705C231.268 34.4965 231.308 33.8463 231.375 33.12C231.028 33.7643 230.688 34.3325 230.353 34.8245C230.029 35.3048 229.733 35.7499 229.465 36.1599L226.215 40.9921L222.864 36.1599C222.585 35.7499 222.283 35.3048 221.959 34.8245C221.647 34.3325 221.311 33.7643 220.954 33.12C221.021 33.8463 221.06 34.4965 221.071 35.0705C221.083 35.6328 221.088 36.1541 221.088 36.6344V43.9442H219.279Z" fill="url(#paint12_linear_396_3210)"/>
<path d="M246.312 44.2605C245.228 44.2605 244.206 44.0496 243.246 43.6279C242.297 43.1944 241.459 42.6029 240.733 41.8531C240.018 41.1034 239.454 40.2307 239.041 39.235C238.639 38.2392 238.438 37.1732 238.438 36.0369C238.438 34.9006 238.639 33.8346 239.041 32.8389C239.454 31.8432 240.018 30.9704 240.733 30.2207C241.459 29.471 242.297 28.8853 243.246 28.4635C244.206 28.0301 245.228 27.8134 246.312 27.8134C247.406 27.8134 248.428 28.0301 249.378 28.4635C250.327 28.8853 251.159 29.471 251.874 30.2207C252.6 30.9704 253.164 31.8432 253.566 32.8389C253.979 33.8346 254.186 34.9006 254.186 36.0369C254.186 37.1732 253.979 38.2392 253.566 39.235C253.164 40.2307 252.6 41.1034 251.874 41.8531C251.159 42.6029 250.327 43.1944 249.378 43.6279C248.428 44.0496 247.406 44.2605 246.312 44.2605ZM246.312 42.3627C247.417 42.3627 248.417 42.0816 249.311 41.5193C250.204 40.9453 250.908 40.178 251.421 39.2174C251.946 38.2568 252.209 37.1967 252.209 36.0369C252.209 34.8655 251.946 33.8053 251.421 32.8565C250.908 31.8959 250.204 31.1344 249.311 30.5721C248.417 29.9981 247.417 29.7111 246.312 29.7111C245.206 29.7111 244.206 29.9981 243.313 30.5721C242.431 31.1344 241.727 31.8959 241.202 32.8565C240.677 33.8053 240.415 34.8655 240.415 36.0369C240.415 37.1967 240.677 38.2568 241.202 39.2174C241.727 40.178 242.431 40.9453 243.313 41.5193C244.206 42.0816 245.206 42.3627 246.312 42.3627Z" fill="url(#paint13_linear_396_3210)"/>
<path d="M271.842 44.4713L261.288 32.6105V43.9442H259.478V27.6025L270.033 39.4634V28.1297H271.842V44.4713Z" fill="url(#paint14_linear_396_3210)"/>
<path d="M285.004 44.2605C283.92 44.2605 282.898 44.0496 281.938 43.6279C280.988 43.1944 280.151 42.6029 279.425 41.8531C278.71 41.1034 278.146 40.2307 277.733 39.235C277.331 38.2392 277.13 37.1732 277.13 36.0369C277.13 34.9006 277.331 33.8346 277.733 32.8389C278.146 31.8432 278.71 30.9704 279.425 30.2207C280.151 29.471 280.988 28.8853 281.938 28.4635C282.898 28.0301 283.92 27.8134 285.004 27.8134C286.098 27.8134 287.12 28.0301 288.069 28.4635C289.019 28.8853 289.851 29.471 290.566 30.2207C291.292 30.9704 291.856 31.8432 292.258 32.8389C292.671 33.8346 292.878 34.9006 292.878 36.0369C292.878 37.1732 292.671 38.2392 292.258 39.235C291.856 40.2307 291.292 41.1034 290.566 41.8531C289.851 42.6029 289.019 43.1944 288.069 43.6279C287.12 44.0496 286.098 44.2605 285.004 44.2605ZM285.004 42.3627C286.109 42.3627 287.109 42.0816 288.002 41.5193C288.896 40.9453 289.599 40.178 290.113 39.2174C290.638 38.2568 290.901 37.1967 290.901 36.0369C290.901 34.8655 290.638 33.8053 290.113 32.8565C289.599 31.8959 288.896 31.1344 288.002 30.5721C287.109 29.9981 286.109 29.7111 285.004 29.7111C283.898 29.7111 282.898 29.9981 282.005 30.5721C281.122 31.1344 280.419 31.8959 279.894 32.8565C279.369 33.8053 279.106 34.8655 279.106 36.0369C279.106 37.1967 279.369 38.2568 279.894 39.2174C280.419 40.178 281.122 40.9453 282.005 41.5193C282.898 42.0816 283.898 42.3627 285.004 42.3627Z" fill="url(#paint15_linear_396_3210)"/>
<path d="M298.17 43.9442V28.1297H300.08V42.1519H305.307V43.9442H298.17Z" fill="url(#paint16_linear_396_3210)"/>
<path d="M310.602 43.9442V28.1297H312.512V43.9442H310.602Z" fill="url(#paint17_linear_396_3210)"/>
<path d="M317.791 29.922V28.1297H327.743V29.922H323.722V43.9442H321.812V29.922H317.791Z" fill="url(#paint18_linear_396_3210)"/>
<path d="M332.837 43.9442V28.1297H334.747V33.2958H340.108V28.1297H342.018V43.9442H340.108V35.0881H334.747V43.9442H332.837Z" fill="url(#paint19_linear_396_3210)"/>
<path d="M0.46582 79.2207V61.2976H2.64527V77.1894H8.61007V79.2207H0.46582Z" fill="white"/>
<path d="M20.7016 79.5792C19.4653 79.5792 18.2991 79.3402 17.203 78.8622C16.1196 78.371 15.1637 77.7006 14.3353 76.8509C13.5196 76.0012 12.876 75.0121 12.4044 73.8836C11.9456 72.7551 11.7161 71.547 11.7161 70.2592C11.7161 68.9714 11.9456 67.7632 12.4044 66.6347C12.876 65.5062 13.5196 64.5171 14.3353 63.6675C15.1637 62.8178 16.1196 62.154 17.203 61.676C18.2991 61.1848 19.4653 60.9392 20.7016 60.9392C21.9506 60.9392 23.1168 61.1848 24.2002 61.676C25.2835 62.154 26.233 62.8178 27.0487 63.6675C27.8772 64.5171 28.5208 65.5062 28.9796 66.6347C29.4512 67.7632 29.687 68.9714 29.687 70.2592C29.687 71.547 29.4512 72.7551 28.9796 73.8836C28.5208 75.0121 27.8772 76.0012 27.0487 76.8509C26.233 77.7006 25.2835 78.371 24.2002 78.8622C23.1168 79.3402 21.9506 79.5792 20.7016 79.5792ZM20.7016 77.4284C21.9634 77.4284 23.1041 77.1098 24.1237 76.4725C25.1433 75.822 25.9463 74.9524 26.5325 73.8637C27.1316 72.775 27.4311 71.5735 27.4311 70.2592C27.4311 68.9315 27.1316 67.73 26.5325 66.6546C25.9463 65.566 25.1433 64.703 24.1237 64.0658C23.1041 63.4152 21.9634 63.0899 20.7016 63.0899C19.4398 63.0899 18.2991 63.4152 17.2795 64.0658C16.2726 64.703 15.4696 65.566 14.8706 66.6546C14.2716 67.73 13.9721 68.9315 13.9721 70.2592C13.9721 71.5735 14.2716 72.775 14.8706 73.8637C15.4696 74.9524 16.2726 75.822 17.2795 76.4725C18.2991 77.1098 19.4398 77.4284 20.7016 77.4284Z" fill="white"/>
<path d="M50.1109 79.8181L38.0666 66.3758V79.2207H36.0019V60.7002L48.0462 74.1425V61.2976H50.1109V79.8181Z" fill="white"/>
<path d="M57.6817 79.2207V61.2976H63.3214C64.8764 61.2976 66.2274 61.5632 67.3745 62.0942C68.5343 62.6253 69.4902 63.3289 70.2421 64.2052C70.9941 65.0814 71.5549 66.0506 71.9245 67.1127C72.2941 68.1615 72.479 69.2103 72.479 70.2592C72.479 71.308 72.2941 72.3635 71.9245 73.4256C71.5549 74.4744 70.9941 75.4369 70.2421 76.3132C69.4902 77.1894 68.5343 77.8931 67.3745 78.4241C66.2274 78.9552 64.8764 79.2207 63.3214 79.2207H57.6817ZM59.8611 77.1894H63.092C64.4175 77.1894 65.5328 76.977 66.4377 76.5522C67.3426 76.114 68.0754 75.5498 68.6362 74.8594C69.197 74.1558 69.5985 73.399 69.8407 72.5892C70.0956 71.7793 70.223 71.0026 70.223 70.2592C70.223 69.5157 70.0956 68.739 69.8407 67.9292C69.5985 67.1193 69.197 66.3692 68.6362 65.6788C68.0754 64.9752 67.3426 64.4109 66.4377 63.9861C65.5328 63.548 64.4175 63.3289 63.092 63.3289H59.8611V77.1894Z" fill="white"/>
<path d="M86.5205 79.5792C85.2842 79.5792 84.118 79.3402 83.0219 78.8622C81.9385 78.371 80.9827 77.7006 80.1542 76.8509C79.3385 76.0012 78.6949 75.0121 78.2233 73.8836C77.7645 72.7551 77.535 71.547 77.535 70.2592C77.535 68.9714 77.7645 67.7632 78.2233 66.6347C78.6949 65.5062 79.3385 64.5171 80.1542 63.6675C80.9827 62.8178 81.9385 62.154 83.0219 61.676C84.118 61.1848 85.2842 60.9392 86.5205 60.9392C87.7695 60.9392 88.9357 61.1848 90.0191 61.676C91.1024 62.154 92.0519 62.8178 92.8676 63.6675C93.6961 64.5171 94.3397 65.5062 94.7986 66.6347C95.2701 67.7632 95.5059 68.9714 95.5059 70.2592C95.5059 71.547 95.2701 72.7551 94.7986 73.8836C94.3397 75.0121 93.6961 76.0012 92.8676 76.8509C92.0519 77.7006 91.1024 78.371 90.0191 78.8622C88.9357 79.3402 87.7695 79.5792 86.5205 79.5792ZM86.5205 77.4284C87.7823 77.4284 88.923 77.1098 89.9426 76.4725C90.9622 75.822 91.7652 74.9524 92.3515 73.8637C92.9505 72.775 93.25 71.5735 93.25 70.2592C93.25 68.9315 92.9505 67.73 92.3515 66.6546C91.7652 65.566 90.9622 64.703 89.9426 64.0658C88.923 63.4152 87.7823 63.0899 86.5205 63.0899C85.2587 63.0899 84.118 63.4152 83.0984 64.0658C82.0915 64.703 81.2885 65.566 80.6895 66.6546C80.0905 67.73 79.791 68.9315 79.791 70.2592C79.791 71.5735 80.0905 72.775 80.6895 73.8637C81.2885 74.9524 82.0915 75.822 83.0984 76.4725C84.118 77.1098 85.2587 77.4284 86.5205 77.4284Z" fill="white"/>
<path d="M115.93 79.8181L103.886 66.3758V79.2207H101.821V60.7002L113.865 74.1425V61.2976H115.93V79.8181Z" fill="white"/>
<path d="M134.159 73.3658C133.344 73.3658 132.643 73.0605 132.056 72.4498C131.47 71.8391 131.177 71.1089 131.177 70.2592C131.177 69.3962 131.47 68.666 132.056 68.0686C132.643 67.4579 133.344 67.1525 134.159 67.1525C134.988 67.1525 135.689 67.4579 136.262 68.0686C136.849 68.666 137.142 69.3962 137.142 70.2592C137.142 71.1089 136.849 71.8391 136.262 72.4498C135.689 73.0605 134.988 73.3658 134.159 73.3658Z" fill="white"/>
<path d="M152.38 79.2207V60.7002L160.371 72.171L168.21 60.7002V79.2207H166.03V70.9363C166.03 70.3919 166.037 69.8011 166.049 69.1639C166.062 68.5133 166.107 67.7765 166.183 66.9534C165.788 67.6836 165.399 68.3275 165.017 68.8851C164.647 69.4294 164.31 69.9339 164.004 70.3986L160.295 75.8751L156.471 70.3986C156.153 69.9339 155.809 69.4294 155.439 68.8851C155.082 68.3275 154.7 67.6836 154.292 66.9534C154.368 67.7765 154.413 68.5133 154.426 69.1639C154.438 69.8011 154.445 70.3919 154.445 70.9363V79.2207H152.38Z" fill="white"/>
<path d="M173.716 79.2207L181 60.7002H181.038L188.322 79.2207H186.008L183.982 73.9035H177.96L175.914 79.2207H173.716ZM178.686 72.0116H183.255L181.898 68.4669C181.732 68.0155 181.573 67.5707 181.42 67.1326C181.267 66.6945 181.114 66.1701 180.961 65.5593C180.808 66.1701 180.662 66.6945 180.522 67.1326C180.381 67.5574 180.222 68.0022 180.044 68.4669L178.686 72.0116Z" fill="white"/>
<path d="M193.888 79.2207V61.2976H198.209C199.292 61.2976 200.222 61.5233 201 61.9747C201.777 62.4261 202.376 63.0236 202.797 63.767C203.23 64.4972 203.447 65.3005 203.447 66.1767C203.447 67.1591 203.179 68.042 202.644 68.8253C202.109 69.6086 201.376 70.1862 200.446 70.5579L206.219 79.2207H203.676L198.209 70.9761H196.068V79.2207H193.888ZM196.068 69.0643H198.209C198.948 69.0643 199.547 68.9249 200.006 68.6461C200.477 68.354 200.822 67.9889 201.038 67.5508C201.268 67.0994 201.382 66.6414 201.382 66.1767C201.382 65.3403 201.089 64.6565 200.503 64.1255C199.929 63.5944 199.165 63.3289 198.209 63.3289H196.068V69.0643Z" fill="white"/>
<path d="M224.114 79.4597C223.017 79.4597 222.011 79.1942 221.093 78.6631C220.188 78.132 219.474 77.4018 218.952 76.4725L220.213 73.8637C220.354 74.886 220.787 75.7357 221.514 76.4128C222.253 77.0899 223.119 77.4284 224.114 77.4284C224.84 77.4284 225.496 77.2492 226.083 76.8907C226.682 76.519 227.153 76.0277 227.497 75.417C227.842 74.8063 228.014 74.1226 228.014 73.3658C228.014 72.6224 227.835 71.9453 227.478 71.3346C227.134 70.7106 226.669 70.2193 226.083 69.8609C225.496 69.4891 224.84 69.3033 224.114 69.3033C223.757 69.3033 223.419 69.3497 223.1 69.4427C222.794 69.5356 222.514 69.6551 222.259 69.8011L225.528 63.2094H220.213V61.2976H228.702L225.471 67.5707C226.325 67.7433 227.096 68.1018 227.784 68.6461C228.485 69.1904 229.04 69.8675 229.447 70.6774C229.868 71.474 230.078 72.3701 230.078 73.3658C230.078 74.5076 229.811 75.5432 229.275 76.4725C228.74 77.3886 228.02 78.1188 227.115 78.6631C226.21 79.1942 225.21 79.4597 224.114 79.4597Z" fill="white"/>
<path d="M235.231 71.2151V69.3033H240.967V71.2151H235.231Z" fill="white"/>
<path d="M250.831 79.4597C249.735 79.4597 248.728 79.1942 247.811 78.6631C246.906 78.132 246.192 77.4018 245.67 76.4725L246.931 73.8637C247.072 74.886 247.505 75.7357 248.231 76.4128C248.971 77.0899 249.837 77.4284 250.831 77.4284C251.545 77.4284 252.195 77.2492 252.781 76.8907C253.381 76.519 253.852 76.0277 254.196 75.417C254.553 74.8063 254.732 74.1292 254.732 73.3858C254.732 72.6423 254.553 71.9652 254.196 71.3545C253.839 70.7438 253.361 70.2592 252.762 69.9007C252.176 69.529 251.513 69.3431 250.774 69.3431C250.137 69.3431 249.538 69.4958 248.977 69.8011C248.429 70.0932 247.977 70.4915 247.62 70.996V61.2976H255.382V63.3289H249.493V67.7499C249.748 67.6305 250.009 67.5508 250.277 67.511C250.557 67.4579 250.825 67.4313 251.08 67.4313C252.112 67.4313 253.062 67.6902 253.929 68.208C254.795 68.7258 255.49 69.436 256.012 70.3388C256.535 71.2283 256.796 72.244 256.796 73.3858C256.796 74.5275 256.522 75.5564 255.974 76.4725C255.426 77.3886 254.7 78.1188 253.795 78.6631C252.903 79.1942 251.915 79.4597 250.831 79.4597Z" fill="white"/>
<path d="M261.49 82.2079C262.064 81.4644 262.523 80.6014 262.867 79.619C263.224 78.6365 263.402 77.5081 263.402 76.2335H265.467C265.467 77.362 265.314 78.4241 265.008 79.4199C264.715 80.4289 264.307 81.3582 263.784 82.2079H261.49Z" fill="white"/>
<path d="M280.045 79.2207L286.946 68.5266C287.265 68.0221 287.482 67.584 287.596 67.2122C287.724 66.8405 287.788 66.4953 287.788 66.1767C287.788 65.3137 287.495 64.5835 286.908 63.9861C286.322 63.3887 285.608 63.0899 284.767 63.0899C283.926 63.0899 283.212 63.3887 282.626 63.9861C282.052 64.5835 281.766 65.3137 281.766 66.1767C281.766 67.1326 282.154 67.9358 282.932 68.5863H280.313C279.905 67.7765 279.701 66.9733 279.701 66.1767C279.701 65.2075 279.93 64.3379 280.389 63.5679C280.848 62.7979 281.46 62.1871 282.224 61.7358C283.002 61.2844 283.856 61.0587 284.786 61.0587C285.717 61.0587 286.564 61.2844 287.329 61.7358C288.094 62.1871 288.705 62.7979 289.164 63.5679C289.623 64.3379 289.852 65.2075 289.852 66.1767C289.852 66.7476 289.763 67.3118 289.585 67.8694C289.406 68.4138 289.094 69.0178 288.648 69.6816L283.677 77.1894H290.177V79.2207H280.045Z" fill="white"/>
<path d="M302.022 79.4597C301.015 79.4597 300.135 79.2008 299.383 78.683C298.631 78.152 298 77.4483 297.491 76.5721C296.994 75.6826 296.618 74.6935 296.363 73.6048C296.121 72.5029 295.999 71.3877 295.999 70.2592C295.999 69.1307 296.121 68.0221 296.363 66.9334C296.618 65.8315 296.994 64.8424 297.491 63.9662C298 63.0767 298.631 62.373 299.383 61.8552C300.135 61.3242 301.015 61.0587 302.022 61.0587C303.028 61.0587 303.908 61.3242 304.66 61.8552C305.412 62.373 306.036 63.0767 306.533 63.9662C307.043 64.8424 307.419 65.8315 307.661 66.9334C307.916 68.0221 308.044 69.1307 308.044 70.2592C308.044 71.3877 307.916 72.5029 307.661 73.6048C307.419 74.6935 307.043 75.6826 306.533 76.5721C306.036 77.4483 305.412 78.152 304.66 78.683C303.908 79.2008 303.028 79.4597 302.022 79.4597ZM302.022 77.4284C302.697 77.4284 303.277 77.216 303.761 76.7911C304.246 76.3663 304.641 75.802 304.947 75.0984C305.253 74.3948 305.482 73.6247 305.635 72.7883C305.788 71.9386 305.864 71.0956 305.864 70.2592C305.864 69.4228 305.788 68.5863 305.635 67.7499C305.482 66.9003 305.253 66.1236 304.947 65.4199C304.641 64.7163 304.246 64.152 303.761 63.7272C303.277 63.3024 302.697 63.0899 302.022 63.0899C301.359 63.0899 300.779 63.3024 300.282 63.7272C299.798 64.152 299.402 64.7163 299.097 65.4199C298.791 66.1236 298.561 66.9003 298.408 67.7499C298.255 68.5863 298.179 69.4228 298.179 70.2592C298.179 71.0956 298.255 71.9386 298.408 72.7883C298.561 73.6247 298.791 74.3948 299.097 75.0984C299.402 75.802 299.798 76.3663 300.282 76.7911C300.779 77.216 301.359 77.4284 302.022 77.4284Z" fill="white"/>
<path d="M314.21 79.2207L321.111 68.5266C321.43 68.0221 321.647 67.584 321.761 67.2122C321.889 66.8405 321.953 66.4953 321.953 66.1767C321.953 65.3137 321.659 64.5835 321.073 63.9861C320.487 63.3887 319.773 63.0899 318.932 63.0899C318.091 63.0899 317.377 63.3887 316.791 63.9861C316.217 64.5835 315.93 65.3137 315.93 66.1767C315.93 67.1326 316.319 67.9358 317.097 68.5863H314.478C314.07 67.7765 313.866 66.9733 313.866 66.1767C313.866 65.2075 314.095 64.3379 314.554 63.5679C315.013 62.7979 315.625 62.1871 316.389 61.7358C317.167 61.2844 318.021 61.0587 318.951 61.0587C319.882 61.0587 320.729 61.2844 321.494 61.7358C322.259 62.1871 322.87 62.7979 323.329 63.5679C323.788 64.3379 324.017 65.2075 324.017 66.1767C324.017 66.7476 323.928 67.3118 323.75 67.8694C323.571 68.4138 323.259 69.0178 322.813 69.6816L317.842 77.1894H324.342V79.2207H314.21Z" fill="white"/>
<path d="M335.556 79.4597C334.46 79.4597 333.453 79.1942 332.535 78.6631C331.63 78.132 330.916 77.4018 330.394 76.4725L331.656 73.8637C331.796 74.886 332.229 75.7357 332.956 76.4128C333.695 77.0899 334.562 77.4284 335.556 77.4284C336.269 77.4284 336.919 77.2492 337.506 76.8907C338.105 76.519 338.576 76.0277 338.92 75.417C339.277 74.8063 339.456 74.1292 339.456 73.3858C339.456 72.6423 339.277 71.9652 338.92 71.3545C338.564 70.7438 338.086 70.2592 337.487 69.9007C336.9 69.529 336.238 69.3431 335.498 69.3431C334.861 69.3431 334.262 69.4958 333.701 69.8011C333.153 70.0932 332.701 70.4915 332.344 70.996V61.2976H340.106V63.3289H334.217V67.7499C334.472 67.6305 334.734 67.5508 335.001 67.511C335.282 67.4579 335.549 67.4313 335.804 67.4313C336.837 67.4313 337.786 67.6902 338.653 68.208C339.519 68.7258 340.214 69.436 340.737 70.3388C341.259 71.2283 341.52 72.244 341.52 73.3858C341.52 74.5275 341.246 75.5564 340.698 76.4725C340.15 77.3886 339.424 78.1188 338.519 78.6631C337.627 79.1942 336.639 79.4597 335.556 79.4597Z" fill="white"/>
<rect y="50.5439" width="342.342" height="2.36163" fill="url(#paint20_linear_396_3210)"/>
<path d="M0.581543 0.679688H16.4336C18.9365 1.54877 21.062 3.16277 22.8101 5.5217C24.5979 7.83925 25.4918 10.6948 25.4918 14.0883C25.4918 19.6339 23.3862 23.7103 19.1749 26.3175L25.1939 44.1337H16.8507L11.7852 28.304H8.62674V44.1337H0.581543V0.679688ZM8.62674 8.12894V21.3514H13.7518C14.4272 21.1858 15.1622 20.4823 15.9568 19.2407C16.7911 17.9578 17.2083 16.468 17.2083 14.7712C17.2083 13.0744 16.8507 11.5846 16.1356 10.3016C15.4602 9.01871 14.7848 8.29448 14.1094 8.12894H8.62674Z" fill="white"/>
<path d="M29.7966 44.1337V0.679688H51.1908V8.12894H37.961V18.4958H49.7606V25.6968H37.961V36.9327H51.4292V44.1337H29.7966Z" fill="white"/>
<path d="M64.0887 8.12894V23.6482H69.3926C71.5777 21.7859 72.6703 19.0545 72.6703 15.454C72.6703 13.9228 72.3723 12.4743 71.7764 11.1086C71.2202 9.74295 70.5448 8.74971 69.7502 8.12894H64.0887ZM56.0436 44.1337V0.679688H72.1935C74.8951 1.92123 77.0206 3.82493 78.5701 6.39078C80.1593 8.95664 80.9538 11.957 80.9538 15.392C80.9538 18.7855 80.1394 21.9307 78.5105 24.8277C76.8816 27.7246 74.478 29.7732 71.2996 30.9733H64.0887V44.1337H56.0436Z" fill="white"/>
<path d="M85.3168 44.1337V0.679688H93.4812V36.9327H105.877V44.1337H85.3168Z" fill="white"/>
<path d="M127.693 44.1337L126.442 37.2431H117.026L115.774 44.1337H107.67L115.715 0.679688H128.051L135.679 44.1337H127.693ZM121.615 8.74971L119.29 23.2137L117.979 30.6009H125.429L124.058 23.2137L121.734 8.74971H121.615Z" fill="white"/>
<path d="M150.841 44.1337H142.141V29.6697L133.321 0.679688H141.425L145.12 13.9021L146.372 21.5376H146.61L147.862 13.9021L151.556 0.679688H159.661L150.841 29.6697V44.1337Z" fill="white"/>
<defs>
<linearGradient id="paint0_linear_396_3210" x1="265.544" y1="-0.531357" x2="265.544" y2="53.2852" gradientUnits="userSpaceOnUse">
<stop stop-color="#A7FFBB"/>
<stop offset="1" stop-color="#E2FF6E"/>
</linearGradient>
<linearGradient id="paint1_linear_396_3210" x1="265.544" y1="-0.531357" x2="265.544" y2="53.2852" gradientUnits="userSpaceOnUse">
<stop stop-color="#A7FFBB"/>
<stop offset="1" stop-color="#E2FF6E"/>
</linearGradient>
<linearGradient id="paint2_linear_396_3210" x1="265.544" y1="-0.531357" x2="265.544" y2="53.2852" gradientUnits="userSpaceOnUse">
<stop stop-color="#A7FFBB"/>
<stop offset="1" stop-color="#E2FF6E"/>
</linearGradient>
<linearGradient id="paint3_linear_396_3210" x1="265.544" y1="-0.531357" x2="265.544" y2="53.2852" gradientUnits="userSpaceOnUse">
<stop stop-color="#A7FFBB"/>
<stop offset="1" stop-color="#E2FF6E"/>
</linearGradient>
<linearGradient id="paint4_linear_396_3210" x1="265.544" y1="-0.531357" x2="265.544" y2="53.2852" gradientUnits="userSpaceOnUse">
<stop stop-color="#A7FFBB"/>
<stop offset="1" stop-color="#E2FF6E"/>
</linearGradient>
<linearGradient id="paint5_linear_396_3210" x1="265.544" y1="-0.531357" x2="265.544" y2="53.2852" gradientUnits="userSpaceOnUse">
<stop stop-color="#A7FFBB"/>
<stop offset="1" stop-color="#E2FF6E"/>
</linearGradient>
<linearGradient id="paint6_linear_396_3210" x1="265.544" y1="-0.531357" x2="265.544" y2="53.2852" gradientUnits="userSpaceOnUse">
<stop stop-color="#A7FFBB"/>
<stop offset="1" stop-color="#E2FF6E"/>
</linearGradient>
<linearGradient id="paint7_linear_396_3210" x1="265.544" y1="-0.531357" x2="265.544" y2="53.2852" gradientUnits="userSpaceOnUse">
<stop stop-color="#A7FFBB"/>
<stop offset="1" stop-color="#E2FF6E"/>
</linearGradient>
<linearGradient id="paint8_linear_396_3210" x1="265.544" y1="-0.531357" x2="265.544" y2="53.2852" gradientUnits="userSpaceOnUse">
<stop stop-color="#A7FFBB"/>
<stop offset="1" stop-color="#E2FF6E"/>
</linearGradient>
<linearGradient id="paint9_linear_396_3210" x1="244.514" y1="5.24219" x2="244.514" y2="47.9537" gradientUnits="userSpaceOnUse">
<stop stop-color="#A7FFBB"/>
<stop offset="1" stop-color="#E2FF6E"/>
</linearGradient>
<linearGradient id="paint10_linear_396_3210" x1="244.514" y1="5.24219" x2="244.514" y2="47.9537" gradientUnits="userSpaceOnUse">
<stop stop-color="#A7FFBB"/>
<stop offset="1" stop-color="#E2FF6E"/>
</linearGradient>
<linearGradient id="paint11_linear_396_3210" x1="244.514" y1="5.24219" x2="244.514" y2="47.9537" gradientUnits="userSpaceOnUse">
<stop stop-color="#A7FFBB"/>
<stop offset="1" stop-color="#E2FF6E"/>
</linearGradient>
<linearGradient id="paint12_linear_396_3210" x1="244.514" y1="5.24219" x2="244.514" y2="47.9537" gradientUnits="userSpaceOnUse">
<stop stop-color="#A7FFBB"/>
<stop offset="1" stop-color="#E2FF6E"/>
</linearGradient>
<linearGradient id="paint13_linear_396_3210" x1="244.514" y1="5.24219" x2="244.514" y2="47.9537" gradientUnits="userSpaceOnUse">
<stop stop-color="#A7FFBB"/>
<stop offset="1" stop-color="#E2FF6E"/>
</linearGradient>
<linearGradient id="paint14_linear_396_3210" x1="244.514" y1="5.24219" x2="244.514" y2="47.9537" gradientUnits="userSpaceOnUse">
<stop stop-color="#A7FFBB"/>
<stop offset="1" stop-color="#E2FF6E"/>
</linearGradient>
<linearGradient id="paint15_linear_396_3210" x1="244.514" y1="5.24219" x2="244.514" y2="47.9537" gradientUnits="userSpaceOnUse">
<stop stop-color="#A7FFBB"/>
<stop offset="1" stop-color="#E2FF6E"/>
</linearGradient>
<linearGradient id="paint16_linear_396_3210" x1="244.514" y1="5.24219" x2="244.514" y2="47.9537" gradientUnits="userSpaceOnUse">
<stop stop-color="#A7FFBB"/>
<stop offset="1" stop-color="#E2FF6E"/>
</linearGradient>
<linearGradient id="paint17_linear_396_3210" x1="244.514" y1="5.24219" x2="244.514" y2="47.9537" gradientUnits="userSpaceOnUse">
<stop stop-color="#A7FFBB"/>
<stop offset="1" stop-color="#E2FF6E"/>
</linearGradient>
<linearGradient id="paint18_linear_396_3210" x1="244.514" y1="5.24219" x2="244.514" y2="47.9537" gradientUnits="userSpaceOnUse">
<stop stop-color="#A7FFBB"/>
<stop offset="1" stop-color="#E2FF6E"/>
</linearGradient>
<linearGradient id="paint19_linear_396_3210" x1="244.514" y1="5.24219" x2="244.514" y2="47.9537" gradientUnits="userSpaceOnUse">
<stop stop-color="#A7FFBB"/>
<stop offset="1" stop-color="#E2FF6E"/>
</linearGradient>
<linearGradient id="paint20_linear_396_3210" x1="48.9523" y1="50.5439" x2="315.11" y2="50.5439" gradientUnits="userSpaceOnUse">
<stop stop-color="#A7FFBB"/>
<stop offset="1" stop-color="#E2FF6E"/>
</linearGradient>
</defs>
</svg>
