<svg xmlns="http://www.w3.org/2000/svg" fill="none" viewBox="0 0 161 42">
  <path fill="#fff" d="M0 0h16c2.5.8 4.6 2.4 6.4 4.7 1.8 2.2 2.7 5 2.7 8.3 0 5.3-2.1 9.3-6.4 11.8l6 17.2h-8.3l-5.1-15.3H8V42H0V0Zm8.1 7.2V20h5.2c.6-.2 1.4-.9 2.2-2a7.5 7.5 0 0 0 1.2-4.4c0-1.6-.3-3-1-4.3-.7-1.2-1.4-2-2-2.1H8ZM29.4 42V0H51v7.2H37.6v10h12v7h-12V35h13.6v7H29.4ZM64 7.2v15h5.3c2.2-1.8 3.3-4.4 3.3-8a10 10 0 0 0-1-4.1 6.8 6.8 0 0 0-2-2.9H64ZM55.7 42V0H72c2.7 1.2 4.9 3 6.4 5.5a17.7 17.7 0 0 1 0 17.8 14 14 0 0 1-7.3 6h-7.3V42h-8Zm29.6 0V0h8.2v35H106v7H85.3Zm42.7 0-1.3-6.7h-9.5L116 42h-8.2L116 0h12.4l7.7 42h-8Zm-6.2-34.2-2.3 14-1.3 7.1h7.5l-1.4-7.1-2.3-14h-.2ZM151.3 42h-8.8V28l-8.9-28h8.2l3.7 12.8 1.3 7.4h.2l1.3-7.4L152 0h8.2l-9 28v14Z"/>
</svg>
