<svg width="1057" height="204" viewBox="0 0 1057 204" fill="none" xmlns="http://www.w3.org/2000/svg">
<path d="M1.4375 195V141.875H8.16667V188.979H26.5833V195H1.4375Z" fill="white"/>
<path d="M63.9166 196.062C60.0994 196.062 56.4987 195.354 53.1145 193.937C49.7696 192.481 46.8182 190.494 44.2603 187.976C41.7418 185.457 39.7545 182.525 38.2985 179.181C36.8818 175.836 36.1735 172.255 36.1735 168.437C36.1735 164.62 36.8818 161.039 38.2985 157.694C39.7545 154.35 41.7418 151.418 44.2603 148.899C46.8182 146.381 49.7696 144.413 53.1145 142.997C56.4987 141.541 60.0994 140.812 63.9166 140.812C67.773 140.812 71.3737 141.541 74.7186 142.997C78.0635 144.413 80.9953 146.381 83.5138 148.899C86.0716 151.418 88.0589 154.35 89.4756 157.694C90.9316 161.039 91.6596 164.62 91.6596 168.437C91.6596 172.255 90.9316 175.836 89.4756 179.181C88.0589 182.525 86.0716 185.457 83.5138 187.976C80.9953 190.494 78.0635 192.481 74.7186 193.937C71.3737 195.354 67.773 196.062 63.9166 196.062ZM63.9166 189.687C67.8124 189.687 71.3344 188.743 74.4825 186.854C77.6307 184.926 80.1098 182.348 81.92 179.122C83.7696 175.895 84.6943 172.333 84.6943 168.437C84.6943 164.502 83.7696 160.941 81.92 157.753C80.1098 154.527 77.6307 151.969 74.4825 150.08C71.3344 148.152 67.8124 147.187 63.9166 147.187C60.0207 147.187 56.4987 148.152 53.3506 150.08C50.2418 151.969 47.7626 154.527 45.9131 157.753C44.0635 160.941 43.1388 164.502 43.1388 168.437C43.1388 172.333 44.0635 175.895 45.9131 179.122C47.7626 182.348 50.2418 184.926 53.3506 186.854C56.4987 188.743 60.0207 189.687 63.9166 189.687Z" fill="white"/>
<path d="M154.72 196.771L117.532 156.927V195H111.157V140.104L148.345 179.948V141.875H154.72V196.771Z" fill="white"/>
<path d="M178.095 195V141.875H195.508C200.309 141.875 204.48 142.662 208.022 144.236C211.603 145.81 214.554 147.896 216.876 150.493C219.198 153.09 220.929 155.963 222.07 159.111C223.212 162.22 223.782 165.329 223.782 168.437C223.782 171.546 223.212 174.675 222.07 177.823C220.929 180.932 219.198 183.785 216.876 186.382C214.554 188.979 211.603 191.065 208.022 192.639C204.48 194.213 200.309 195 195.508 195H178.095ZM184.824 188.979H194.8C198.892 188.979 202.335 188.35 205.129 187.09C207.923 185.792 210.186 184.119 211.918 182.073C213.649 179.987 214.889 177.744 215.636 175.344C216.423 172.943 216.817 170.641 216.817 168.437C216.817 166.234 216.423 163.932 215.636 161.531C214.889 159.131 213.649 156.907 211.918 154.861C210.186 152.775 207.923 151.103 205.129 149.844C202.335 148.545 198.892 147.896 194.8 147.896H184.824V188.979Z" fill="white"/>
<path d="M267.136 196.062C263.319 196.062 259.718 195.354 256.334 193.937C252.989 192.481 250.038 190.494 247.48 187.976C244.962 185.457 242.974 182.525 241.518 179.181C240.102 175.836 239.393 172.255 239.393 168.437C239.393 164.62 240.102 161.039 241.518 157.694C242.974 154.35 244.962 151.418 247.48 148.899C250.038 146.381 252.989 144.413 256.334 142.997C259.718 141.541 263.319 140.812 267.136 140.812C270.993 140.812 274.593 141.541 277.938 142.997C281.283 144.413 284.215 146.381 286.734 148.899C289.291 151.418 291.279 154.35 292.695 157.694C294.151 161.039 294.879 164.62 294.879 168.437C294.879 172.255 294.151 175.836 292.695 179.181C291.279 182.525 289.291 185.457 286.734 187.976C284.215 190.494 281.283 192.481 277.938 193.937C274.593 195.354 270.993 196.062 267.136 196.062ZM267.136 189.687C271.032 189.687 274.554 188.743 277.702 186.854C280.85 184.926 283.33 182.348 285.14 179.122C286.989 175.895 287.914 172.333 287.914 168.437C287.914 164.502 286.989 160.941 285.14 157.753C283.33 154.527 280.85 151.969 277.702 150.08C274.554 148.152 271.032 147.187 267.136 147.187C263.24 147.187 259.718 148.152 256.57 150.08C253.462 151.969 250.982 154.527 249.133 157.753C247.283 160.941 246.359 164.502 246.359 168.437C246.359 172.333 247.283 175.895 249.133 179.122C250.982 182.348 253.462 184.926 256.57 186.854C259.718 188.743 263.24 189.687 267.136 189.687Z" fill="white"/>
<path d="M357.939 196.771L320.752 156.927V195H314.377V140.104L351.564 179.948V141.875H357.939V196.771Z" fill="white"/>
<path d="M414.224 177.646C411.706 177.646 409.541 176.741 407.731 174.931C405.921 173.12 405.016 170.956 405.016 168.437C405.016 165.88 405.921 163.715 407.731 161.944C409.541 160.134 411.706 159.229 414.224 159.229C416.782 159.229 418.947 160.134 420.717 161.944C422.528 163.715 423.433 165.88 423.433 168.437C423.433 170.956 422.528 173.12 420.717 174.931C418.947 176.741 416.782 177.646 414.224 177.646Z" fill="white"/>
<path d="M470.481 195V140.104L495.155 174.104L519.356 140.104V195H512.627V170.444C512.627 168.831 512.647 167.08 512.686 165.191C512.726 163.263 512.863 161.079 513.099 158.639C511.88 160.803 510.679 162.712 509.499 164.365C508.358 165.978 507.315 167.473 506.37 168.851L494.919 185.083L483.113 168.851C482.13 167.473 481.067 165.978 479.926 164.365C478.824 162.712 477.643 160.803 476.384 158.639C476.62 161.079 476.758 163.263 476.797 165.191C476.837 167.08 476.856 168.831 476.856 170.444V195H470.481Z" fill="white"/>
<path d="M536.356 195L558.846 140.104H558.964L581.454 195H574.311L568.054 179.24H549.461L543.145 195H536.356ZM551.704 173.632H565.811L561.62 163.125C561.109 161.787 560.617 160.469 560.145 159.17C559.672 157.872 559.2 156.317 558.728 154.507C558.256 156.317 557.803 157.872 557.37 159.17C556.937 160.429 556.446 161.748 555.895 163.125L551.704 173.632Z" fill="white"/>
<path d="M598.64 195V141.875H611.98C615.325 141.875 618.198 142.544 620.598 143.882C622.999 145.22 624.848 146.991 626.147 149.194C627.485 151.359 628.154 153.74 628.154 156.337C628.154 159.249 627.327 161.866 625.675 164.187C624.022 166.509 621.759 168.221 618.886 169.323L636.713 195H628.862L611.98 170.562H605.369V195H598.64ZM605.369 164.896H611.98C614.263 164.896 616.112 164.483 617.529 163.656C618.985 162.791 620.047 161.708 620.716 160.41C621.425 159.072 621.779 157.714 621.779 156.337C621.779 153.858 620.874 151.831 619.064 150.257C617.293 148.683 614.932 147.896 611.98 147.896H605.369V164.896Z" fill="white"/>
<path d="M691.963 195.708C688.579 195.708 685.47 194.921 682.636 193.347C679.842 191.773 677.639 189.609 676.025 186.854L679.921 179.122C680.354 182.152 681.692 184.67 683.935 186.677C686.218 188.684 688.893 189.687 691.963 189.687C694.206 189.687 696.233 189.156 698.043 188.094C699.892 186.992 701.348 185.536 702.411 183.726C703.473 181.916 704.005 179.889 704.005 177.646C704.005 175.442 703.454 173.435 702.352 171.625C701.289 169.775 699.853 168.319 698.043 167.257C696.233 166.155 694.206 165.604 691.963 165.604C690.861 165.604 689.818 165.742 688.834 166.017C687.89 166.293 687.024 166.647 686.237 167.08L696.331 147.542H679.921V141.875H706.13L696.154 160.469C698.79 160.98 701.171 162.043 703.296 163.656C705.461 165.27 707.172 167.277 708.432 169.677C709.73 172.038 710.38 174.694 710.38 177.646C710.38 181.03 709.553 184.1 707.9 186.854C706.248 189.569 704.024 191.734 701.23 193.347C698.436 194.921 695.347 195.708 691.963 195.708Z" fill="white"/>
<path d="M726.289 171.271V165.604H743.998V171.271H726.289Z" fill="white"/>
<path d="M774.456 195.708C771.072 195.708 767.963 194.921 765.13 193.347C762.336 191.773 760.132 189.609 758.519 186.854L762.414 179.122C762.847 182.152 764.185 184.67 766.428 186.677C768.711 188.684 771.387 189.687 774.456 189.687C776.66 189.687 778.667 189.156 780.477 188.094C782.326 186.992 783.782 185.536 784.845 183.726C785.947 181.916 786.498 179.909 786.498 177.705C786.498 175.501 785.947 173.494 784.845 171.684C783.743 169.874 782.267 168.437 780.418 167.375C778.608 166.273 776.561 165.722 774.279 165.722C772.311 165.722 770.462 166.175 768.73 167.08C767.038 167.946 765.641 169.126 764.539 170.622V141.875H788.505V147.896H770.324V161C771.111 160.646 771.918 160.41 772.744 160.292C773.61 160.134 774.436 160.056 775.223 160.056C778.411 160.056 781.343 160.823 784.019 162.358C786.694 163.892 788.839 165.998 790.453 168.674C792.066 171.31 792.873 174.321 792.873 177.705C792.873 181.089 792.027 184.139 790.335 186.854C788.642 189.569 786.399 191.734 783.605 193.347C780.851 194.921 777.801 195.708 774.456 195.708Z" fill="white"/>
<path d="M807.366 203.854C809.137 201.65 810.553 199.093 811.616 196.181C812.718 193.269 813.269 189.924 813.269 186.146H819.644C819.644 189.491 819.171 192.639 818.227 195.59C817.322 198.581 816.063 201.336 814.449 203.854H807.366Z" fill="white"/>
<path d="M864.654 195L885.963 163.302C886.947 161.807 887.616 160.508 887.97 159.406C888.364 158.304 888.56 157.281 888.56 156.337C888.56 153.779 887.655 151.615 885.845 149.844C884.035 148.073 881.831 147.187 879.234 147.187C876.637 147.187 874.433 148.073 872.623 149.844C870.852 151.615 869.967 153.779 869.967 156.337C869.967 159.17 871.167 161.551 873.567 163.479H865.481C864.221 161.079 863.592 158.698 863.592 156.337C863.592 153.464 864.3 150.887 865.717 148.604C867.133 146.322 869.022 144.512 871.383 143.174C873.784 141.836 876.42 141.167 879.293 141.167C882.166 141.167 884.783 141.836 887.144 143.174C889.505 144.512 891.394 146.322 892.81 148.604C894.227 150.887 894.935 153.464 894.935 156.337C894.935 158.029 894.66 159.701 894.109 161.354C893.558 162.968 892.594 164.758 891.217 166.726L875.869 188.979H895.939V195H864.654Z" fill="white"/>
<path d="M932.508 195.708C929.4 195.708 926.684 194.941 924.363 193.406C922.041 191.832 920.093 189.747 918.519 187.149C916.984 184.513 915.823 181.581 915.036 178.354C914.289 175.088 913.915 171.782 913.915 168.437C913.915 165.093 914.289 161.807 915.036 158.58C915.823 155.314 916.984 152.382 918.519 149.785C920.093 147.148 922.041 145.062 924.363 143.528C926.684 141.954 929.4 141.167 932.508 141.167C935.617 141.167 938.333 141.954 940.654 143.528C942.976 145.062 944.904 147.148 946.439 149.785C948.013 152.382 949.174 155.314 949.922 158.58C950.709 161.807 951.102 165.093 951.102 168.437C951.102 171.782 950.709 175.088 949.922 178.354C949.174 181.581 948.013 184.513 946.439 187.149C944.904 189.747 942.976 191.832 940.654 193.406C938.333 194.941 935.617 195.708 932.508 195.708ZM932.508 189.687C934.594 189.687 936.385 189.058 937.88 187.799C939.375 186.539 940.595 184.867 941.54 182.781C942.484 180.696 943.193 178.413 943.665 175.934C944.137 173.416 944.373 170.917 944.373 168.437C944.373 165.958 944.137 163.479 943.665 161C943.193 158.481 942.484 156.179 941.54 154.094C940.595 152.008 939.375 150.336 937.88 149.076C936.385 147.817 934.594 147.187 932.508 147.187C930.462 147.187 928.672 147.817 927.137 149.076C925.642 150.336 924.422 152.008 923.477 154.094C922.533 156.179 921.824 158.481 921.352 161C920.88 163.479 920.644 165.958 920.644 168.437C920.644 170.917 920.88 173.416 921.352 175.934C921.824 178.413 922.533 180.696 923.477 182.781C924.422 184.867 925.642 186.539 927.137 187.799C928.672 189.058 930.462 189.687 932.508 189.687Z" fill="white"/>
<path d="M970.141 195L991.45 163.302C992.433 161.807 993.102 160.508 993.456 159.406C993.85 158.304 994.047 157.281 994.047 156.337C994.047 153.779 993.142 151.615 991.331 149.844C989.521 148.073 987.318 147.187 984.72 147.187C982.123 147.187 979.919 148.073 978.109 149.844C976.338 151.615 975.453 153.779 975.453 156.337C975.453 159.17 976.653 161.551 979.054 163.479H970.967C969.708 161.079 969.078 158.698 969.078 156.337C969.078 153.464 969.786 150.887 971.203 148.604C972.62 146.322 974.509 144.512 976.87 143.174C979.27 141.836 981.907 141.167 984.779 141.167C987.652 141.167 990.269 141.836 992.63 143.174C994.991 144.512 996.88 146.322 998.297 148.604C999.713 150.887 1000.42 153.464 1000.42 156.337C1000.42 158.029 1000.15 159.701 999.595 161.354C999.044 162.968 998.08 164.758 996.703 166.726L981.356 188.979H1001.43V195H970.141Z" fill="white"/>
<path d="M1036.05 195.708C1032.66 195.708 1029.55 194.921 1026.72 193.347C1023.93 191.773 1021.72 189.609 1020.11 186.854L1024.01 179.122C1024.44 182.152 1025.78 184.67 1028.02 186.677C1030.3 188.684 1032.98 189.687 1036.05 189.687C1038.25 189.687 1040.26 189.156 1042.07 188.094C1043.92 186.992 1045.37 185.536 1046.44 183.726C1047.54 181.916 1048.09 179.909 1048.09 177.705C1048.09 175.501 1047.54 173.494 1046.44 171.684C1045.33 169.874 1043.86 168.437 1042.01 167.375C1040.2 166.273 1038.15 165.722 1035.87 165.722C1033.9 165.722 1032.05 166.175 1030.32 167.08C1028.63 167.946 1027.23 169.126 1026.13 170.622V141.875H1050.1V147.896H1031.91V161C1032.7 160.646 1033.51 160.41 1034.34 160.292C1035.2 160.134 1036.03 160.056 1036.81 160.056C1040 160.056 1042.93 160.823 1045.61 162.358C1048.29 163.892 1050.43 165.998 1052.04 168.674C1053.66 171.31 1054.46 174.321 1054.46 177.705C1054.46 181.089 1053.62 184.139 1051.93 186.854C1050.23 189.569 1047.99 191.734 1045.2 193.347C1042.44 194.921 1039.39 195.708 1036.05 195.708Z" fill="white"/>
<rect y="110" width="1057" height="7" fill="url(#paint0_linear_1005_6779)"/>
<path d="M334 83.3125V0L371.474 51.6L408.231 0V83.3125H398.011V46.0458C398.011 43.5972 398.041 40.9396 398.101 38.0729C398.16 35.1465 398.37 31.8319 398.728 28.1292C396.875 31.4139 395.053 34.3104 393.26 36.8188C391.526 39.2674 389.942 41.5368 388.508 43.6271L371.116 68.2625L353.185 43.6271C351.691 41.5368 350.077 39.2674 348.344 36.8188C346.671 34.3104 344.878 31.4139 342.965 28.1292C343.324 31.8319 343.533 35.1465 343.593 38.0729C343.652 40.9396 343.682 43.5972 343.682 46.0458V83.3125H334Z" fill="url(#paint1_linear_1005_6779)"/>
<path d="M478.661 84.925C472.864 84.925 467.395 83.85 462.255 81.7C457.175 79.4903 452.692 76.4743 448.808 72.6521C444.982 68.8299 441.964 64.3806 439.753 59.3042C437.601 54.2278 436.525 48.7931 436.525 43C436.525 37.2069 437.601 31.7722 439.753 26.6958C441.964 21.6194 444.982 17.1701 448.808 13.3479C452.692 9.52569 457.175 6.53959 462.255 4.38959C467.395 2.17987 472.864 1.07501 478.661 1.07501C484.519 1.07501 489.987 2.17987 495.068 4.38959C500.148 6.53959 504.601 9.52569 508.426 13.3479C512.311 17.1701 515.329 21.6194 517.48 26.6958C519.692 31.7722 520.798 37.2069 520.798 43C520.798 48.7931 519.692 54.2278 517.48 59.3042C515.329 64.3806 512.311 68.8299 508.426 72.6521C504.601 76.4743 500.148 79.4903 495.068 81.7C489.987 83.85 484.519 84.925 478.661 84.925ZM478.661 75.25C484.578 75.25 489.928 73.8167 494.709 70.95C499.49 68.0236 503.256 64.1118 506.005 59.2146C508.814 54.3174 510.219 48.9125 510.219 43C510.219 37.0278 508.814 31.6229 506.005 26.7854C503.256 21.8882 499.49 18.0062 494.709 15.1396C489.928 12.2132 484.578 10.75 478.661 10.75C472.744 10.75 467.395 12.2132 462.614 15.1396C457.892 18.0062 454.127 21.8882 451.318 26.7854C448.509 31.6229 447.104 37.0278 447.104 43C447.104 48.9125 448.509 54.3174 451.318 59.2146C454.127 64.1118 457.892 68.0236 462.614 70.95C467.395 73.8167 472.744 75.25 478.661 75.25Z" fill="url(#paint2_linear_1005_6779)"/>
<path d="M549.12 83.3125V2.6875H575.567C582.858 2.6875 589.194 3.88195 594.573 6.27084C600.012 8.65972 604.494 11.825 608.02 15.7667C611.547 19.7083 614.177 24.0681 615.91 28.8458C617.643 33.5639 618.51 38.2819 618.51 43C618.51 47.7181 617.643 52.466 615.91 57.2437C614.177 61.9618 611.547 66.2917 608.02 70.2333C604.494 74.175 600.012 77.3403 594.573 79.7292C589.194 82.1181 582.858 83.3125 575.567 83.3125H549.12ZM559.34 74.175H574.491C580.707 74.175 585.936 73.2194 590.18 71.3083C594.423 69.3375 597.86 66.7993 600.49 63.6937C603.12 60.5285 605.002 57.1243 606.138 53.4812C607.333 49.8382 607.931 46.3444 607.931 43C607.931 39.6556 607.333 36.1618 606.138 32.5187C605.002 28.8757 603.12 25.5014 600.49 22.3958C597.86 19.2306 594.423 16.6924 590.18 14.7813C585.936 12.8104 580.707 11.825 574.491 11.825H559.34V74.175Z" fill="url(#paint3_linear_1005_6779)"/>
<path d="M646.846 83.3125V2.6875H686.651V11.825H657.066V29.025H680.375V38.1625H657.066V74.175H686.651V83.3125H646.846Z" fill="url(#paint4_linear_1005_6779)"/>
<path d="M715.214 83.3125V2.6875H735.475C740.555 2.6875 744.918 3.70278 748.564 5.73333C752.21 7.76389 755.019 10.4514 756.991 13.7958C759.023 17.0806 760.039 20.6938 760.039 24.6354C760.039 29.0549 758.784 33.0264 756.274 36.55C753.764 40.0736 750.327 42.6715 745.964 44.3437L773.039 83.3125H761.115L735.475 46.225H725.434V83.3125H715.214ZM725.434 37.625H735.475C738.941 37.625 741.751 36.9979 743.902 35.7437C746.114 34.4299 747.727 32.7875 748.743 30.8167C749.819 28.7861 750.357 26.7257 750.357 24.6354C750.357 20.8729 748.982 17.7972 746.233 15.4083C743.544 13.0194 739.958 11.825 735.475 11.825H725.434V37.625Z" fill="url(#paint5_linear_1005_6779)"/>
<path d="M862.696 86L806.216 25.5312V83.3125H796.534V0L853.014 60.4687V2.6875H862.696V86Z" fill="url(#paint6_linear_1005_6779)"/>
<path d="M897.983 83.3125V2.6875H908.203V83.3125H897.983Z" fill="url(#paint7_linear_1005_6779)"/>
<path d="M960.841 84.3875C956.059 84.3875 951.726 83.4319 947.841 81.5208C944.016 79.6097 940.968 77.2806 938.697 74.5333L941.655 62.1708C943.329 65.5153 945.839 68.5312 949.186 71.2187C952.533 73.9062 956.537 75.25 961.199 75.25C965.443 75.25 968.939 73.9062 971.688 71.2187C974.497 68.5312 975.902 65.2167 975.902 61.275C975.902 58.4083 975.215 56.0493 973.84 54.1979C972.465 52.3465 970.911 50.8833 969.178 49.8083C967.445 48.7333 966.07 47.9569 965.054 47.4792L955.192 42.4625C953.639 41.6264 951.696 40.4618 949.365 38.9687C947.094 37.4757 945.092 35.4153 943.359 32.7875C941.625 30.1597 940.759 26.7556 940.759 22.575C940.759 18.5139 941.685 14.9007 943.538 11.7354C945.45 8.57014 948.08 6.09167 951.427 4.3C954.834 2.50834 958.719 1.61251 963.082 1.61251C967.385 1.61251 971.18 2.38889 974.468 3.94167C977.755 5.43473 980.325 6.9875 982.178 8.6L979.219 20.9625C977.725 18.4542 975.513 16.0951 972.585 13.8854C969.656 11.6757 966.339 10.5708 962.634 10.5708C959.047 10.5708 956.179 11.6458 954.027 13.7958C951.875 15.8861 950.8 18.484 950.8 21.5896C950.8 23.9785 951.337 25.9493 952.413 27.5021C953.549 29.0549 954.804 30.2792 956.179 31.175C957.613 32.0708 958.779 32.7576 959.675 33.2354L969.716 38.2521C970.911 38.8493 972.405 39.6854 974.199 40.7604C976.051 41.8354 977.874 43.2687 979.667 45.0604C981.46 46.7924 982.955 48.9424 984.15 51.5104C985.345 54.0187 985.943 57.0646 985.943 60.6479C985.943 65.2465 984.837 69.3375 982.626 72.9208C980.474 76.5042 977.516 79.3111 973.75 81.3417C969.985 83.3722 965.682 84.3875 960.841 84.3875Z" fill="url(#paint8_linear_1005_6779)"/>
<path d="M1014.19 83.3125V2.6875H1054V11.825H1024.42V29.025H1047.72V38.1625H1024.42V74.175H1054V83.3125H1014.19Z" fill="url(#paint9_linear_1005_6779)"/>
<path d="M2 2H33.1899C38.1146 3.64 42.2967 6.68572 45.7362 11.1371C49.2539 15.5105 51.0127 20.899 51.0127 27.3029C51.0127 37.7676 46.8697 45.46 38.5836 50.38L50.4264 84H34.0107L24.044 54.1286H17.8295V84H2V2ZM17.8295 16.0571V41.0086H27.9134C29.2423 40.6962 30.6884 39.3686 32.2519 37.0257C33.8934 34.6048 34.7142 31.7933 34.7142 28.5914C34.7142 25.3895 34.0107 22.5781 32.6036 20.1571C31.2747 17.7362 29.9458 16.3695 28.6169 16.0571H17.8295Z" fill="white"/>
<path d="M59.4825 84V2H101.577V16.0571H75.5465V35.62H98.763V49.2086H75.5465V70.4114H102.046V84H59.4825Z" fill="white"/>
<path d="M126.955 16.0571V45.3429H137.39C141.69 41.8286 143.839 36.6743 143.839 29.88C143.839 26.9905 143.253 24.2571 142.081 21.68C140.986 19.1029 139.657 17.2286 138.094 16.0571H126.955ZM111.125 84V2H142.901C148.217 4.34286 152.399 7.93524 155.448 12.7771C158.575 17.6191 160.138 23.281 160.138 29.7629C160.138 36.1667 158.535 42.1019 155.33 47.5686C152.125 53.0352 147.396 56.901 141.143 59.1657H126.955V84H111.125Z" fill="white"/>
<path d="M168.722 84V2H184.786V70.4114H209.175V84H168.722Z" fill="white"/>
<path d="M252.101 84L249.638 70.9971H231.112L228.65 84H212.703L228.533 2H252.804L267.813 84H252.101ZM240.141 17.2286L235.568 44.5229L232.988 58.4629H247.645L244.948 44.5229L240.375 17.2286H240.141Z" fill="white"/>
<path d="M297.646 84H280.527V56.7057L263.173 2H279.12L286.39 26.9514L288.852 41.36H289.321L291.783 26.9514L299.053 2H315L297.646 56.7057V84Z" fill="white"/>
<defs>
<linearGradient id="paint0_linear_1005_6779" x1="151.143" y1="110" x2="972.92" y2="110" gradientUnits="userSpaceOnUse">
<stop stop-color="#A7FFBB"/>
<stop offset="1" stop-color="#E2FF6E"/>
</linearGradient>
<linearGradient id="paint1_linear_1005_6779" x1="644.186" y1="-4.05409" x2="644.186" y2="169.057" gradientUnits="userSpaceOnUse">
<stop stop-color="#A7FFBB"/>
<stop offset="1" stop-color="#E2FF6E"/>
</linearGradient>
<linearGradient id="paint2_linear_1005_6779" x1="644.186" y1="-4.05409" x2="644.186" y2="169.057" gradientUnits="userSpaceOnUse">
<stop stop-color="#A7FFBB"/>
<stop offset="1" stop-color="#E2FF6E"/>
</linearGradient>
<linearGradient id="paint3_linear_1005_6779" x1="644.186" y1="-4.05409" x2="644.186" y2="169.057" gradientUnits="userSpaceOnUse">
<stop stop-color="#A7FFBB"/>
<stop offset="1" stop-color="#E2FF6E"/>
</linearGradient>
<linearGradient id="paint4_linear_1005_6779" x1="644.186" y1="-4.05409" x2="644.186" y2="169.057" gradientUnits="userSpaceOnUse">
<stop stop-color="#A7FFBB"/>
<stop offset="1" stop-color="#E2FF6E"/>
</linearGradient>
<linearGradient id="paint5_linear_1005_6779" x1="644.186" y1="-4.05409" x2="644.186" y2="169.057" gradientUnits="userSpaceOnUse">
<stop stop-color="#A7FFBB"/>
<stop offset="1" stop-color="#E2FF6E"/>
</linearGradient>
<linearGradient id="paint6_linear_1005_6779" x1="644.186" y1="-4.05409" x2="644.186" y2="169.057" gradientUnits="userSpaceOnUse">
<stop stop-color="#A7FFBB"/>
<stop offset="1" stop-color="#E2FF6E"/>
</linearGradient>
<linearGradient id="paint7_linear_1005_6779" x1="644.186" y1="-4.05409" x2="644.186" y2="169.057" gradientUnits="userSpaceOnUse">
<stop stop-color="#A7FFBB"/>
<stop offset="1" stop-color="#E2FF6E"/>
</linearGradient>
<linearGradient id="paint8_linear_1005_6779" x1="644.186" y1="-4.05409" x2="644.186" y2="169.057" gradientUnits="userSpaceOnUse">
<stop stop-color="#A7FFBB"/>
<stop offset="1" stop-color="#E2FF6E"/>
</linearGradient>
<linearGradient id="paint9_linear_1005_6779" x1="644.186" y1="-4.05409" x2="644.186" y2="169.057" gradientUnits="userSpaceOnUse">
<stop stop-color="#A7FFBB"/>
<stop offset="1" stop-color="#E2FF6E"/>
</linearGradient>
</defs>
</svg>
